<svg id="Слой_1" data-name="Слой 1" xmlns="http://www.w3.org/2000/svg" viewBox="0 0 81.4 114.6"><defs><style>.cls-1{fill:none}.cls-2{fill:#7fa85b}.cls-3{fill:#c6d8b5}</style></defs><title>ico1</title><path class="cls-1" d="M42.5 82.72h-.1v.22zm-.11-39.42v.07z"/><path class="cls-2" d="M74.82 111.22a4.51 4.51 0 0 1-3.15-1.14c-6.94-5.9-15.08-9-24-10.2a21.09 21.09 0 0 0-3.92-.35c-1.23.06-1.85-.49-1.84-1.77v-8.51A3.74 3.74 0 0 1 43 86.71q2.89-3.12 5.66-6.34a3 3 0 0 1 2.79-1c8.8.94 15.82-2.45 21.29-9.17a28.75 28.75 0 0 0 6.58-20.52c-.32-5.06-.41-5.36-5.57-5.52-8.86-.29-15.61 3.84-20.64 10.91a29.4 29.4 0 0 0-5.18 20.46 3.25 3.25 0 0 1-.7 2.47c-1.09 1.42-2.42 2.62-3.53 4-.29.37-.69.83-1.2.69l-.14.16v-.22c-.5-.25-.43-.88-.44-1.38V50.68a4.76 4.76 0 0 1 1.68-4c1.05-.88 1.77-2.07 2.74-3a2.57 2.57 0 0 1 2.24-.87C57.21 43.85 64.39 37.3 67 31.14a21.82 21.82 0 0 0 1.77-11.37c-.34-2.59-.95-3.26-3.59-3.39a17.3 17.3 0 0 0-14.89 6.75 21.15 21.15 0 0 0-4.99 15.05 5.32 5.32 0 0 1-1.73 4.51c-.34.31-.63.82-1.17.6v-.07c-.46-.22-.42-.77-.44-1.22a34.09 34.09 0 0 0-.56-7.52 20.94 20.94 0 0 0-3.62-8 5.63 5.63 0 0 1-1.21-3.95 21.33 21.33 0 0 0-2.38-11.42C31.36 6 27.31 2.37 21.48.92A5.21 5.21 0 0 1 19.7.31a.37.37 0 0 1-.12-.2h-3a.37.37 0 0 1-.13.21 3.63 3.63 0 0 1-1.32.5 2.44 2.44 0 0 0-1.93 2.25 20.17 20.17 0 0 0 .28 8c1.79 7.16 5.77 12.53 12.89 15.16a12.86 12.86 0 0 0 6.49.82 2.82 2.82 0 0 1 3 1.39 20.44 20.44 0 0 1 3.67 11.85c.07 8.19 0 16.38 0 24.57a4.92 4.92 0 0 1-.07 1.1c-.23 1-.82 1.24-1.54.48a51.33 51.33 0 0 1-4.14-4.74 2.46 2.46 0 0 1-.33-1.81 29.56 29.56 0 0 0-6.21-22 23.91 23.91 0 0 0-15.22-9.31 22.19 22.19 0 0 0-7.21 0 2.72 2.72 0 0 0-2.48 2.6 29.14 29.14 0 0 0 1.85 15.45 27.71 27.71 0 0 0 11.33 13.72 21.58 21.58 0 0 0 14.15 3.17 3.39 3.39 0 0 1 3.23 1.15c1.89 2.18 3.83 4.31 5.77 6.45a3.72 3.72 0 0 1 .93 2.61v23.62c0 1.72-.46 2.08-2.17 2.2-10.37.74-19.84 3.85-27.84 10.73a3.45 3.45 0 0 1-2.43.93H5.89c-2 0-4-.22-5.79.83a3.08 3.08 0 0 1 0 .63c-.35 1.62.28 1.94 1.9 1.94q38.44-.1 76.89 0c2.52 0 2.52 0 2.52-2.52-2.09-1.2-4.41-.89-6.59-.87zM52.69 62c3.3-7.58 8.71-12.71 17-14.39a19.76 19.76 0 0 1 5.64-.13c.68.06 1 .37 1 1.1.72 10.73-3.05 19.26-12.33 25.06a19.66 19.66 0 0 1-11 2.6l11.15-12.46c1.4-1.56 2.81-3.11 4.2-4.69a2 2 0 0 0 .28-2.6 1.55 1.55 0 0 0-1.81-.59c-.68.15-1 .75-1.4 1.21q-7 7.79-13.93 15.59c-.19.22-.32.56-.87.5A25.45 25.45 0 0 1 52.69 62zm-.24-36.8a14.78 14.78 0 0 1 12-5.6c1.11 0 1.52.35 1.56 1.54.25 7.53-3.62 14.23-10.09 17.27a11.09 11.09 0 0 1-5.29 1.05l8.72-9.77a5.11 5.11 0 0 0 .88-1.1 1.82 1.82 0 0 0-.44-2.42 1.62 1.62 0 0 0-2.36.4Q53.23 31.28 49 36c-.23.26-.35.67-1 .66a18.44 18.44 0 0 1 4.46-11.46zm-21.84-7.55c-2-2.12-3.86-4.28-5.77-6.44-.8-.9-1.61-1.82-2.88-.76-.88.73-.75 2 .34 3.18q4.18 4.7 8.38 9.38c.16.19.32.38.72.85-6.4-.55-10.58-3.76-13.4-8.92a18.82 18.82 0 0 1-2.17-9.68c0-1.12.47-1.34 1.5-1.42 6.77-.47 12.78 4.53 15.19 10.83A21.27 21.27 0 0 1 33.8 21a22.46 22.46 0 0 1-3.19-3.35zm0 39.87l-8.79-9.8q-3-3.34-6-6.69c-.79-.89-1.67-1.66-2.77-.6s-.65 2.06.23 3c5 5.54 9.93 11.09 15 16.81a14.57 14.57 0 0 1-7-.76c-8.3-2.9-13.18-9-15.54-17.22A23.77 23.77 0 0 1 5.09 33c.1-.91.35-1.24 1.27-1.34a19.59 19.59 0 0 1 15.16 4.73c6.58 5.4 9.29 12.61 9.07 21.13zm-16.38 53.27c13.83-10.61 39-10.72 52.84-.12-1.6.25-46.07.33-52.84.12z"/><path class="cls-2" d="M43.56 42.69a5.32 5.32 0 0 0 1.73-4.51 21.15 21.15 0 0 1 4.95-15.05 17.3 17.3 0 0 1 14.89-6.75c2.64.14 3.25.8 3.59 3.39A21.82 21.82 0 0 1 67 31.14c-2.56 6.16-9.74 12.7-18.42 11.65a2.57 2.57 0 0 0-2.24.87c-1 1-1.69 2.16-2.74 3a4.76 4.76 0 0 0-1.68 4c.06 8.46 0 16.91 0 25.37v5.2c0 .5-.06 1.12.44 1.38v-.95c0-8.93.29-17.87-.12-26.77-.21-4.65.92-8.23 4.47-11.12a.49.49 0 0 0 .1-.12 1.25 1.25 0 0 1 1.48-.54 14 14 0 0 0 6.84-.57C65.51 39.24 70.67 28.17 69 18.26a2.28 2.28 0 0 0-2-2 16 16 0 0 0-12.72 2.7c-6.75 4.69-9.75 11.38-9.35 19.48.11 2.26-1 3.34-2.49 4.89.49.19.78-.33 1.12-.64zM19.7.31a5.21 5.21 0 0 0 1.78.6c5.83 1.46 9.88 5.09 12.67 10.3a21.33 21.33 0 0 1 2.38 11.42 5.63 5.63 0 0 0 1.21 3.95 20.94 20.94 0 0 1 3.62 8 34.09 34.09 0 0 1 .56 7.52c0 .45 0 1 .44 1.22v-3.8a23.07 23.07 0 0 0-2.12-9.59c-.85-1.88-2.49-3.38-3.13-5.21s.1-4-.2-6.07c-.06-.42-.13-.83-.19-1.24A20.5 20.5 0 0 0 19.67.11h-.09a.37.37 0 0 0 .12.2z"/><path class="cls-2" d="M78.55 110.83a11.11 11.11 0 0 1-8.84-2.73c-7.5-5.95-16.42-8.42-25.88-9-1.1-.07-1.56-.25-1.51-1.49.1-2.78.05-5.57 0-8.35a2.49 2.49 0 0 1 .68-1.84q3.24-3.55 6.41-7.15a1.54 1.54 0 0 1 1.59-.59 21.06 21.06 0 0 0 11.13-1.15c13.05-4.94 19.69-20 17.18-32.48a2.16 2.16 0 0 0-1.92-1.91 21.17 21.17 0 0 0-17.1 3.37c-10 6.91-13.9 16.66-12.69 28.61 0 .36.15.7-.14 1-1.58 1.76-3.15 3.54-5 5.57.51.14.91-.32 1.2-.69 1.11-1.4 2.44-2.61 3.53-4a3.25 3.25 0 0 0 .7-2.47 29.4 29.4 0 0 1 5.18-20.46c5-7.09 11.78-11.2 20.65-10.94 5.16.15 5.25.46 5.57 5.52a28.75 28.75 0 0 1-6.58 20.52c-5.47 6.72-12.49 10.11-21.29 9.17a3 3 0 0 0-2.79 1Q45.9 83.6 43 86.71a3.74 3.74 0 0 0-1.1 2.55v8.51c0 1.27.61 1.83 1.84 1.77a21.09 21.09 0 0 1 3.92.35c8.94 1.21 17.08 4.3 24 10.2a4.51 4.51 0 0 0 3.15 1.14c2.22 0 4.49-.32 6.57.82a2.91 2.91 0 0 0-2.83-1.22zm-72.67.38h1.26a3.45 3.45 0 0 0 2.43-.93c8-6.89 17.47-10 27.84-10.73 1.71-.12 2.16-.48 2.17-2.2V73.73a3.72 3.72 0 0 0-.93-2.61c-1.94-2.14-3.88-4.27-5.77-6.45a3.39 3.39 0 0 0-3.23-1.15 21.58 21.58 0 0 1-14.15-3.17A27.71 27.71 0 0 1 4.18 46.63 29.14 29.14 0 0 1 2.4 31.18a2.72 2.72 0 0 1 2.48-2.6 22.19 22.19 0 0 1 7.21 0 23.91 23.91 0 0 1 15.21 9.26 29.56 29.56 0 0 1 6.21 22 2.46 2.46 0 0 0 .33 1.81A51.33 51.33 0 0 0 38 66.39c.72.76 1.31.53 1.54-.48a4.92 4.92 0 0 0 .07-1.1c0-8.19.05-16.38 0-24.57a20.44 20.44 0 0 0-3.69-11.84 2.82 2.82 0 0 0-3-1.39 12.86 12.86 0 0 1-6.49-.82c-7.12-2.63-11.1-8-12.89-15.16a20.17 20.17 0 0 1-.28-8A2.44 2.44 0 0 1 15.09.82a3.63 3.63 0 0 0 1.32-.5.37.37 0 0 0 .13-.21h-.09c-3 .46-3.44.81-3.7 2.77a22 22 0 0 0 2.43 14c4 7.15 9.89 11.27 18.48 10.44a1.58 1.58 0 0 1 1.53.82A19 19 0 0 1 39.09 40v25.68c0 .28.18.62-.29 1-1.62-1.82-3.25-3.62-4.85-5.45-.27-.3-.12-.71-.08-1.06a29.16 29.16 0 0 0-7.74-24.34c-5.73-6.19-12.84-9-21.41-7.7A2.86 2.86 0 0 0 2 31a31 31 0 0 0 3.33 19.14C10 59 19.85 65.61 30.43 63.85a1.73 1.73 0 0 1 1.76.7c1.92 2.22 3.81 4.45 5.88 6.57a3.68 3.68 0 0 1 1.05 2.81c0 7.77-.06 15.55 0 23.32 0 1.39-.32 1.81-1.78 1.91-9.29.59-18.06 3-25.44 8.84-2.86 2.26-5.65 3.29-9.12 2.84A2.69 2.69 0 0 0 .1 112c1.82-1 3.82-.78 5.78-.79zM16.54.1h3a11.45 11.45 0 0 0-3 0z"/><path class="cls-3" d="M19.58.11zm-3.13 0z"/></svg>