<svg id="Слой_1" data-name="Слой 1" xmlns="http://www.w3.org/2000/svg" viewBox="0 0 203.2 83.98"><defs><style>.cls-1{fill:#7fa85b}</style></defs><title>ico4</title><path class="cls-1" d="M55 21.61h-.2zm68.53-.38zM138.5.75a12.9 12.9 0 0 0-3.75 1.42c-.61.37-.84.76-.38 1.43a26.22 26.22 0 0 1 2.85 6.65 34 34 0 0 0 19.35 20.88c2.35 1 4.66 2.14 7.29 3a42.6 42.6 0 0 0-6.06-13.29 26.92 26.92 0 0 0-5.16-5.74c-.36-.29-.92-.67-.59-1.16s.89-.07 1.27.17a25.27 25.27 0 0 1 6.08 5.72 43.72 43.72 0 0 1 7 12.16c3.38-11-2.58-22.27-11.55-27.67a28.09 28.09 0 0 0-9.3-3.55c-.5-.1-1.26.12-1.34-.77h-4.52c-.02.84-.69.64-1.19.75zM151 13.46l-2.39-1.31a2.54 2.54 0 0 1 2.39 1.31z"/><path class="cls-1" d="M133.79 3.42a26 26 0 0 1 3 6.75c4.38 13.58 14.82 20.33 27.74 24.59-2.35-8.12-5.83-15.38-12.42-20.82 7.14 4.43 11.07 11.3 14.33 19.05a20.43 20.43 0 0 0 1.27-9.3c-1.14-9.49-6.22-16.25-14.51-20.76a34.93 34.93 0 0 0-9-2.93c.08.89.84.67 1.34.77a28.09 28.09 0 0 1 9.28 3.56c9 5.4 14.93 16.69 11.55 27.67a43.72 43.72 0 0 0-7-12.16 25.27 25.27 0 0 0-6.08-5.72c-.38-.24-.92-.69-1.27-.17s.22.87.59 1.16a26.92 26.92 0 0 1 5.16 5.74 42.6 42.6 0 0 1 6.06 13.29c-2.63-.89-4.94-2-7.29-3a34 34 0 0 1-19.35-20.88 26.22 26.22 0 0 0-2.85-6.65c-.46-.67-.24-1.06.38-1.43A12.9 12.9 0 0 1 138.5.75c.46-.11 1.17.09 1.18-.75-1.91.63-4 .81-5.63 2.15-.49.4-.69.64-.26 1.27zM72.62.75a11.8 11.8 0 0 0-3.78 1.35c-.54.32-1 .67-.52 1.4 1.54 2.38 2.26 5.11 3.22 7.73 3.62 9.86 10.57 16.4 20.11 20.4 2 .83 3.91 1.78 6.16 2.54a36.19 36.19 0 0 0-2.68-7.36 32.54 32.54 0 0 0-8.91-11.91 2.65 2.65 0 0 1-.66-.7.54.54 0 0 1-.06-.6.49.49 0 0 1 .59-.14 7 7 0 0 1 2.09 1.19c5.07 4 8.53 9.19 11.17 15 .25.54.45 1.1.73 1.62.06.1.13.17.36.21A19.69 19.69 0 0 0 101 22C99.11 11.31 90.79 3.08 79.83.8c-.55-.11-1.36.13-1.5-.8h-4.52c-.02.84-.73.65-1.19.75z"/><path class="cls-1" d="M67.84 3.56a24.85 24.85 0 0 1 2.72 6.17 34.52 34.52 0 0 0 12 17.19c3.89 3 8.32 4.88 12.8 6.72a10.13 10.13 0 0 0 3.14 1.06C96 26.4 92.47 19 85.59 13.63 93 18 97 25.08 100.37 32.9a16.1 16.1 0 0 0 1.21-5.19c.59-11.27-4.7-19.17-14.18-24.65-2.82-1.63-6-2.3-9.07-3.07.14.93 1 .69 1.5.8C90.79 3.08 99.11 11.31 101 22a19.69 19.69 0 0 1-.53 9.5c-.23 0-.31-.1-.36-.21-.28-.52-.48-1.08-.73-1.62-2.64-5.8-6.1-11-11.17-15a7 7 0 0 0-2.09-1.19.49.49 0 0 0-.59.14.54.54 0 0 0 .06.6 2.65 2.65 0 0 0 .66.7 32.54 32.54 0 0 1 8.89 11.88 36.19 36.19 0 0 1 2.68 7.36c-2.26-.76-4.19-1.71-6.16-2.54-9.54-4-16.49-10.55-20.11-20.4-1-2.62-1.69-5.35-3.22-7.73-.47-.73 0-1.08.52-1.4A11.8 11.8 0 0 1 72.62.75c.46-.09 1.17.1 1.18-.75-1.93.59-4 .76-5.68 2.05-.6.47-.78.76-.28 1.51zM5.13.74a11.89 11.89 0 0 0-3.77 1.35c-.49.29-1 .63-.57 1.28C3 7 3.8 11.29 5.73 15.08c3.92 7.74 10.12 13 18 16.36 2.16.94 4.3 1.93 6.75 2.8a46.6 46.6 0 0 0-6-13.14 31.54 31.54 0 0 0-4.23-4.86 4.69 4.69 0 0 1-1.42-1.72.53.53 0 0 1 0-.1l-2.21-1.5a4.11 4.11 0 0 1 2.49 1.16l.14-.05c2.4.9 4 2.78 5.66 4.61a42.94 42.94 0 0 1 7.48 12.18 1 1 0 0 0 .53.67 19.1 19.1 0 0 0 .53-9.49C31.63 11.28 23.35 3.1 12.34.81 11.79.69 11 .93 10.84 0H6.32c-.02.84-.73.65-1.19.74z"/><path class="cls-1" d="M.53 2.17c-.38.3-.77.5-.34 1.12 1.64 2.36 2.45 5.11 3.4 7.78a33.62 33.62 0 0 0 15.47 18.48 83.5 83.5 0 0 0 12 5.34c-2.39-8.07-5.68-15.16-12.11-20.39l-.1-.07a.53.53 0 0 0 0 .1 4.69 4.69 0 0 0 1.42 1.72 31.54 31.54 0 0 1 4.23 4.86 46.6 46.6 0 0 1 6 13.14c-2.44-.87-4.58-1.86-6.75-2.8-7.86-3.4-14-8.62-18-16.36C3.8 11.29 3 7 .78 3.36c-.39-.64.09-1 .57-1.28A11.89 11.89 0 0 1 5.13.74C5.59.65 6.3.84 6.32 0c-.32.35-.8.25-1.21.33A10.46 10.46 0 0 0 .53 2.17z"/><path class="cls-1" d="M12.34.81C23.35 3.1 31.63 11.28 33.45 22a19.1 19.1 0 0 1-.53 9.55 1 1 0 0 1-.53-.67 42.94 42.94 0 0 0-7.48-12.18c-1.64-1.83-3.26-3.71-5.66-4.61l-.14.05.13.11c.57.4 1.16.77 1.7 1.21 5.2 4.2 8.54 9.72 11.18 15.75.22.49.2 1.17.89 1.41A15.91 15.91 0 0 0 34.09 28c1.13-11.25-5.81-20.6-14.31-25a38.89 38.89 0 0 0-8.94-3c.16.93.95.69 1.5.81zm184.88 13.1c-9.17-2.29-19.71 2.69-23.81 11.22a15.12 15.12 0 0 0-1.58 6.77c.86-.77 1.72-1.49 2.52-2.27a29.85 29.85 0 0 1 9.52-6.76 6.13 6.13 0 0 1 3.72-1.06l-3.36 1.4c-4.72 2.55-8.32 6.26-11.56 10.93 2.23-.21 4.08-.37 5.93-.57 7.91-.85 14.64-4 19.75-10.26a28.56 28.56 0 0 1 4.43-4.88c.75-.58.36-1 0-1.42a10.16 10.16 0 0 0-5.56-3.1zM67.54 15.54a12.51 12.51 0 0 0-2-1 16.82 16.82 0 0 0-9-1c-7.88 1.22-13.76 5.21-17 12.63a11.83 11.83 0 0 0-1.09 6c3.78-4.14 7.64-7.75 12.76-9.69a7.74 7.74 0 0 1 4-1l-.35.13H55h-.16l-3.32 1.23c-5.15 2.49-8.92 6.46-12.37 11.32 2.27-.22 4.14-.38 6-.59 7.36-.82 13.79-3.55 18.79-9.19 1.43-1.61 2.74-3.32 4.21-4.88 1.85-1.98 1.85-2.43-.61-3.96zm67.46 0a12.62 12.62 0 0 0-2.16-1.07 18.61 18.61 0 0 0-8.87-.93c-8.08.8-15.71 7-17.7 14.63a7.82 7.82 0 0 0-.47 3.51c1.13-1 2.32-2 3.47-3 3.26-2.93 6.7-5.55 11-6.72a6.2 6.2 0 0 1 3.2-.71h.42l-3.63 1c-5.83 2.36-9.94 6.67-13.72 11.87 1.23-.09 2.09-.14 2.94-.23s1.81-.22 2.72-.31c8.31-.78 15.24-4.17 20.5-10.77.9-1.13 1.82-2.26 2.83-3.31 1.93-1.96 1.91-2.4-.53-3.96zm37.53 60q-.92-15.22-1.85-30.44c-.22-3.65-.48-7.29-.72-10.93h-.15q-.37 5.87-.73 11.73-.59 9.5-1.17 19c-.36 5.91-.71 11.81-1.1 17.72-.06 1 .17 1.37 1.21 1.3a34 34 0 0 1 3.87 0c.88 0 1.12-.32 1.06-1.13-.16-2.41-.27-4.79-.42-7.25zM39 76q-1.23-20.51-2.44-41h-.29c-.19 2.88-.38 5.77-.56 8.66q-.6 9.58-1.18 19.16c-.39 6.6-.75 13.21-1.16 19.81-.06 1 .21 1.36 1.22 1.3a38.63 38.63 0 0 1 3.87 0c.88 0 1.09-.31 1-1.14-.18-2.26-.33-4.51-.46-6.79zm67.34-3.11q-1.11-18.34-2.23-36.67l-.55.31-.68 11.58c-.62 10.24-1.21 20.48-1.88 30.72-.35 5.3-.42 5.3 4.84 5.07h.16c.8.09 1-.26.94-1-.23-3.35-.39-6.68-.6-10.01z"/><path class="cls-1" d="M54.8 21.63a6.29 6.29 0 0 0-1.67.35 6.9 6.9 0 0 1 1.67-.35z"/><path class="cls-1" d="M53.16 22h-.06a6.42 6.42 0 0 0-1.62.88l3.32-1.23a6.9 6.9 0 0 0-1.64.35z"/><path class="cls-1" d="M53.16 22a6.29 6.29 0 0 1 1.67-.35l.35-.13a7.74 7.74 0 0 0-4 1 12.2 12.2 0 0 0 2-.55zm132.05.45a6.3 6.3 0 0 1-1.34.41l.36.35a2.81 2.81 0 0 1 .98-.76zm.49-.19c.5-.17 1-.27 1.52-.42a5.19 5.19 0 0 0-1.52.42z"/><path class="cls-1" d="M183.87 22.87a6.3 6.3 0 0 0 1.34-.41 4.3 4.3 0 0 1 .49-.2 5.19 5.19 0 0 1 1.52-.42c-.49.15-1 .25-1.52.42a4.3 4.3 0 0 0-.49.2 2.81 2.81 0 0 0-1 .76l3.36-1.4a6.13 6.13 0 0 0-3.7 1.05zm-60.35-1.64a6.74 6.74 0 0 0-1.47.33c.5-.12.95-.2 1.47-.33zm-3.21.71v.32a4.06 4.06 0 0 1 1-.49 5.07 5.07 0 0 1-1 .17z"/><path class="cls-1" d="M123.52 21.23c-.53.14-.56.12-1.47.33a7.38 7.38 0 0 0-.77.22 4.06 4.06 0 0 0-1 .49l3.63-1z"/><path class="cls-1" d="M122 21.56a6.74 6.74 0 0 1 1.47-.33 6.2 6.2 0 0 0-3.2.71 5.07 5.07 0 0 0 1-.16 7.38 7.38 0 0 1 .73-.22zm-17.88 14.66a7.09 7.09 0 0 0-.17-2.78 5.49 5.49 0 0 0-.38 3.09c.12-.21.18-.53.55-.31z"/><path class="cls-1" d="M103.57 36.53l.55-.31c-.37-.22-.43.1-.55.31zM18.85 14.38a.45.45 0 0 1 .19-.25 2.67 2.67 0 0 1-.68-.31 4.13 4.13 0 0 1 .49.56z"/><path class="cls-1" d="M18.85 14.38l.09.12.31-.3-.25-.07a.45.45 0 0 0-.15.25z"/><path class="cls-1" d="M18.36 13.82a1.22 1.22 0 0 1-.2-.17 1.22 1.22 0 0 0 .2.17 2.67 2.67 0 0 0 .68.31h.08a4.11 4.11 0 0 0-2.49-1.16l2.21 1.5a4.13 4.13 0 0 0-.48-.65z"/><path class="cls-1" d="M19 14.13l.21.07-.13-.11zm-.16.29l.1.07-.09-.12zM151 13.46a2.54 2.54 0 0 0-2.39-1.31"/></svg>