<svg id="Слой_1" data-name="Слой 1" xmlns="http://www.w3.org/2000/svg" viewBox="0 0 137.87 127.44"><defs><style>.cls-1{fill:#7fa85b}.cls-2{fill:#fff}.cls-3{fill:#a0be85}</style></defs><title>ico3</title><path class="cls-1" d="M111.6 123a10.52 10.52 0 0 1-1.16-5.57A45 45 0 0 0 119 121c2.2.59 3.51.18 4.07-1.45s-.37-2.76-2.6-3.41a27.66 27.66 0 0 1-16.53-12.33c-.39-.63-.73-1.29-1.21-2.14 3.54.43 6.84.59 10.08-.52a18.92 18.92 0 0 0 6.35-3.66c1.2-1 1.56-2.3.53-3.6a2.37 2.37 0 0 0-3.77-.28c-5.22 4.74-13.76 3.94-18.67-.24a11.39 11.39 0 0 0-10.66-2.09c-4.6 1.2-8.28-.88-9.69-5.65a24.49 24.49 0 0 0 5.43.34 7.76 7.76 0 0 0 3.51-1 2.29 2.29 0 0 0 1.11-3.14 2.49 2.49 0 0 0-3-1.49c-6 1.41-8.64-.12-10.35-6-1.25-4.32-2.74-8.57-3.69-13-.4-1.86 0-2.3 1.93-2.29 20.41.07 40.82 0 61.23 0h1.64c1.58 0 3-.44 3.22-2.19s-.87-2.72-2.54-3a2.6 2.6 0 0 0-.25.33 6.28 6.28 0 0 1-2.44.26H70.79a1.69 1.69 0 0 1-1.78-2A38 38 0 0 1 78 29.64c1-1.23 2.4-1.41 3.89-1.43 9.7-.16 16.61-4.73 20.89-13.37a16.26 16.26 0 0 0 1.4-4.5c.38-2.22-.36-3.3-2.61-3.5a22.4 22.4 0 0 0-17.19 5.24 21.82 21.82 0 0 0-7.24 11A9.65 9.65 0 0 1 75 27a37.21 37.21 0 0 0-6 9.26 16.23 16.23 0 0 1-.76 1.46c-.71 1.21-1.41 1.13-2.07 0-1-1.79-2-3.61-3.07-5.34-1.29-2-2.59-4-4-6a8.37 8.37 0 0 1-1.33-3c-3-11.63-10.3-19-22-22.08-1-.26-2.43.11-2.9-1.37h-.82c-2 .84-4.14.25-6.21.38-3.16.11-4 1.23-3.32 4.26C26 19.3 38.41 28.84 53.15 28.05a2.54 2.54 0 0 1 2.3.95 37 37 0 0 1 9.11 23c.09 1.8-.65 1.93-2.1 1.93-19.44 0-38.88 0-58.33-.06-1.69 0-3.08.28-4.14 1.65v2.06a5.44 5.44 0 0 0 4.21 1.54C23.59 59 43 59.09 62.35 59c2.05 0 2.46.54 1.94 2.44a69 69 0 0 1-4.54 12c-1.7 3.47-5.08 4.82-8.56 5.82a19.51 19.51 0 0 1-15.81-2c-.76-.44-1.51-1-2.49-.67a2.64 2.64 0 0 0-1.95 1.93 2.52 2.52 0 0 0 1.31 2.78 23.23 23.23 0 0 0 9.93 3.7 26.25 26.25 0 0 0 8.87-.39 24.16 24.16 0 0 1-7.47 4.72C36.76 92 30.71 95.68 25.94 101.3a2.37 2.37 0 0 1-1.63.69 38.34 38.34 0 0 0-12.62 4.06c-3.94 2.23-7 5.18-8.19 9.75-.48 1.87.1 3.23 1.66 3.6s2.66-.41 3.18-2.05c1.92-6.07 7.11-7.76 12.79-9.54-1 2.45-2 4.45-2.61 6.54-.88 2.87-1.42 5.83-2.28 8.71-.57 1.9-.21 3.31 1.45 4.38h1.23c1.78-.71 2.13-2.3 2.47-3.93 1-5 2.36-10 5.13-14.38a35.26 35.26 0 0 1 11.75-11.62 24.5 24.5 0 0 0 .73 10.77 28.08 28.08 0 0 0 4.19 8.15c1 1.38 2.33 1.75 3.73.76s1.4-2.39.4-3.76c-3.55-4.88-5.08-10.22-3.78-16.24a4.43 4.43 0 0 1 2.71-3.48A38.19 38.19 0 0 0 61.67 80.8c.29-.41.35-1.07 1.08-1.15-.21 2.12-.77 4.16-.85 6.29a11 11 0 0 0 3.19 8.37c3.26 3.42 3 6.92-.74 9.77-2.06 1.58-4.12 3.18-6.19 4.74-1.39 1-2 2.29-1 3.86.92 1.37 2.42 1.38 4.11.13 1.19-.89 2.37-1.79 3.78-2.85a12.21 12.21 0 0 1-2 9.9 3.2 3.2 0 0 0-1 2.6 2.54 2.54 0 0 0 1.87 2 2.5 2.5 0 0 0 2.73-1 15.59 15.59 0 0 0 3.63-8.76 21 21 0 0 0-.57-7.34 1.89 1.89 0 0 1 .36-1.82c3.42-4.92 3-10.3-1.11-14.53a6.21 6.21 0 0 1-2-5.54 69.18 69.18 0 0 1 1.76-8.87c.92 3.15 1.89 6.29 2.75 9.46a18.16 18.16 0 0 0 4.23 7.6c3.35 3.69 5.78 8 6.14 13.11a10.07 10.07 0 0 1-1.09 5.55c-.91 1.72-.54 3.27.76 3.91s3 0 3.86-1.7c2.65-5.18 1.94-10.31-.22-15.43l-1-2.37a25.72 25.72 0 0 0 4.6-.73 7.35 7.35 0 0 1 7.87 4.63 33.39 33.39 0 0 0 8.38 12.48c.85.77.59 1.56.5 2.43-.45 4.35.15 8.43 3.07 11.91H111a3.23 3.23 0 0 0 .6-4.45zM82.07 22.52c2.25-6 9.32-11.1 15.8-11.35 1.26 0 1.34.34.94 1.41-2.28 6-9.58 11.23-15.9 11.21-1.02.11-1.24-.21-.84-1.27zm-53.78-16c-.45-1.34.11-1.3 1.07-1.34 10.46-.35 20.83 7.43 23.49 17.73A24.54 24.54 0 0 1 28.29 6.54z"/><path class="cls-1" d="M35.79 1.37c11.66 3.06 18.94 10.44 22 22.08a8.37 8.37 0 0 0 1.33 3c1.42 1.93 2.72 3.95 4 6 1.11 1.73 2.07 3.55 3.07 5.34.66 1.17 1.35 1.25 2.07 0a16.23 16.23 0 0 0 .74-1.5A37.21 37.21 0 0 1 75 27a9.65 9.65 0 0 0 2.08-4 21.82 21.82 0 0 1 7.24-11 22.4 22.4 0 0 1 17.19-5.24c2.25.2 3 1.28 2.61 3.5a16.26 16.26 0 0 1-1.4 4.5c-4.29 8.64-11.19 13.21-20.89 13.37-1.49 0-2.86.2-3.89 1.43A38 38 0 0 0 69 52.35a1.69 1.69 0 0 0 1.78 2h61.82a6.28 6.28 0 0 0 2.44-.26 2.6 2.6 0 0 1 .25-.33q-32.14 0-64.28.1c-1.29 0-1.45-.56-1.38-1.62A37.21 37.21 0 0 1 78 30.48a4.05 4.05 0 0 1 3.61-1.69 23.19 23.19 0 0 0 23.06-17.62c.89-3.45 0-4.81-3.55-5-9.64-.48-17.63 3-22.09 11.62-2.82 5.44-6 10.6-9.24 15.74a29.19 29.19 0 0 0-1.83 3.66 2.48 2.48 0 0 1-.84 1.3A82.35 82.35 0 0 0 59 25.36a4.47 4.47 0 0 1-.64-1.71c-2.24-10-8.1-17-17.35-21.19C38.41 1.27 35.57.91 32.89 0c.47 1.48 1.9 1.1 2.9 1.37z"/><path class="cls-2" d="M135.3 53.82h-.06z"/><path class="cls-3" d="M26 .21c2-.11 4 .25 6-.21h-6.1c.1.08.15.15.1.21z"/><path class="cls-3" d="M26 .21a.13.13 0 0 1 0 .06.22.22 0 0 1-.16.11C27.92.25 30 .84 32.07 0c-2 .46-4.02.1-6.07.21zm-.09 0H26c0-.06 0-.13-.14-.21a.5.5 0 0 1 .05.21z"/><path class="cls-3" d="M26 .21h-.14a.49.49 0 0 1-.06.16.22.22 0 0 0 .2-.1.13.13 0 0 0 0-.06z"/></svg>