<svg id="Слой_1" data-name="Слой 1" xmlns="http://www.w3.org/2000/svg" viewBox="0 0 128.54 128.54"><defs><style>.cls-1{fill:none}.cls-2{fill:#7fa85b}.cls-3{clip-path:url(#clip-path)}</style><clipPath id="clip-path" transform="translate(-186.06 -185.78)"><path class="cls-1" d="M217.99 206.63h64.68v81.78h-64.68z"/></clipPath></defs><title>ico5</title><path class="cls-2" d="M250.33 185.78A64.27 64.27 0 1 0 314.6 250a64.27 64.27 0 0 0-64.27-64.22zm0 120.51A56.24 56.24 0 1 1 306.56 250a56.24 56.24 0 0 1-56.23 56.29z" transform="translate(-186.06 -185.78)"/><path class="cls-2" transform="rotate(-45.01 -62.918 384.817)" d="M196.76 250.17h115.15v6.01H196.76z"/><g class="cls-3"><path class="cls-2" d="M272 242.19a9.73 9.73 0 0 0 4.61 3.63c1 .32 2.13 0 3.19.26a5.84 5.84 0 0 1 1.47.74c.26.12.18.51.55.4a.64.64 0 0 0 .35-.83 3.51 3.51 0 0 0-.5-.71 6.14 6.14 0 0 0-2.41-1.58 25.7 25.7 0 0 1-4-1.61c-3.07-1.91-4.17-6.25-7.49-7.69-.74-.32-1.56-.47-2.28-.85-1.17-.62-2.81-4-2.42-5.35.57-1.9 2.68-2.58 1.66-4.85a42.89 42.89 0 0 1-1.41-4.57 9.48 9.48 0 0 1-.33-5.66c.5-1.58 4.4-5.7 2.51-7a13.27 13.27 0 0 0-3.56 12.48c.34 1.39.92 2.71 1.2 4.11.2 1 .42 2.68-.22 3.53-.88 1.16-1.46-.48-2.23.42a1.79 1.79 0 0 1-.58.49 3.77 3.77 0 0 0 .75-2.25 3.84 3.84 0 0 0-3.8-3.8h-.31c.31-.56.12-.85-.45-1.22-.83-.53-2.76-1.4-1.88-2.58a3.18 3.18 0 0 1 1-.79 9.93 9.93 0 0 0 2.8-2 6 6 0 0 0 1.28-3.25c.07-.66.46-5.5-1.23-4.27a1.3 1.3 0 0 0-.28 2c.08.1.17.2.26.3a.67.67 0 0 0 0 .17c.56 1.53-.24 3-1.25 4.12a25.43 25.43 0 0 1-2.16 2.05 6.35 6.35 0 0 0-2 1.83 4.87 4.87 0 0 1-1.47-.06 5.64 5.64 0 0 0-1.32-.17 5.43 5.43 0 0 0-1.32.17 4.87 4.87 0 0 1-1.47.06 6.36 6.36 0 0 0-2-1.83 25.15 25.15 0 0 1-2.16-2c-1-1.12-1.8-2.6-1.25-4.13a.52.52 0 0 0 0-.17l.26-.3a1.3 1.3 0 0 0-.28-2c-1.69-1.23-1.3 3.61-1.23 4.27a6 6 0 0 0 1.27 3.25 9.79 9.79 0 0 0 2.8 2 3.22 3.22 0 0 1 1 .79c.88 1.18-1 2-1.87 2.58-.58.37-.77.66-.46 1.22h-.31a3.84 3.84 0 0 0-3.8 3.8 3.75 3.75 0 0 0 .75 2.25 1.83 1.83 0 0 1-.58-.49c-.77-.9-1.35.74-2.23-.42-.65-.85-.42-2.57-.23-3.53.28-1.4.86-2.73 1.2-4.11a13.28 13.28 0 0 0-3.57-12.49c-1.89 1.33 2 5.44 2.5 7a9.44 9.44 0 0 1-.33 5.66 41.94 41.94 0 0 1-1.41 4.57c-1 2.27 1.09 3 1.66 4.85.4 1.3-1.25 4.73-2.42 5.35-.72.38-1.53.53-2.28.86-3.32 1.44-4.42 5.77-7.49 7.69a25.37 25.37 0 0 1-4 1.61 6.18 6.18 0 0 0-2.4 1.59 3.24 3.24 0 0 0-.5.7.64.64 0 0 0 .35.84c.37.11.29-.28.55-.41a5.86 5.86 0 0 1 1.47-.74c1-.21 2.15.07 3.19-.26a9.78 9.78 0 0 0 4.61-3.62c1.55-2.06 2.74-4.42 4.66-6.14.82.88-.52 2.13-.93 2.95a26.34 26.34 0 0 0-1.52 3.7 35 35 0 0 0-1.52 7.66 62.21 62.21 0 0 0-.16 7.71c.07 2.23-.19 5.07.61 7.17.48 1.26-.38 2.18-.93 3.23a17.81 17.81 0 0 0-1.33 3.35 17.51 17.51 0 0 0-.51 7.16 4.08 4.08 0 0 1 0 1.89c-.38 1.09-1.63 1.55-2.66 2.08a9.06 9.06 0 0 0-3.1 2.63 2.53 2.53 0 0 0-.64 1.89c.12.59.82 1.13 1.35.81a1.21 1.21 0 0 1-.39-.66c-.09-1 1.29-1.5 1.95-1.9 1.17-.71 2.32-1.45 3.48-2.18.85-.53 2.37-1.09 2.68-2.14.22-.73-.45-2.14-.58-2.89a14.39 14.39 0 0 1 1-8.07c.1-.24.25-.5.5-.56.47-.12 1.15 3.13 1.33 3.63a26.38 26.38 0 0 0 1.82 3.93 27.37 27.37 0 0 0 5.38 6.76c1.67 1.53 4.15 3.8 6.47 4.13s4.26-1.77 4.82-3.93c.07-.29.13-.57.18-.86.05.29.11.58.18.86.55 2.16 2.39 4.28 4.81 3.93s4.8-2.61 6.47-4.13a27.34 27.34 0 0 0 5.38-6.76 26.72 26.72 0 0 0 1.82-3.93c.18-.49.85-3.74 1.33-3.62.25.06.39.32.5.56a14.42 14.42 0 0 1 1 8.07c-.13.75-.8 2.17-.58 2.89.31 1.05 1.83 1.61 2.68 2.14 1.16.72 2.31 1.46 3.48 2.18.65.4 2 1 1.95 1.9a1.19 1.19 0 0 1-.39.66c.54.31 1.24-.22 1.35-.81a2.54 2.54 0 0 0-.64-1.89 9.06 9.06 0 0 0-3.1-2.63c-1-.53-2.28-1-2.65-2.08a4.1 4.1 0 0 1 0-1.89 17.64 17.64 0 0 0-1.84-10.52c-.55-1.05-1.41-2-.93-3.23.8-2.1.53-4.94.61-7.17a61.87 61.87 0 0 0-.16-7.71 34.93 34.93 0 0 0-1.52-7.66 26.46 26.46 0 0 0-1.52-3.7c-.41-.81-1.75-2.07-.93-2.95 1.91 1.72 3.1 4.09 4.66 6.14zm0 0" transform="translate(-186.06 -185.78)"/></g></svg>