<svg id="Слой_1" data-name="Слой 1" xmlns="http://www.w3.org/2000/svg" viewBox="0 0 89.55 96.28"><defs><style>.cls-1{fill:none}.cls-2{fill:#7fa85b}.cls-3{fill:#80a95b}.cls-4{fill:#88ae69}</style></defs><title>ico2</title><path class="cls-1" d="M72.7 96.28l.24-.13a.59.59 0 0 0-.24.13z"/><path class="cls-2" d="M76.7 95c7.15-2.94 11.55-8.19 12.62-15.81 1.13-8-1.86-14.54-8.44-19.31a2.26 2.26 0 0 1-1.08-2.08V17.95A10.37 10.37 0 0 0 69 7.45 11.61 11.61 0 0 0 62.51 10c-2.63 2.65-3.46 5.86-3.43 9.55.1 12.39 0 24.79.07 37.18 0 1.82-.12 3.32-2 4.23a7.1 7.1 0 0 0-1.64 1.55 19.88 19.88 0 0 0 8.39 32.87 13.11 13.11 0 0 1 3.09.89h5.71a.59.59 0 0 1 .24-.13c1.17-.63 2.54-.63 3.76-1.14zm-14.23-8.81a12.19 12.19 0 0 1-4.25-14.39 9.67 9.67 0 0 1 5.36-5.56 1.87 1.87 0 0 0 1.26-2.05v-41.3a22.15 22.15 0 0 1 .32-3.66c.44-2.57 2.09-4.07 4.34-4.07 2.45 0 4.12 1.52 4.52 4.2a15.22 15.22 0 0 1 .11 2.26v42.43c0 .69-.1 1.31.86 1.67a10.3 10.3 0 0 1 6.94 8.89A11.74 11.74 0 0 1 77 86.13a12.18 12.18 0 0 1-14.53.06zm-48.8-42.63a3.21 3.21 0 0 1 2.62-1.05c2.65.06 5.3 0 7.95 0 1.08 0 1.64-.21 1.32-1.41a6.86 6.86 0 0 1 0-3.37c.26-1.1-.24-1.26-1.18-1.25h-8.23a2.92 2.92 0 0 1-2.37-1c-2.44-2.51-4.93-5-7.41-7.44-1.83-1.83-1.83-1.83-3.68 0C.33 30.56.33 30.56 2.75 33L6 36.21l-.19.43H0v6h6.2c-1.93 1.92-3.52 3.54-5.14 5.11-.58.56-.59 1 0 1.51a34.65 34.65 0 0 1 2.6 2.61c.67.76 1.12.7 1.81 0 2.71-2.87 5.53-5.52 8.2-8.31zM35.41 14a2.85 2.85 0 0 1 .92 2.26v8.51c0 .82.17 1.25 1.15 1a7.55 7.55 0 0 1 3.38 0c1.08.23 1.32-.14 1.31-1.13v-8.37a2.69 2.69 0 0 1 .83-2.15c2.82-2.79 5.58-5.65 8.42-8.43.72-.7.93-1.16 0-1.89A20.81 20.81 0 0 1 49 1.4c-.64-.73-1.09-.8-1.79 0-1.28 1.39-2.65 2.7-4 4-.25.25-.47.7-.92.47s-.19-.6-.2-.91c0-1.65-.07-3.31-.1-5h-5.64v4.82c0 .35.22.83-.2 1s-.66-.26-.91-.51a63.362 63.362 0 0 1-4.14-4.06c-.57-.6-1-.56-1.49 0A33.75 33.75 0 0 1 27 3.82c-.74.65-.76 1.07 0 1.78 2.81 2.77 5.58 5.62 8.41 8.4zm3.97 14.9a10.46 10.46 0 0 0-10.73 10.76 10.58 10.58 0 1 0 21.16-.13A10.45 10.45 0 0 0 39.38 28.9zM5.42 23.12c-.05 1 .36 1.29 1.33 1.28h11.49a3.21 3.21 0 0 1 2.62 1.05c1.88 2 3.87 3.88 5.79 5.85.64.66 1.06.77 1.64-.08a9.43 9.43 0 0 1 2.58-2.61c.78-.51.71-.92.08-1.53-2.14-2.08-4.21-4.21-6.34-6.3a2.17 2.17 0 0 1-.74-1.78V9.6c-.05-3.89-.06-3.89-3.88-3.88h-1c-.87-.07-1.16.32-1.14 1.17v5.82c0 .27.11.62-.17.78s-.59-.18-.8-.39c-.91-.89-1.83-1.78-2.7-2.72-.53-.57-.94-.66-1.5 0-.9 1-1.83 1.91-2.81 2.81-.64.58-.48 1 .07 1.49.94.87 1.82 1.79 2.72 2.7.22.22.61.4.42.8s-.5.23-.77.23c-1.89 0-3.78.12-5.67.06-1.1 0-1.41.38-1.33 1.41a24.87 24.87 0 0 1 .11 3.24zM31 52c.64-.62.65-1-.09-1.53a8.53 8.53 0 0 1-2.4-2.38c-.75-1.21-1.29-.9-2.09 0-1.85 2-3.81 3.81-5.69 5.75a2.83 2.83 0 0 1-2.25.93H6.7c-.88 0-1.31.19-1.25 1.17a30.92 30.92 0 0 1-.06 3.4c0 .86.16 1.32 1.16 1.29 1.89-.06 3.78 0 5.68 0 .36 0 .86-.14 1 .28s-.33.63-.58.89c-.89.91-1.78 1.83-2.72 2.7-.53.5-.57.88 0 1.39 1 .91 1.91 1.84 2.81 2.81.54.58.94.63 1.5 0 .89-1 1.85-1.89 2.8-2.82.19-.19.36-.51.69-.37s.21.49.22.75v5.82c0 .89.26 1.31 1.21 1.27 1.18-.05 2.37 0 3.55 0 .87 0 1.18-.31 1.16-1.16v-6.1h.1c0-1.75.06-3.5 0-5.25A3.37 3.37 0 0 1 25 57.92C27.05 56 29 54 31 52zm12 13a2.65 2.65 0 0 1-.87-2.14v-8.52c0-.85-.2-1.17-1.14-1.06a12.77 12.77 0 0 1-3.39 0c-1.11-.17-1.31.24-1.3 1.19v8.09a3.19 3.19 0 0 1-1.05 2.62c-2 1.89-3.92 3.84-5.82 5.82-1.06 1.11-3.08 2.08-2.94 3.36s2 2.23 3 3.4c.67.77 1.09.56 1.68-.07 1.23-1.31 2.51-2.57 3.8-3.83.31-.3.57-.94 1.1-.67s.14.77.18 1.18c.14 1.49-.68 3.43.34 4.35s2.9.19 4.4.27h.14c.74.06 1-.25.95-1-.07-1.27 0-2.55 0-3.83 0-.36-.19-.84.2-1s.72.29 1 .54c1 .87 1.71 2.1 3.16 3a26.28 26.28 0 0 1 .56-6.6 1.64 1.64 0 0 0-.56-1.74c-1.19-1.12-2.29-2.3-3.44-3.36zm4.54-38c-.71.68-.67 1.06.13 1.61a9.31 9.31 0 0 1 2.57 2.62c.54.84 1 .67 1.53.06.81-.86 1.62-1.73 2.51-2.51a3.06 3.06 0 0 0 1.11-2.59c-.07-3.12 0-6.24 0-9.36a12.81 12.81 0 0 1 1.22-6 9.38 9.38 0 0 1 3.21-3.51c.39-.26.87-.53.69-1.1s-.69-.41-1.1-.42h-3.54c-.85 0-1.11.31-1.15 1.17q-.25 5.88-.14 11.76a3.2 3.2 0 0 1-1.14 2.58c-2.01 1.84-3.91 3.81-5.9 5.69z"/><path class="cls-3" d="M53.17 57.63c.32.32.64.82 1.18.51s1-.61 1-1.28v-2.88c.52-1.84-.39-3.42-2-4.71a10.88 10.88 0 0 1-1.75-1.64c-.52-.65-.87-.58-1.27.06a9.28 9.28 0 0 1-2.73 2.83c-.69.46-.72.82-.11 1.41 1.88 1.87 3.77 3.8 5.68 5.7z"/><path class="cls-4" d="M55.37 37.2c-.1-1.16-1-.65-1.66-.72s-1 .14-.88.88a11.1 11.1 0 0 1 0 4.35.63.63 0 0 0 .51.84c1.39.36 2-.09 2-1.53V39.6c.04-.8.1-1.6.03-2.4z"/><path class="cls-3" d="M72.67 41.58c-.05-3.36 0-6.72 0-10.07v-9.79a8.62 8.62 0 0 0-.5-3.34 2.42 2.42 0 0 0-2.39-1.64A2.58 2.58 0 0 0 67 18.31a6.45 6.45 0 0 0-.49 2.63v20.72c0 .95.25 1.39 1.28 1.33a25.81 25.81 0 0 1 3.54 0c1.12.08 1.35-.39 1.34-1.41zm3.98 31.22c-1.51 0-2 .69-2 2.74a9.94 9.94 0 0 1-2.4 6.46c-1 1.3-.51 2.61 1.13 2.85a2.77 2.77 0 0 0 2.78-1 13.61 13.61 0 0 0 3-8.52 2.3 2.3 0 0 0-2.51-2.53z"/></svg>