<svg id="Слой_1" data-name="Слой 1" xmlns="http://www.w3.org/2000/svg" viewBox="0 0 99.74 154.36"><defs><style>.cls-1{fill:none}.cls-2{fill:#7fa85b}</style></defs><title>ico6</title><path class="cls-1" d="M235 173a20.53 20.53 0 0 1 9.69 2.64 30.66 30.66 0 0 1 9.46 8.26 36 36 0 0 1 7.4 24 34.09 34.09 0 0 1-2.55 11.25 30.46 30.46 0 0 1-4.94 8.09c-.18.23-.39.39-.58.6a108.63 108.63 0 0 1-1.74 14.7 84.16 84.16 0 0 1 7.33-11 4.56 4.56 0 0 0 .07.79 8.54 8.54 0 0 1-1.18 3 84.416 84.416 0 0 0-3.73 6.82c-1.46 3-2.39 29.48-2.78 43.41a112.93 112.93 0 0 1 33 5.59 145.6 145.6 0 0 1-20.66 3.71 18.47 18.47 0 0 0 2.34 1.69c.51.09 1 .23 1.51.3l1.58.12a6.13 6.13 0 0 1 1.14.14l.49-.21a5.52 5.52 0 0 1 1.48-.49 9.33 9.33 0 0 1 2.23-.25 23.44 23.44 0 0 1 2.55.09c1.71.18 3.41.46 4.66.63s2.13.28 2.13.28a13.83 13.83 0 0 1-2.16.18 45.87 45.87 0 0 1-4.71-.28c-.83-.07-1.69-.21-2.48-.21a16.5 16.5 0 0 0-2.13 0 10.28 10.28 0 0 0-1.53.19l-.46.09h.44a2.89 2.89 0 0 1 .81.23l.79.4c.56.21.88.74 1.3 1.09a8.15 8.15 0 0 0 1.07 1.14l.58.49a2 2 0 0 0 .67.25c.49.09 1 .09 1.58.23l1.07.39.53.21c.09 0 .19 0 .26.14h-.28l-.56-.12-1.09-.25c-.51 0-1 0-1.6-.07a2.74 2.74 0 0 1-.86-.23 5.85 5.85 0 0 1-.7-.51 5.05 5.05 0 0 1-1.21-1.14c-.39-.32-.7-.77-1.16-.93l-.65-.3a3.16 3.16 0 0 0-.74-.16 8.85 8.85 0 0 0-1.55-.21l-1.6-.16c-.56-.07-1.09-.26-1.65-.37a13.33 13.33 0 0 1-2.76-2.27c-.81.09-1.65.16-2.46.23.12.42.28.81.39 1.23l.51 1.76.74 1.67c.63 1 1.39 1.95 2.06 3.16a5 5 0 0 1 .67 1.79 5.66 5.66 0 0 1 .23 2 8 8 0 0 0 .28 3.46 3.89 3.89 0 0 0 1.07 1.32 13.88 13.88 0 0 0 1.65.72c1.16.53 2.18 1.25 3.27 1.86l2.74 1.72-.09-.11.53.37v.07l-3.34-1.65a32.49 32.49 0 0 0-3.34-1.65 11.2 11.2 0 0 1-1.79-.74 4.65 4.65 0 0 1-1.3-1.51 8 8 0 0 1-.44-3.9 5.5 5.5 0 0 0-.16-1.74 5.3 5.3 0 0 0-.6-1.67c-.53-1-1.37-2-1.95-3.15l-.67-1.79-.42-1.88c-.07-.42-.21-.84-.28-1.28-1.39.12-2.78.21-4.22.3 0 .37-.12.74-.19 1.14a7.75 7.75 0 0 0-.09 2.09 14.85 14.85 0 0 0 .08 2.2c.12.74.23 1.53.35 2.3s.25 1.53.33 2.39a4.1 4.1 0 0 1-.53 2.39 10.53 10.53 0 0 1-3.1 2.76 11.71 11.71 0 0 0-1.23 1 2.36 2.36 0 0 0-.83 2 2.35 2.35 0 0 1 0-1.11 3 3 0 0 1 .63-1.11 6.63 6.63 0 0 1 1.16-1.16 12 12 0 0 0 2.78-2.73c.74-1.21.26-2.71 0-4.32-.09-.79-.19-1.6-.28-2.36a15.85 15.85 0 0 1 0-2.34 7.39 7.39 0 0 1 .23-2.16c.09-.35.16-.67.26-1-1.86.09-3.73.16-5.63.19v1.49a3.3 3.3 0 0 1-.79 2 4.42 4.42 0 0 1-1.62.74 11.36 11.36 0 0 0-1.52.52 6.85 6.85 0 0 1 1.33-1 5.36 5.36 0 0 0 1.32-.81 2.58 2.58 0 0 0 .46-1.58c0-.33.07-.58.1-1a3.42 3.42 0 0 0 0-.46c-1.39 0-2.81 0-4.22-.07a2.9 2.9 0 0 0-.18.76c-.14.67-.28 1.39-.42 2.11l-.37 1.11-.07.28a2.21 2.21 0 0 1-.21.3l-.33.44a9.09 9.09 0 0 1-1.53 1.62v.42a5.58 5.58 0 0 0 .44 1.6 50 50 0 0 0 2.39 4.57 21.16 21.16 0 0 1 2 4.87 4.15 4.15 0 0 1 0 1.79c-.19.37-.28.58-.28.58s0-.21.17-.63a5.25 5.25 0 0 0-.33-1.62 40.47 40.47 0 0 0-2.3-4.59 26.16 26.16 0 0 1-2-4.54c.07.58.19 1.21.33 1.86a15.75 15.75 0 0 1 .12 1.74 4.58 4.58 0 0 1-.21 1.55c-.06.44-.41.74-.51 1l-.21.32s0-.14.09-.4a4.47 4.47 0 0 0 .16-1 11.42 11.42 0 0 0-.25-3.08 9.28 9.28 0 0 1-.09-3.27 3.34 3.34 0 0 1 .37-1 6.88 6.88 0 0 0-1.33 1.42 7.15 7.15 0 0 0-1 1.69 4.7 4.7 0 0 1-1 1.58 4.08 4.08 0 0 1-1.27 1l-1 .56a2.79 2.79 0 0 0-.82.55 2.92 2.92 0 0 1 .75-.66l1-.7a4.67 4.67 0 0 0 1.86-2.53 5.65 5.65 0 0 1 .95-1.86 9.18 9.18 0 0 1 1.48-1.67 8.44 8.44 0 0 0 1.44-1.58l.35-.44s.14-.21.11-.16l.09-.25.34-1c.17-.72.33-1.42.46-2.11a5.46 5.46 0 0 1 .19-.6c-1.91-.07-3.81-.19-5.73-.37a10.66 10.66 0 0 1-.88.93c-.27.3-.58.56-.88.84a12 12 0 0 0-1.6 1.65l-.55 1.09a3.34 3.34 0 0 0-.37 1c-.18.76-.3 1.55-.58 2.39 0 .12-.12.23-.16.35-.09.42-.14.88-.21 1.41v1.9a3.28 3.28 0 0 1-.78 2 4.37 4.37 0 0 1-1.63.74 11 11 0 0 0-1.56.53 11.73 11.73 0 0 1 1.37-1 5.56 5.56 0 0 0 1.33-.81 2.64 2.64 0 0 0 .46-1.58c0-.32.06-.58.09-1s0-.6.1-.91c-.14.12-.23.3-.4.42a3.9 3.9 0 0 1-1.6.82 7.11 7.11 0 0 1-1.35.16 21.06 21.06 0 0 0-2.55.49c-1.67.42-3.38.77-5.08 1.11v-.07h.09l.53-.19-.16.07c1.51-.49 3-1 4.55-1.41a14 14 0 0 1 2.54-.63 8.28 8.28 0 0 0 1.25-.21c.4 0 .65-.35 1-.53a3.93 3.93 0 0 0 1.17-1.83c.23-.72.32-1.53.55-2.34a4.41 4.41 0 0 1 .46-1.21l.58-1.07a11 11 0 0 1 1.79-1.83c.3-.26.6-.53.9-.81l.56-.51a74.84 74.84 0 0 1-18.23-4s10.06-5 27.44-5.57c-.17-13.2-.23-35.83 0-36.32-.42-1-1.3-3.27-2.74-6.19-1-2-2.25-4.38-3.73-6.82a8.44 8.44 0 0 1-1.18-3 4.85 4.85 0 0 0 .06-.81 89.841 89.841 0 0 0-3.43-4c-1-1.18-2.23-2.2-3.31-3.27s-2.4-1.92-3.53-2.83-2.44-1.58-3.55-2.27-2.36-1.09-3.46-1.58l-3-.91a11.56 11.56 0 0 0-2.42-.37l-2.11-.23 2.08.37a10.8 10.8 0 0 1 2.35.56l2.92 1.09 3.22 1.78c1 .77 2.18 1.55 3.3 2.44s2.18 1.9 3.2 3 2.06 2.16 3 3.39a53.19 53.19 0 0 1 3.74 5.19c-1.49.07-6.31-.56-8.45-.81a38 38 0 0 1-7.33-1.72 34.07 34.07 0 0 1-7-3.29 36.68 36.68 0 0 1-10.23-9.79 47.32 47.32 0 0 0-3.57-4.52c-.53-.49-1.09-1.09-1.47-1.39l-.62-.46v114.5h99.74V173zm-15 128.85l.56-.07a5.89 5.89 0 0 1 1.49.09 5.17 5.17 0 0 0 2 .07c.69 0 1.48-.33 2.34-.25l1.28.07c.39.09.78.21 1.16.28a17.08 17.08 0 0 1 2 .7c1.13.46 1.88.81 1.88.81s-.81-.12-2-.37c-.6-.14-1.29-.32-2-.44l-1.11-.21h-1.13c-.77-.12-1.56.21-2.37.14a4.75 4.75 0 0 1-2.08-.32 6.21 6.21 0 0 0-2.07-.5zm14 11a7.87 7.87 0 0 1-.33.88s-.07-.37-.14-.93-.17-1.28-.23-1.95a7.55 7.55 0 0 1-.05-2.06c.07-.56.16-.93.16-.93a8.85 8.85 0 0 1 .28.9 16.36 16.36 0 0 1 .39 2 6.11 6.11 0 0 1-.08 2.1zm16.61-9.67a7.45 7.45 0 0 1-.3.9s-.07-.39-.14-1-.18-1.25-.25-1.95a10.06 10.06 0 0 1 0-2 5.31 5.31 0 0 1 .18-1s.14.37.28.9.28 1.25.39 2a6 6 0 0 1-.2 2.16zm6.17 18.65l-.3-2.16c-.14-1.28-.35-3-.53-4.73a19.94 19.94 0 0 0-.37-2.46 4.34 4.34 0 0 1-.16-1.25c0-.39.09-.77.16-1.09.21-.63.37-1.14.53-1.48s.21-.58.21-.58a13.13 13.13 0 0 1-.07 2.18 6.88 6.88 0 0 0-.07 1 6.56 6.56 0 0 0 .16 1 18.67 18.67 0 0 1 .3 2.6c.21 3.5.09 6.98.09 6.98zm19.43-10.95a4.55 4.55 0 0 1-2.11-.21c-.81-.14-1.49-.62-2.25-.72l-1.11-.28h-1.14a15.48 15.48 0 0 0-2-.07c-1.23 0-2-.14-2-.14s.81-.16 2-.32a13.3 13.3 0 0 1 2.09-.19h1.21l1.23.23c.86.14 1.53.7 2.23.83.35.09.67.26 1 .32a7.56 7.56 0 0 0 1 .09 5.45 5.45 0 0 1 1.46.28l.51.19a6.53 6.53 0 0 0-2.16 0zm22-98.47a19.06 19.06 0 0 0-1.46 1.39 41.22 41.22 0 0 0-3.57 4.52 36.6 36.6 0 0 1-10.23 9.76 32.7 32.7 0 0 1-7 3.29 36.53 36.53 0 0 1-7.35 1.72c-2.11.26-6.93.9-8.44.84a53.57 53.57 0 0 1 3.76-5.19c.9-1.23 2-2.3 3-3.41s2.16-2 3.2-3 2.23-1.67 3.29-2.46l3.22-1.79c1.07-.39 2-.77 2.92-1.07a10.93 10.93 0 0 1 2.34-.56l2.09-.37-2.11.21a11.76 11.76 0 0 0-2.41.39l-3.06.88-3.43 1.58c-1.11.72-2.34 1.44-3.55 2.27s-2.39 1.79-3.52 2.85-2.3 2.09-3.32 3.27a64.67 64.67 0 0 0-3.43 4 5.37 5.37 0 0 1 0-.63 22.56 22.56 0 0 1 1.2-7.07 26.42 26.42 0 0 1 4.17-7.7 27.74 27.74 0 0 1 7-6.36 26.54 26.54 0 0 1 9.09-3.62 23.52 23.52 0 0 1 9.53 0 15.23 15.23 0 0 1 6.82 3.32 6.77 6.77 0 0 1 1.46 1.74c.25.44.42.7.42.7z" transform="translate(-199.77 -173)"/><path class="cls-1" d="M201.63 210.45a15.38 15.38 0 0 1 6.85-3.29 22.63 22.63 0 0 1 9.5 0 26.86 26.86 0 0 1 9.12 3.62 26.43 26.43 0 0 1 7 6.35 26 26 0 0 1 4.17 7.68 22.6 22.6 0 0 1 1.23 7.1 5 5 0 0 1 0 .6 88.26 88.26 0 0 1 8.65 13.4c.3-1 .63-2.09 1-3.29.76-2.9 1.57-6.31 2.2-10 .18-1.07.95-3.64 1.44-4 .28-.23.48-.49.74-.74q.18-3.45.07-7c0-2.06-.3-4.13-.47-6.14s-.7-4-1-5.89c-.49-1.88-1.07-3.66-1.58-5.33-.72-1.62-1.41-3.15-2-4.57l-2.27-3.55a14.48 14.48 0 0 0-2.06-2.46l-1.88-2.06 1.72 2.2a13.86 13.86 0 0 1 1.86 2.58c.6 1.09 1.25 2.32 2 3.64.51 1.41 1.07 2.94 1.67 4.57.35 1.69.81 3.46 1.14 5.29s.53 3.78.55 5.77a54.13 54.13 0 0 1 0 6 74.28 74.28 0 0 1-.79 8.42c-1.55-1.23-5.82-6.08-7.69-8.16a48 48 0 0 1-5.83-8.07 44.44 44.44 0 0 1-4.08-9.39 48.48 48.48 0 0 1-1.68-18.6 57.91 57.91 0 0 0 .38-7.61c-.09-1-.09-2-.23-2.67s-.23-1-.23-1l1-.33a9.25 9.25 0 0 1 3-.49h-35.36v39.89l.39-.67a7.85 7.85 0 0 1 1.47-1.8z" transform="translate(-199.77 -173)"/><path class="cls-2" d="M231 173.81s.09.35.23 1 .14 1.69.23 2.67a57.91 57.91 0 0 1-.37 7.61 48.48 48.48 0 0 0 1.68 18.6 44.44 44.44 0 0 0 4.08 9.39 48 48 0 0 0 5.83 8.07c1.88 2.09 6.15 6.93 7.69 8.16a74.28 74.28 0 0 0 .79-8.42 54.13 54.13 0 0 0 0-6c0-2-.37-3.9-.55-5.77s-.79-3.59-1.14-5.29c-.6-1.62-1.16-3.16-1.67-4.57-.72-1.32-1.37-2.55-2-3.64a13.86 13.86 0 0 0-1.86-2.58l-1.72-2.2 1.88 2.06a14.48 14.48 0 0 1 2.06 2.46l2.27 3.55c.63 1.41 1.33 2.94 2 4.57.51 1.67 1.09 3.46 1.58 5.33.32 1.9.83 3.87 1 5.89s.47 4.08.47 6.14q.11 3.51-.07 7c.19-.21.39-.37.58-.6a30.46 30.46 0 0 0 4.94-8.09 34.09 34.09 0 0 0 2.53-11.27 36 36 0 0 0-7.4-24 30.66 30.66 0 0 0-9.46-8.26A20.53 20.53 0 0 0 235 173a9.25 9.25 0 0 0-3 .49zm4.38 135.38s-.01 0 0 0zm.01-.02zm10.61-8.68z" transform="translate(-199.77 -173)"/><path class="cls-2" d="M252.75 228.59c-.49.35-1.25 2.92-1.44 4-.63 3.71-1.44 7.12-2.2 10-.33 1.21-.66 2.27-1 3.29a88.26 88.26 0 0 0-8.65-13.4 4.85 4.85 0 0 1-.06.81 8.44 8.44 0 0 0 1.18 3c1.48 2.43 2.71 4.78 3.73 6.82 1.44 2.92 2.32 5.15 2.74 6.19-.23.49-.17 23.12 0 36.32-17.37.53-27.44 5.57-27.44 5.57a74.84 74.84 0 0 0 18.23 4l-.56.51c-.3.28-.6.56-.9.81a11 11 0 0 0-1.79 1.83l-.58 1.07a4.41 4.41 0 0 0-.46 1.21c-.23.81-.32 1.62-.55 2.34a3.93 3.93 0 0 1-1.17 1.83c-.34.19-.6.51-1 .53a8.28 8.28 0 0 1-1.25.21 14 14 0 0 0-2.54.63c-1.53.44-3 .93-4.55 1.41l.16-.07-.53.19h-.09v.07c1.69-.35 3.41-.7 5.08-1.11a21.06 21.06 0 0 1 2.55-.49A7.11 7.11 0 0 0 231 306a3.9 3.9 0 0 0 1.27-.67c.17-.12.26-.3.4-.42 0 .3-.07.6-.1.91s0 .63-.09 1a2.64 2.64 0 0 1-.46 1.58 5.56 5.56 0 0 1-1.33.81 11.73 11.73 0 0 0-1.37 1 11 11 0 0 1 1.56-.53 4.37 4.37 0 0 0 1.63-.74 3.28 3.28 0 0 0 .78-2v-1.9c.07-.53.12-1 .21-1.41 0-.12.12-.23.16-.35.27-.83.39-1.62.58-2.39a3.34 3.34 0 0 1 .38-1l.55-1.09a12 12 0 0 1 1.6-1.65c.3-.28.61-.53.88-.84a10.66 10.66 0 0 0 .88-.93c1.93.19 3.82.3 5.73.37a5.46 5.46 0 0 0-.19.6c-.14.7-.29 1.39-.46 2.11l-.34 1-.09.25s-.1.12-.11.16l-.35.44a8.44 8.44 0 0 1-1.44 1.58 9.18 9.18 0 0 0-1.48 1.67 5.65 5.65 0 0 0-.95 1.86 4.67 4.67 0 0 1-1.86 2.53l-1 .7a2.92 2.92 0 0 0-.75.66 2.79 2.79 0 0 1 .82-.55l1-.56a4.08 4.08 0 0 0 1.27-1 4.7 4.7 0 0 0 1-1.58 7.15 7.15 0 0 1 1-1.69 6.88 6.88 0 0 1 1.33-1.42 3.34 3.34 0 0 0-.37 1 9.28 9.28 0 0 0 .09 3.27 11.42 11.42 0 0 1 .25 3.08 4.47 4.47 0 0 1-.16 1c-.07.26-.09.4-.09.4l.21-.32c.1-.23.45-.53.51-1a4.58 4.58 0 0 0 .21-1.55 15.75 15.75 0 0 0-.12-1.74c-.14-.65-.25-1.28-.33-1.86a26.16 26.16 0 0 0 2 4.54 40.47 40.47 0 0 1 2.3 4.59 5.25 5.25 0 0 1 .33 1.62c-.12.42-.17.63-.17.63s.09-.21.28-.58a4.15 4.15 0 0 0 0-1.79 21.16 21.16 0 0 0-2-4.87 50 50 0 0 1-2.39-4.57 5.58 5.58 0 0 1-.44-1.6v-.42a9.09 9.09 0 0 0 1.53-1.62l.33-.44a2.21 2.21 0 0 0 .21-.3l.07-.28.37-1.11c.14-.72.28-1.44.42-2.11a2.9 2.9 0 0 1 .18-.76c1.42 0 2.83.07 4.22.07a3.42 3.42 0 0 1 0 .46c0 .37 0 .63-.1 1a2.58 2.58 0 0 1-.46 1.58 5.36 5.36 0 0 1-1.32.81 6.85 6.85 0 0 0-1.33 1 11.36 11.36 0 0 1 1.52-.52 4.42 4.42 0 0 0 1.62-.74 3.3 3.3 0 0 0 .79-2v-1.49c1.9 0 3.78-.09 5.63-.19-.09.35-.16.67-.26 1a7.39 7.39 0 0 0-.23 2.16 15.85 15.85 0 0 0 0 2.34c.09.76.18 1.58.28 2.36.26 1.6.74 3.11 0 4.32a12 12 0 0 1-2.78 2.73 6.63 6.63 0 0 0-1.16 1.16 3 3 0 0 0-.63 1.11 2.35 2.35 0 0 0 0 1.11 2.36 2.36 0 0 1 .83-2 11.71 11.71 0 0 1 1.23-1 10.53 10.53 0 0 0 3.1-2.76 4.1 4.1 0 0 0 .53-2.39c-.07-.86-.25-1.6-.33-2.39s-.23-1.55-.35-2.3a14.85 14.85 0 0 1-.07-2.25 7.75 7.75 0 0 1 .09-2.09c.07-.39.14-.77.19-1.14 1.44-.09 2.83-.18 4.22-.3.07.44.21.86.28 1.28l.42 1.88.67 1.79c.58 1.11 1.42 2.13 1.95 3.15a5.3 5.3 0 0 1 .6 1.67 5.5 5.5 0 0 1 .16 1.74 8 8 0 0 0 .44 3.9 4.65 4.65 0 0 0 1.3 1.51 11.2 11.2 0 0 0 1.79.74 32.49 32.49 0 0 1 3.34 1.65l3.34 1.65v-.07l-.53-.37.09.11-2.74-1.72c-1.09-.6-2.11-1.32-3.27-1.86a13.88 13.88 0 0 1-1.65-.72 3.89 3.89 0 0 1-1.07-1.32 8 8 0 0 1-.28-3.46 5.66 5.66 0 0 0-.23-2 5 5 0 0 0-.67-1.79c-.67-1.21-1.44-2.11-2.06-3.16l-.74-1.67-.25-1.9c-.12-.42-.28-.81-.39-1.23.81-.07 1.65-.14 2.46-.23a13.33 13.33 0 0 0 2.76 2.27c.56.12 1.09.3 1.65.37l1.6.16a8.85 8.85 0 0 1 1.55.21 3.16 3.16 0 0 1 .74.16l.65.3c.47.16.77.6 1.16.93a5.05 5.05 0 0 0 1.21 1.14 5.85 5.85 0 0 0 .7.51 2.74 2.74 0 0 0 .86.23c.56.07 1.09 0 1.6.07l1.09.25.56.12h.28c-.07-.09-.16-.09-.26-.14l-.53-.21-1.07-.39c-.53-.14-1.09-.14-1.58-.23a2 2 0 0 1-.67-.25l-.58-.49a8.15 8.15 0 0 1-1.07-1.14c-.42-.35-.74-.88-1.3-1.09l-.79-.4a2.89 2.89 0 0 0-.81-.23h-.44l.46-.09a10.28 10.28 0 0 1 1.53-.19 16.5 16.5 0 0 1 2.13 0c.79 0 1.65.14 2.48.21a45.87 45.87 0 0 0 4.71.28 13.83 13.83 0 0 0 2.16-.18s-.86-.09-2.13-.28-2.95-.44-4.66-.62a23.44 23.44 0 0 0-2.55-.09 9.33 9.33 0 0 0-2.23.25 5.52 5.52 0 0 0-1.48.49l-.49.21a6.13 6.13 0 0 0-1.14-.14l-1.58-.12c-.53-.07-1-.21-1.51-.3a18.47 18.47 0 0 1-2.34-1.69 145.6 145.6 0 0 0 20.66-3.71 112.93 112.93 0 0 0-33-5.59c.4-13.94 1.33-40.4 2.78-43.41 1-2 2.25-4.38 3.73-6.82a8.54 8.54 0 0 0 1.18-3 4.56 4.56 0 0 1-.07-.79 84.16 84.16 0 0 0-7.33 11 108.63 108.63 0 0 0 1.74-14.7c-.2.29-.43.55-.68.78zm44.19-19.06a15.23 15.23 0 0 0-6.82-3.32 23.52 23.52 0 0 0-9.53 0 26.54 26.54 0 0 0-9.09 3.62 27.74 27.74 0 0 0-7 6.36 26.42 26.42 0 0 0-4.17 7.7 22.56 22.56 0 0 0-1.2 7.07 5.37 5.37 0 0 0 0 .63c1.09-1.37 2.23-2.69 3.43-4 1-1.18 2.23-2.23 3.32-3.27s2.39-1.92 3.52-2.85 2.44-1.55 3.55-2.27l3.43-1.58 3.06-.88a11.76 11.76 0 0 1 2.41-.39l2.11-.21-2.09.37a10.93 10.93 0 0 0-2.34.56c-.88.3-1.86.67-2.92 1.07l-3.22 1.79c-1.07.79-2.18 1.55-3.29 2.46s-2.18 1.88-3.2 3-2.07 2.18-3 3.41a53.57 53.57 0 0 0-3.76 5.19c1.51.07 6.33-.58 8.44-.84a36.53 36.53 0 0 0 7.35-1.72 32.7 32.7 0 0 0 7-3.29 36.6 36.6 0 0 0 10.23-9.76 41.22 41.22 0 0 1 3.57-4.52 19.06 19.06 0 0 1 1.46-1.39l.63-.46s-.16-.25-.42-.7a6.77 6.77 0 0 0-1.46-1.78z" transform="translate(-199.77 -173)"/><path class="cls-2" d="M201.86 214.75a47.32 47.32 0 0 1 3.57 4.52 36.68 36.68 0 0 0 10.23 9.79 34.07 34.07 0 0 0 7 3.29 38 38 0 0 0 7.33 1.72c2.13.25 7 .88 8.45.81a53.19 53.19 0 0 0-3.74-5.19c-.91-1.23-2-2.27-3-3.39s-2.15-2-3.2-3-2.25-1.67-3.3-2.44l-3.2-1.8-2.91-1.06a10.8 10.8 0 0 0-2.35-.56l-2.08-.37 2.11.23a11.56 11.56 0 0 1 2.42.37l3 .91c1.09.49 2.23 1 3.46 1.58s2.34 1.44 3.55 2.27 2.39 1.79 3.53 2.83 2.29 2.09 3.31 3.27c1.21 1.3 2.35 2.64 3.43 4a5 5 0 0 0 0-.6 22.6 22.6 0 0 0-1.23-7.1 26 26 0 0 0-4.17-7.68 26.43 26.43 0 0 0-7-6.35 26.86 26.86 0 0 0-9.12-3.62 22.63 22.63 0 0 0-9.5 0 15.38 15.38 0 0 0-6.85 3.29 7.85 7.85 0 0 0-1.46 1.76l-.39.67.62.46c.4.29.96.9 1.49 1.39zm48.42 84.36c-.14-.53-.28-.9-.28-.9a5.31 5.31 0 0 0-.18 1 10.06 10.06 0 0 0 0 2c.07.7.23 1.37.25 1.95s.14 1 .14 1a7.45 7.45 0 0 0 .3-.9 6 6 0 0 0 .11-2.09c-.05-.81-.2-1.52-.34-2.06zm-16.62 9.67a8.85 8.85 0 0 0-.28-.9s-.09.37-.16.93a7.55 7.55 0 0 0 .05 2.06c.06.67.21 1.37.23 1.95s.14.93.14.93a7.87 7.87 0 0 0 .33-.88 6.11 6.11 0 0 0 .09-2.11 16.36 16.36 0 0 0-.4-1.98zm22.63 3.53a6.56 6.56 0 0 1-.16-1 6.88 6.88 0 0 1 .07-1 13.13 13.13 0 0 0 .07-2.18s-.07.21-.21.58-.32.86-.53 1.48c-.07.32-.12.7-.16 1.09a4.34 4.34 0 0 0 .16 1.25 19.94 19.94 0 0 1 .37 2.46c.19 1.72.39 3.46.53 4.73l.3 2.16s.12-3.48-.14-6.93a18.67 18.67 0 0 0-.3-2.64zm19.9-1.88a7.56 7.56 0 0 1-1-.09c-.3-.07-.62-.23-1-.32-.7-.14-1.37-.7-2.23-.83l-1.23-.23h-1.21a13.3 13.3 0 0 0-2.09.19c-1.21.16-2 .32-2 .32s.81.09 2 .14a15.48 15.48 0 0 1 2 .07h1.14l1.11.28c.77.09 1.44.58 2.25.72a4.55 4.55 0 0 0 2.11.21 6.53 6.53 0 0 1 2 0l-.51-.19a5.45 5.45 0 0 0-1.34-.27zM224 302.66c.81.07 1.6-.25 2.37-.14h1.13l1.11.21c.72.12 1.42.3 2 .44 1.19.25 2 .37 2 .37s-.74-.35-1.88-.81a17.08 17.08 0 0 0-2-.7c-.37-.07-.77-.19-1.16-.28l-1.28-.07c-.86-.07-1.65.3-2.34.25a5.17 5.17 0 0 1-2-.07 5.89 5.89 0 0 0-1.49-.09l-.56.07a6.21 6.21 0 0 1 2 .49 4.75 4.75 0 0 0 2.1.33z" transform="translate(-199.77 -173)"/></svg>