<svg id="Слой_1" data-name="Слой 1" xmlns="http://www.w3.org/2000/svg" viewBox="0 0 583.61 102.37"><defs><style>.cls-1{fill:#fff}</style></defs><title>logo</title><path class="cls-1" d="M88.62 252.38l-6.53-4q-6.15-3.76-8.76-7.39a14 14 0 0 1-2.6-8.37 14.77 14.77 0 0 1 4.93-11.53q4.92-4.43 12.8-4.43a24.23 24.23 0 0 1 13.81 4.23v9.77q-6.49-6.25-14-6.25a11.61 11.61 0 0 0-6.93 1.95 6 6 0 0 0-2.71 5 7.7 7.7 0 0 0 2 5.06 25 25 0 0 0 6.43 5l6.57 3.89q11 6.57 11 16.72a15.33 15.33 0 0 1-4.84 11.74q-4.85 4.52-12.58 4.52A26.38 26.38 0 0 1 71 272.77v-10.92q7 8.83 16.13 8.83a10.1 10.1 0 0 0 6.73-2.25 7 7 0 0 0 2.7-5.64q-.02-5.49-7.94-10.41z" transform="translate(41.8 -198.32)"/><path class="cls-1" d="M103.69 244.26l14.7-14.46v8.2h12.52v7h-12.52v19.37q0 6.79 5.64 6.78a17.49 17.49 0 0 0 8.91-2.79v7.31a19.8 19.8 0 0 1-9.85 2.54 13 13 0 0 1-8.95-3.14 9 9 0 0 1-1.85-2.13 11.37 11.37 0 0 1-1.22-3.1 34.94 34.94 0 0 1-.5-7.29V245h-6.87z" transform="translate(41.8 -198.32)"/><path class="cls-1" d="M153.71 237.9a20.66 20.66 0 0 1 15 5.83 19.64 19.64 0 0 1 6 14.65 18.6 18.6 0 0 1-6.07 14.22 21.5 21.5 0 0 1-15.27 5.66 20.62 20.62 0 0 1-14.88-5.74 20.29 20.29 0 0 1 .06-28.82 21.07 21.07 0 0 1 15.16-5.8zm-.44 7.05a12.37 12.37 0 0 0-9.25 3.7 12.91 12.91 0 0 0-3.61 9.42 12.37 12.37 0 0 0 3.7 9.27 13.08 13.08 0 0 0 9.51 3.59 12.84 12.84 0 0 0 9.43-3.63 13.46 13.46 0 0 0-.14-18.65 13.31 13.31 0 0 0-9.64-3.65zm26.5-27.49h7.84v60.1h-7.84zm15.53 0h7.83v60.1h-7.83zm49.08 41h-27.83a12.9 12.9 0 0 0 3.8 9 12.58 12.58 0 0 0 9.06 3.36 23.53 23.53 0 0 0 14.28-4.82v7.66a26.11 26.11 0 0 1-7.15 3.44 30 30 0 0 1-8.33 1q-6.53 0-10.58-2.71a19.73 19.73 0 0 1-6.47-7.29 22.28 22.28 0 0 1-2.43-10.61q0-9 5.11-14.69a17.1 17.1 0 0 1 13.3-5.66 15.65 15.65 0 0 1 12.56 5.51q4.68 5.51 4.69 14.76zm-27.66-4.69h19.92a10.93 10.93 0 0 0-2.8-7.23 9 9 0 0 0-6.71-2.54 9.64 9.64 0 0 0-6.9 2.54 12.5 12.5 0 0 0-3.51 7.23zM257.45 238v9.08l.43-.69q5.68-9.16 11.36-9.16 4.44 0 9.26 4.47l-4.13 6.88c-2.72-2.58-5.25-3.87-7.57-3.87a8.08 8.08 0 0 0-6.56 3.61 13.64 13.64 0 0 0-2.79 8.56v20.69h-7.87V238zm68.45-20.54h4.63v32.78q0 13.47-7 20.78t-18.15 7.31q-11.1 0-18.11-7.23t-7-19.79v-33.85h4.69v33.69q0 10.75 5.7 16.82a19.28 19.28 0 0 0 14.72 6.03q9.11 0 14.82-6.13t5.71-17.4zm19.66 0v60.1h-4.22v-60.1zm28 20.52l-21.65 18.78 25 20.8h-5.78l-25-20.78L368 238zm33.04 3.92l-2.45 4q-5-4.51-8-4.51-5.93 0-12.69 11.36v24.86h-4.21V238h4.21v10.41h.17q7.09-11.19 13.85-11.18 3.91-.02 9.12 4.67zm35.75 28.78v3.53q-5.46 4.13-8 4.13a2.12 2.12 0 0 1-2-1 10.9 10.9 0 0 1-.82-3.93q-6.24 4.9-12.39 4.9a10.62 10.62 0 0 1-7.57-2.93 9.4 9.4 0 0 1-3.1-7.1q0-6.45 6-10.17t17.08-4.28v-5q0-8.09-8.77-8.09-5.58 0-12.1 5v-4.34q6.71-4.22 12.78-4.22a14.27 14.27 0 0 1 8.87 2.65 9 9 0 0 1 3.47 7.68v24.65q0 2 1 2 1.12.04 5.55-3.48zm-10.84-.95v-12.35q-8.14-.3-13.49 2.86t-5.36 8.07a5.88 5.88 0 0 0 2.24 4.69 8.38 8.38 0 0 0 5.6 1.89q5.41-.04 11.01-5.16zm21.76-52.27v7.23H449v-7.23zm0 20.52v39.58H449V238zm15.84.02v6.88h.17q5-7.65 13-7.66a14 14 0 0 1 10.71 4.3q4 4.3 4 11.92v24.13h-4.22V255q0-13.68-10.75-13.68-7.86 0-12.94 8.47v27.75h-4.21V238zm72.69 18.31h-31.2a18.76 18.76 0 0 0-.11 2.07 15.08 15.08 0 0 0 4.73 11.23 15.51 15.51 0 0 0 11.18 4.6q7.53 0 14.71-5.89v4.78a24.3 24.3 0 0 1-15.23 5.25 18.63 18.63 0 0 1-14.15-5.94q-5.59-5.94-5.59-15.1 0-8.69 5.17-14.39a17.63 17.63 0 0 1 25.42-.56q5.08 5.13 5.07 13.95zm-30.63-3.4h25.64q-2.23-11.57-12.52-11.57a12.51 12.51 0 0 0-8.41 3 14.86 14.86 0 0 0-4.71 8.57zM31.74 273.87A22.43 22.43 0 0 1 19.15 294a22.23 22.23 0 0 0 12.65-20v-.51a22.37 22.37 0 0 0-.33-3.13 22.79 22.79 0 0 1 .27 3.51zm-43.97-44.7a22 22 0 0 1-.4-4.18 22.26 22.26 0 0 1 5.75-15 22.09 22.09 0 0 0-5.82 14.88v.39c0 .71.05 1.41.13 2.1v.44c0 .15 0 .31.06.47s.09.56.14.84zm6.05 11.53a22.28 22.28 0 0 1-6.05-11.53h-.08a22.2 22.2 0 0 0 6.13 11.53zm-6.13-11.54zm-4.55-.02v-.09.09z" transform="translate(41.8 -198.32)"/><path class="cls-1" d="M-6.18 240.7a22.2 22.2 0 0 1-6.13-11.5 22.35 22.35 0 0 0 19.12 18 22.25 22.25 0 0 1-12.99-6.5z" transform="translate(41.8 -198.32)"/><path class="cls-1" d="M6.81 247.15v-.11a22.18 22.18 0 0 1-13-6.34 22.25 22.25 0 0 0 13 6.45zm2.47-40.03a17.64 17.64 0 0 0-17.63 17.64 17.46 17.46 0 0 0 .91 5.57 17.68 17.68 0 0 0 11.7 11.34c.08-.3.19-.59.27-.9a30.87 30.87 0 0 1 21.75-20.7 17.65 17.65 0 0 0-17-12.95z" transform="translate(41.8 -198.32)"/><path class="cls-1" d="M36.07 222.7a26.67 26.67 0 0 0-53.18.46 26.71 26.71 0 0 0-24.7 26.6A26.72 26.72 0 0 0-17 276.38a26.68 26.68 0 0 0 53.18-.5A26.68 26.68 0 0 0 60.67 249a26.78 26.78 0 0 0-24.6-26.3zM-6.89 210a22.19 22.19 0 0 1 38.48 12.69 26.48 26.48 0 0 0-10.92 3.46l-.52.31-.34.21a26.69 26.69 0 0 0-12.52 20.39v.14h-.41l-.06-.2v.11a22.35 22.35 0 0 1-19.12-18c-.05-.27-.1-.56-.14-.84s0-.31-.06-.47 0-.29 0-.44c-.07-.69-.12-1.39-.12-2.1v-.39A22.09 22.09 0 0 1-6.89 210zm-10.17 17.6c0 .17 0 .33.06.5s.07.58.11.87 0 .06 0 .09a26.88 26.88 0 0 0 15.78 20.51 26.27 26.27 0 0 0 7.64 2.06l.47.06v.26a22.06 22.06 0 0 1-1 4.63c0 .08 0 .17-.08.25a22.31 22.31 0 0 1-13.85 13.94l-.26.08a21.78 21.78 0 0 1-4.32 1h-.36a21.34 21.34 0 0 1-2.26.12c-.63 0-1.25 0-1.87-.08a22.24 22.24 0 0 1-20.34-22.12v-.9a22.23 22.23 0 0 1 20.29-21.23zM19.15 294a22.34 22.34 0 0 1-32-17.71h.33a26.87 26.87 0 0 0 4.09-.73l.23-.07a26.79 26.79 0 0 0 18.85-18.95c0-.08 0-.15.06-.23a27.29 27.29 0 0 0 .72-4.29 22.25 22.25 0 0 1 20.34 21.44v.51A22.23 22.23 0 0 1 19.15 294zm30.7-29.21a22.06 22.06 0 0 1-13.69 6.56 26.73 26.73 0 0 0-24.3-24 1.27 1.27 0 0 1 0-.19 22.22 22.22 0 0 1 9.16-16l.18-.13.45-.3a22.08 22.08 0 0 1 10.26-3.58c.66-.06 1.31-.09 2-.09h2.11a22.21 22.21 0 0 1 13.82 37.65z" transform="translate(41.8 -198.32)"/><path class="cls-1" d="M27 273a17 17 0 0 0-1.16-4.67A17.68 17.68 0 0 0 14.51 258a30.85 30.85 0 0 1-21.86 21.52l-.17.05c.12.42.26.83.4 1.23a17.63 17.63 0 0 0 34.24-5.92A15.48 15.48 0 0 0 27 273zM7.29 247.06h-.47l.47.05zm-.42.1h.3z" transform="translate(41.8 -198.32)"/><path class="cls-1" d="M7.18 247.19h.09v-.11l-.45-.08.05.12zm-.3-.01zm265.33 30.23h-.07a6.54 6.54 0 0 1 .07-13.08h.07a6.54 6.54 0 0 1-.07 13.08zm.06-11.68a5.14 5.14 0 0 0-.11 10.28h.05a5.14 5.14 0 0 0 .06-10.28z" transform="translate(41.8 -198.32)"/><path class="cls-1" d="M270.09 267.87a9.29 9.29 0 0 1 1.62-.13 2.76 2.76 0 0 1 1.89.51 1.49 1.49 0 0 1 .52 1.18 1.64 1.64 0 0 1-1.24 1.58 1.55 1.55 0 0 1 1 1.25 8.7 8.7 0 0 0 .51 1.7h-.88a6.75 6.75 0 0 1-.43-1.48c-.2-.86-.54-1.18-1.32-1.2h-.79V274h-.84zm.84 2.83h.86c.9 0 1.47-.47 1.47-1.18s-.61-1.15-1.5-1.16a3.65 3.65 0 0 0-.83.07z" transform="translate(41.8 -198.32)"/></svg>