<svg width="30" height="31" xmlns="http://www.w3.org/2000/svg"><path fill-rule="evenodd" clip-rule="evenodd" d="M6.018 0H19.45c3.94 0 8.526 2.905 7.16 9.299-1.207 5.648-5.713 8.97-11.101 8.97h-5.63l-1.932 9.054H.064L6.018 0zm4.986 13.037h2.568L14.84 7.43h3.86c.13 0 .245.025.36.05l.151.03c-.33-1.158-1.332-1.947-2.658-1.947h-3.86l-1.689 7.474zm8.205-3.738c-.469 2.029-2.397 3.647-4.36 3.723l.924-4.098h3.5l-.017.124c-.012.082-.024.165-.047.251zm9.178-3.35c.613 1.373.822 3.1.37 5.217-1.206 5.648-5.712 8.97-11.099 8.97h-5.633l-1.93 9.052H3.474l-.328 1.494h7.884l1.93-9.053h5.63c5.388 0 9.893-3.322 11.102-8.97.635-2.976-.025-5.187-1.304-6.71z" fill="#fff"/></svg>