<svg width="22" height="39" xmlns="http://www.w3.org/2000/svg"><path fill-rule="evenodd" clip-rule="evenodd" d="M.684 38.968h20.601a.573.573 0 0 0 .57-.574v-35.7C21.855 1.21 20.656 0 19.182 0H2.789C1.314 0 .115 1.209.115 2.694v35.7a.57.57 0 0 0 .569.574zm20.033-1.147H1.254V26.796h19.463v11.025zM1.254 25.65h19.463V2.694c0-.853-.688-1.547-1.535-1.547H2.789c-.846 0-1.535.694-1.535 1.547V25.65zm7.853-1.329h.297a.572.572 0 1 0 0-1.147h-.297a.57.57 0 0 0-.568.574.57.57 0 0 0 .568.573zm-2.142 0h-.297a.57.57 0 0 1-.568-.573.57.57 0 0 1 .568-.574h.297c.314 0 .57.257.57.574a.572.572 0 0 1-.57.573zm-2.735 0h.297a.572.572 0 1 0 0-1.147H4.23a.57.57 0 0 0-.568.574.57.57 0 0 0 .568.573zm13.508-.802h-4.402a.57.57 0 0 1-.568-.574v-2.859a.57.57 0 0 1 .568-.573h4.402c.315 0 .57.256.57.573v2.86a.572.572 0 0 1-.57.573zm-.57-1.147h-3.264V20.66h3.264v1.712zm-7.764.118h-.297a.57.57 0 0 1-.568-.573.57.57 0 0 1 .568-.574h.297c.315 0 .57.257.57.574a.572.572 0 0 1-.57.573zm-2.736 0h.297a.572.572 0 1 0 0-1.147h-.297a.57.57 0 0 0-.568.574.57.57 0 0 0 .568.573zm-2.14 0H4.23a.57.57 0 0 1-.568-.573.57.57 0 0 1 .568-.574h.297c.315 0 .57.257.57.574a.572.572 0 0 1-.57.573zm4.58-1.83h.296c.315 0 .57-.257.57-.574a.572.572 0 0 0-.57-.573h-.297a.57.57 0 0 0-.568.573.57.57 0 0 0 .568.574zm-2.143 0h-.297a.57.57 0 0 1-.568-.574.57.57 0 0 1 .568-.573h.297a.572.572 0 1 1 0 1.147zm-2.735 0h.297c.315 0 .57-.257.57-.574a.572.572 0 0 0-.57-.573H4.23a.57.57 0 0 0-.568.573.57.57 0 0 0 .568.574zm13.508-2.609H4.23a.57.57 0 0 1-.568-.573V4.436a.57.57 0 0 1 .568-.574h13.508a.57.57 0 0 1 .569.574v13.042a.57.57 0 0 1-.569.573zm-.568-1.147H4.8V5.009h12.37v11.895z" fill="#fff"/></svg>