<svg width="110" height="25" xmlns="http://www.w3.org/2000/svg"><path fill-rule="evenodd" clip-rule="evenodd" d="M12.5 25a12.45 12.45 0 0 0 8-2.895 12.45 12.45 0 0 0 8 2.895C35.404 25 41 19.404 41 12.5S35.404 0 28.5 0a12.45 12.45 0 0 0-8 2.895A12.45 12.45 0 0 0 12.5 0C5.596 0 0 5.596 0 12.5S5.596 25 12.5 25zm76.875-5.721c4.088 0 6.742-1.912 6.772-4.875.015-1.621-1.022-2.858-3.268-3.873-1.36-.662-2.192-1.102-2.184-1.77 0-.593.705-1.227 2.229-1.227a7.166 7.166 0 0 1 2.908.546l.352.165.527-3.092c-.772-.289-1.979-.599-3.484-.599-3.842 0-6.55 1.935-6.57 4.708-.026 2.049 1.929 3.193 3.404 3.876 1.515.7 2.023 1.145 2.015 1.77-.011.955-1.207 1.393-2.324 1.393-1.557 0-2.385-.215-3.66-.747l-.502-.228-.547 3.193c.91.399 2.59.742 4.332.76zm17.313-14.465h-3.004c-.934 0-1.627.254-2.038 1.184l-5.773 13.074h4.082s.666-1.758.818-2.143l4.979.006c.115.498.475 2.137.475 2.137h3.607l-3.146-14.258zm-4.795 9.196l1.548-3.987.112-.297.082-.214.324-.851.262 1.23.902 4.119h-3.23zM62 4.962l.05-.286h6.028c.813.031 1.469.29 1.694 1.159l1.31 6.304c-1.287-3.297-4.39-6.04-9.082-7.177zm11.457 14.089L79.58 4.812l-4.12.003-3.806 9.729-.406-1.469c-.752-1.77-2.883-4.312-5.387-5.914l3.483 11.897 4.113-.007zM81.154 4.8h3.889l-2.432 14.266h-3.888L81.154 4.8z" fill="#fff"/></svg>