<svg width="80" height="22" xmlns="http://www.w3.org/2000/svg"><path fill-rule="evenodd" clip-rule="evenodd" d="M75.793 19.33l-2.113-2.416-2.444 2.252-4.125-4.59 1.147-1.01-2.887-3.233 1.152-1.011-2.93-3.23 4.575-4.12 1.453 1.591 2.451-2.189 1.451 1.503.965-.866a8.949 8.949 0 0 0-.65-.344A10.466 10.466 0 0 0 69.232.602c-5.789 0-10.51 4.72-10.51 10.508 0 5.788 4.721 10.508 10.51 10.508 1.88 0 3.65-.498 5.178-1.37.504-.285.963-.594 1.383-.918zM17.605 9.587c.362-.192.973-.443 1.622-.443 1.486 0 2.289 1.03 2.289 2.946 0 2.243-1.078 3.336-2.817 3.336-.637 0-1.619-.205-2.34-.588v-8.37l1.246-.298v3.417zm-4.76-.443c-1.796 0-2.72 1.317-2.72 3.14 0 1.897.828 3.143 2.842 3.143.861 0 1.582-.24 2.12-.555v-.907c-.657.392-1.259.622-1.905.622-1.233 0-1.823-.633-1.823-2.075h3.909v-.44c.002-1.958-.922-2.928-2.422-2.928zm-1.46 2.563c.13-1.197.695-1.761 1.428-1.761.648 0 1.257.5 1.318 1.761h-2.746zm7.312 2.879c-.3 0-.716-.023-1.101-.19v-3.922c.48-.264.828-.396 1.304-.396.805 0 1.358.493 1.358 2.013 0 1.944-.672 2.495-1.56 2.495zm25.35.696v-4.34c0-1.235-.541-1.798-1.979-1.8-1.378 0-2.517.564-3.056.887v5.25h1.244v-4.746c.371-.216.984-.432 1.463-.432.615 0 1.082.168 1.082 1.115v4.066h1.246zM29.597 6.78h1.487v8.5h-1.295V9.118h-.105l-2.448 6.165h-.765l-2.448-6.02h-.107v6.02h-1.078V6.78h1.45l2.687 6.7h.06l2.563-6.7zm2.805 5.504c0-2.098 1.153-3.141 2.735-3.141 1.582 0 2.734 1.042 2.734 3.14 0 2.05-1.092 3.143-2.734 3.143-1.64 0-2.735-1.093-2.735-3.142zm2.735 2.3c-.852 0-1.475-.655-1.475-2.3 0-1.62.686-2.303 1.475-2.303.816 0 1.476.684 1.476 2.303 0 1.645-.625 2.3-1.476 2.3zm43.56-4.193l1.123 1.25-1.248 1.124-1.125-1.25 1.25-1.124zM56.252 9.346h-1.283l-1.364 4.416h-.07L52 9.347h-1.318l2.3 5.999c-.287.888-.79 1.534-1.605 1.534v.98c1.377 0 2.107-.862 2.707-2.518l2.168-5.996zm-8.37-.202c-1.798 0-2.72 1.317-2.72 3.14 0 1.897.828 3.143 2.84 3.143.863 0 1.58-.24 2.121-.555v-.907c-.658.392-1.258.622-1.904.622-1.235 0-1.825-.633-1.825-2.075h3.909v-.44c.004-1.958-.922-2.928-2.42-2.928zm-.034.802c-.73 0-1.295.564-1.43 1.761h2.748c-.059-1.26-.672-1.761-1.318-1.761zm29.12 4.85l1.688 1.874-1.875 1.688-1.69-1.875 1.878-1.688zm-3.29-9.64L71.99 3.28l-1.875 1.688 1.688 1.875 1.875-1.688zm-5.65-1.228l2.247 2.5-2.498 2.249-2.25-2.5 2.5-2.249zm3.816 4.81l1.687 1.873 1.875-1.688-1.691-1.873-1.871 1.688zm4.006-.932l1.246-1.124 1.123 1.25-1.244 1.124-1.125-1.25zM9.775 6.781H8.373l-1.225 6.342h-.084L5.396 6.781H4.33l-1.559 6.342h-.085L1.344 6.781H0l1.943 8.5h1.295L4.82 9.299h.086l1.63 5.984h1.296L9.775 6.78zm65.36 7.789l-1.692-1.872 1.875-1.69 1.692 1.872-1.875 1.69zm.367-11.602l-1.25 1.125 1.125 1.25 1.248-1.125-1.123-1.25zm-5.934 9.976l-2.25-2.5 2.5-2.252 2.248 2.5-2.498 2.252zm-.47 1.82l2.248 2.5 2.5-2.25-2.25-2.499-2.498 2.25z" fill="#fff"/></svg>