<svg version="1" xmlns="http://www.w3.org/2000/svg" viewBox="0 0 1124.000000 228.000000"><g fill="#fff"><path d="M86.8 1.9C78.7 4.5 73.3 8 67.3 14.2 59.1 23 55 33.1 55 45c0 11.8 4.1 22 12.3 30.7l5 5.3-4.5 4.8C58.7 95.5 55 105.2 55 118.9c.1 14.7 4 22.6 20.2 41.1 10.2 11.7 17.4 21.6 20 28 3.2 7.6 6.2 7.4 9.7-.6 2.9-6.5 9.4-15.6 18.8-26.2 11.3-12.8 13.9-16.4 17.7-24.2 3-6.2 3.1-7 3.1-19 0-12.5 0-12.7-3.7-20.1-2-4.1-5.8-9.6-8.4-12.2l-4.6-4.7 5-5.3c13.3-14.1 16-34.4 7-52.1-2.7-5.3-11.2-14.2-16.6-17.3C112.6.1 98-1.7 86.8 1.9zm19.8 20.6c20.8 6.2 22.6 35.8 2.7 44.2-4 1.6-14.3 1.7-18 .1-9.2-4-14.5-11.9-14.5-21.8 0-10.7 6.3-19.4 16.2-22.5 5.9-1.8 7.6-1.8 13.6 0zm5.1 74.5c21 12 12.5 43.4-11.7 43.4-19.9 0-30.7-22-18.5-38 6.6-8.6 20.3-11.1 30.2-5.4zm85.1-95.1c-8.1 2.6-13.5 6.1-19.5 12.3C169.1 23 165 33.1 165 45c0 11.8 4.1 22 12.3 30.7l5 5.3-4.5 4.8c-9.1 9.7-12.8 19.4-12.8 33.1.1 14.7 4 22.6 20.2 41.1 10.2 11.7 17.4 21.6 20 28 3.2 7.6 6.2 7.4 9.7-.6 2.9-6.5 9.4-15.6 18.8-26.2 11.3-12.8 13.9-16.4 17.7-24.2 3-6.2 3.1-7 3.1-19 0-12.5 0-12.7-3.7-20.1-2-4.1-5.8-9.6-8.4-12.2l-4.6-4.7 5-5.3c13.3-14.1 16-34.4 7-52.1-2.7-5.3-11.2-14.2-16.6-17.3-10.6-6.2-25.2-8-36.4-4.4zm19.8 20.6c20.8 6.2 22.6 35.8 2.7 44.2-4 1.6-14.3 1.7-18 .1-9.2-4-14.5-11.9-14.5-21.8 0-10.7 6.3-19.4 16.2-22.5 5.9-1.8 7.6-1.8 13.6 0zm5.1 74.5c21 12 12.5 43.4-11.7 43.4-19.9 0-30.7-22-18.5-38 6.6-8.6 20.3-11.1 30.2-5.4zm160.8-78c-17.3 3.7-29.6 14.1-32.6 27.5-.6 2.9-1 8.9-.7 13.3.6 10.8 4.6 19.1 12.6 26.2 5.4 4.8 10.1 7.4 34 18.6 7.3 3.4 11.5 6 14.2 9 4.6 5 5.4 7.6 4.8 14.5-1.2 12.1-12.1 17.8-31.3 16.5-9.3-.6-23.5-4-31.7-7.5l-4.8-2v22.8l5.5 2c13.2 5 36.5 6.6 51.2 3.5 20.7-4.2 33.4-17.2 34.9-35.4 1.6-19.1-6.3-31-27.3-41.1-5.7-2.7-15-7.1-20.7-9.9-11.5-5.5-15.8-9.5-17.7-16.2-1.4-5.2.1-12.1 3.4-15.6 7.4-7.9 22.8-8.7 43-2.2 5.5 1.7 10 3 10.1 2.8.2-.2 1.9-4.4 3.8-9.5l3.6-9.1-4.7-2c-9.6-4.2-20.2-6.3-33.1-6.7-6.9-.2-14.3 0-16.5.5zm113.8 35.5c-14.2 4.4-24.9 17-28.8 33.8-2.2 9.7-2.9 22.2-1.6 32.5 3.5 28.3 18.7 44.2 42.5 44.2 12.3 0 21.5-3.8 28.7-11.7l3.5-3.9-.4 30.8-.5 30.8H564V55h-19.8l-.7 5.2c-.4 2.9-1.1 6.2-1.5 7.2-.6 1.9-.8 1.8-2.5-.7-2.7-4.2-11-9.8-17.6-11.8-7.1-2.2-19.3-2.4-25.6-.4zm31.4 20.4c5.3 2.6 8.7 6.8 11 13.3 1.5 4.3 1.8 8.4 1.8 22.3 0 16.3-.1 17.2-2.6 22.6-4.6 9.7-11.9 13.4-25 12.7-8.9-.5-13.2-2.8-17.4-8.9-7.5-11.4-8.3-37.1-1.6-51.5 2.9-6.2 6.9-10.2 12.6-12.3 4.5-1.6 16.5-.6 21.2 1.8zm224.3-20c-8.4 1.9-18.7 5.4-20.4 7.1-.7.7 4.4 13.9 6.4 16.2.3.4 3.8-.6 7.7-2.2 13.8-5.5 29.4-6.6 35.1-2.3 5.3 3.9 6.7 6.9 7 15.2l.4 7.8-15.4.6c-23.5 1.1-35.9 4.6-44.1 12.5-6.1 5.8-8 10.4-8.5 20.3-.6 11.6 1.3 18.1 7.3 24.7 6.1 6.7 12.4 9.4 23.9 10 15.3.8 25.6-2.8 34.2-12 2.7-2.9 4.6-4.3 4.9-3.5.3.6 1.3 3.9 2.3 7.2l1.8 6 8.7.3 8.7.3v-37.3c0-20.5-.5-40.2-1-43.8-2.1-13.3-8.5-21.4-20.7-26-8.3-3.2-26.5-3.7-38.3-1.1zm35.8 66.3c-.5 10-1.7 13.4-6.4 18.2-7.1 7-20.7 9.8-29.6 5.9-11.4-5.1-10.4-22.8 1.6-29 4.3-2.3 15.8-4.1 26-4.2l8.8-.1-.4 9.2zm100.3-66.7c-6.6 2-14.7 8.1-19.1 14.2-2.1 3-4 5-4.3 4.6-.2-.4-1-4.7-1.7-9.6l-1.2-8.7H843v108h24v-31.8c0-17.6.4-33.3 1-35.2 2.5-9 11-17.9 19.3-20.1 2.2-.6 7.7-1 12.2-1l8.2.1 1.1-10.2c.8-7.9.8-10.4-.1-11-2-1.3-15.9-.8-20.6.7zm72.2 0c-10.9 3-20.1 9.8-26.4 19.6-10.5 16.4-11.7 46.2-2.7 64.7 6.4 12.9 19.9 22.7 35 25.2 14.1 2.4 33.1.4 46.1-4.7l3.7-1.5v-9.4c0-5.2-.2-9.4-.5-9.4-.2 0-2.8.9-5.6 2.1-8.7 3.4-17.5 5-28.3 5.1-8.5 0-11-.3-15.4-2.2-9.3-4-15-12.5-16.8-25.3l-.6-4.7h72.2v-9.8c-.1-27.2-11.1-44.1-32.5-49.7-7.3-1.9-21.2-1.8-28.2 0zm27.8 20c5 3.5 8.5 9.9 9.5 17.3l.7 5.2H950v-2.5c0-4.5 4.2-13.7 7.9-17.4 4.8-4.8 8.8-6 18.3-5.8 6.7.2 8.2.6 11.9 3.2zm84.1-20.4c-7 1.3-15.7 5.8-20 10.2-4.8 4.9-7.2 10.9-7.2 18.1 0 14.3 7 22.5 26 30.7 25 10.8 29.3 13.5 30.4 19.4 1 4.9-1.6 9.9-6.2 12.2-3 1.4-6 1.8-15.7 1.7-11.1 0-12.8-.3-22.8-3.7-6-2-11.1-3.7-11.3-3.7-.2 0-.4 4.4-.4 9.9v9.8l4.3 1.6c8.4 3.1 12.4 3.8 24.7 4.4 15.7.7 24.8-.7 34-5.3 11.7-5.9 16-13.2 16-27.1 0-16.6-6.3-23.3-31.5-33.3-13.5-5.4-21.3-9.8-23-12.9-7-13.6 12.1-19.3 36.7-11.1 5 1.7 9.2 2.9 9.3 2.8.6-.7 7.5-17.2 7.2-17.3-1.3-1.1-12.9-4.7-19-5.9-8.1-1.7-24.3-2-31.5-.5zM595 91.7c0 20.3.5 39.7 1 43.3 1.4 8.4 6.1 18.1 10.8 22 6.9 5.7 13.2 7.4 27.3 7.5 12.5 0 12.5 0 20.1-3.8 4.8-2.3 9-5.3 11.1-7.8 1.9-2.2 3.7-3.7 4-3.2.2.4 1 3.6 1.7 7l1.3 6.3H691V55h-24v32.8c0 36-.6 41.2-5.8 48.7-4.2 6.1-10 8.8-19.7 9.3-10.3.4-15.7-2-19.5-8.8l-2.5-4.5-.3-38.8-.3-38.7H595v36.7z"/><path d="M31.2 160.9C26 169.4-.2 225.1.3 226.4c.6 1.5 15.2 1.6 154.9 1.4 153.5-.3 154.3-.3 154.5-2.3.1-1.1-7.1-16.6-16-34.5l-16.2-32.5-14.5-.3-14.5-.3-6.2 6.8-6.3 6.8 16.9.3 16.8.2 10.2 21c5.5 11.5 10.1 21.2 10.1 21.5 0 .3-60.7.5-135 .5-74.2 0-135-.2-135-.5 0-.2 4.6-9.9 10.1-21.5l10.2-21 16.8-.2 16.8-.3-6-6.8-6.1-6.7H33l-1.8 2.9z"/></g></svg>