<svg xmlns="http://www.w3.org/2000/svg" xmlns:xlink="http://www.w3.org/1999/xlink" width="0" height="0" style="position:absolute">
	
		<symbol id="arrow-bottom" viewBox="0 0 12 7">
			<path opacity=".6" d="M1 1l4.997 5L11 1" stroke="#ABB7E0" stroke-linecap="round" stroke-linejoin="round"></path>
		</symbol>
	
		<symbol id="arrow-right" viewBox="0 0 38 14">
			<path d="M37 7H1m30-6l6 6-6 6" stroke="#fff" stroke-linecap="round" stroke-linejoin="round"></path>
		</symbol>
	
		<symbol id="close" viewBox="0 0 18 18">
			<path d="M17.706 1.709A1 1 0 0 0 16.292.294l1.414 1.415zM.988 15.599a1 1 0 0 0 1.414 1.414L.988 15.599zm15.304 1.414a1 1 0 0 0 1.414-1.414l-1.414 1.414zM2.402.293A1 1 0 1 0 .989 1.707L2.403.293zm13.89.001L.988 15.6l1.414 1.414L17.706 1.709 16.292.294zM2.402 17.013L17.706 1.709 16.292.294.988 15.6l1.414 1.414zm15.304-1.414L2.403.293.988 1.707l15.304 15.306 1.414-1.414zM.988 1.707l15.304 15.306 1.414-1.414L2.403.293.988 1.707z" fill="currentColor"></path>
		</symbol>
	
		<symbol id="eye" viewBox="0 0 28 18">
			<path clip-rule="evenodd" d="M13.808 1.067c-7.44 0-12.76 8.166-12.76 8.166s5.32 8.167 12.76 8.167c7.44 0 12.76-8.167 12.76-8.167s-5.32-8.166-12.76-8.166z" stroke="#7D77E9" stroke-linecap="round" stroke-linejoin="round"></path><path clip-rule="evenodd" d="M13.808 13.667c2.389 0 4.325-2.09 4.325-4.667s-1.936-4.667-4.325-4.667c-2.389 0-4.325 2.09-4.325 4.667s1.936 4.667 4.325 4.667z" stroke="#7D77E9" stroke-linecap="round" stroke-linejoin="round"></path><path d="M12.294 8.067c-.31.58-.309 1.295.004 1.874.313.578.89.932 1.51.926" stroke="#7D77E9" stroke-linecap="round" stroke-linejoin="round"></path>
		</symbol>
	
		<symbol id="laptop" viewBox="0 0 170 170">
			<path d="M165.329 142.706h-66.43a3.314 3.314 0 0 0-3.306 3.32c0 3.051-2.472 5.533-5.51 5.533H79.099c-3.037 0-5.509-2.482-5.509-5.533 0-1.833-1.48-3.32-3.305-3.32H18.673v-85.32c0-3.814 3.09-6.918 6.888-6.918h41.23l.03.29-6.87 6.512a7.172 7.172 0 0 0-.068.067c-6.003 6.03-9.31 14.048-9.31 22.576v14.826c0 1.312.77 2.501 1.963 3.034a3.298 3.298 0 0 0 3.558-.569L70.56 84.096a3.304 3.304 0 0 0 1.915 1.511 42.547 42.547 0 0 0 11.959 1.758h.146c4.1 0 8.171-.591 12.105-1.758a3.302 3.302 0 0 0 1.947-1.578l14.542 13.178a3.3 3.3 0 0 0 3.558.569 3.32 3.32 0 0 0 1.963-3.034V79.915c0-8.528-3.306-16.546-9.31-22.577l-6.353-6.38.061-.49h40.614c3.798 0 6.888 3.103 6.888 6.918v85.32a3.314 3.314 0 0 0 3.306 3.32 3.313 3.313 0 0 0 3.306-3.32v-85.32c0-7.476-6.056-13.559-13.5-13.559h-39.849A55.311 55.311 0 0 0 89.77 2.505l-.581-.643A5.637 5.637 0 0 0 85.009 0h-.042a5.637 5.637 0 0 0-4.194 1.923l-1.095 1.25c-9.766 11.146-14.66 25.885-13.55 40.654H25.562c-7.445 0-13.5 6.083-13.5 13.56v85.319H3.94a3.314 3.314 0 0 0-3.306 3.32v5.176C.634 161.567 9.03 170 19.349 170h130.569c10.32 0 18.716-8.432 18.716-18.797v-5.177c0-1.834-1.48-3.32-3.305-3.32zM100.405 71.87l1.579-12.572 2.725 2.737c4.755 4.776 7.374 11.126 7.374 17.88v7.359L99.862 76.199l.543-4.329zM84.641 7.56l.379-.431A48.673 48.673 0 0 1 97.03 45.68l-.76 6.053-.001.007-3.183 25.347-.338 2.697c-2.677.624-5.415.94-8.167.94h-.124a35.97 35.97 0 0 1-7.993-.928l-2.605-25.25-.293-2.84-.726-7.041c-1.386-13.438 2.915-26.963 11.8-37.105zm-15.2 68.605L57.185 87.272v-7.359c0-6.738 2.607-13.075 7.341-17.847l3.153-2.989 1.762 17.088zm80.477 87.194H19.349c-6.674 0-12.104-5.453-12.104-12.157v-1.856h60.19c1.442 5.104 6.125 8.853 11.662 8.853h10.986c5.538 0 10.22-3.749 11.662-8.853h60.277v1.857c0 6.703-5.429 12.156-12.104 12.156z" fill="#3E3B7C"></path><path d="M141.064 57.88h-16.715a3.32 3.32 0 0 0 0 6.64h13.395v64.329H33.371V64.521h10.532a3.32 3.32 0 0 0 0-6.641H30.05a3.32 3.32 0 0 0-3.32 3.32v70.969a3.32 3.32 0 0 0 3.32 3.32h111.013a3.32 3.32 0 0 0 3.32-3.32V61.2a3.32 3.32 0 0 0-3.32-3.32zM85 38.373a3.32 3.32 0 1 0 0-6.64 3.32 3.32 0 0 0 0 6.64z" fill="#3E3B7C"></path><path d="M76.366 92.189a3.32 3.32 0 0 0-3.32 3.32v13.515a3.32 3.32 0 1 0 6.64 0V95.509a3.32 3.32 0 0 0-3.32-3.32zm16.869-.769a3.32 3.32 0 0 0-3.32 3.32v19.93a3.32 3.32 0 0 0 6.64 0V94.74a3.32 3.32 0 0 0-3.32-3.32z" fill="#3E3B7C"></path>
		</symbol>
	
		<symbol id="user-1" viewBox="0 0 33 36">
			<path d="M16.5 17.703c4.18 0 7.813-3.75 7.813-8.633 0-4.824-3.633-8.398-7.813-8.398S8.687 4.324 8.687 9.109c0 4.844 3.614 8.594 7.813 8.594zM4.215 35.79h24.531c3.086 0 4.18-.879 4.18-2.598 0-5.039-6.309-11.992-16.446-11.992C6.363 21.2.055 28.152.055 33.191c0 1.72 1.093 2.598 4.16 2.598z" fill="currentColor"></path>
		</symbol>
	
		<symbol id="user-2" viewBox="0 0 54 36">
			<path d="M37.195 17.703c4.18 0 7.793-3.75 7.793-8.633 0-4.824-3.633-8.398-7.793-8.398-4.18 0-7.832 3.652-7.812 8.437 0 4.844 3.613 8.594 7.812 8.594zm-22.5.45c3.653 0 6.797-3.282 6.797-7.52 0-4.2-3.164-7.305-6.797-7.305-3.613 0-6.816 3.184-6.797 7.344 0 4.2 3.165 7.48 6.797 7.48zM3.816 35.788h14.825c-2.032-2.95.449-8.887 4.668-12.129-2.188-1.445-4.98-2.52-8.614-2.52C5.887 21.14.38 27.646.38 33.056c0 1.758.957 2.734 3.437 2.734zm21.094 0h24.531c3.086 0 4.18-.879 4.18-2.598 0-5.039-6.309-11.992-16.445-11.992-10.117 0-16.426 6.953-16.426 11.992 0 1.72 1.094 2.598 4.16 2.598z" fill="currentColor"></path>
		</symbol>
	
</svg>
