<svg xmlns="http://www.w3.org/2000/svg" viewBox="0 0 75 56"><defs><linearGradient id="a" x1="0%" y1="50%" y2="50%"><stop offset="0%" stop-color="#F6EC77"/><stop offset="100%" stop-color="#BE3E04"/></linearGradient><linearGradient id="b" x1="32063%" x2="36721%" y1="20544%" y2="20544%"><stop offset="0%" stop-color="#F6EC77"/><stop offset="100%" stop-color="#BE3E04"/></linearGradient><linearGradient id="c" x1="40534%" x2="44544%" y1="18857%" y2="18857%"><stop offset="0%" stop-color="#F6EC77"/><stop offset="100%" stop-color="#BE3E04"/></linearGradient><linearGradient id="d" x1="44663%" x2="47106%" y1="12287%" y2="12287%"><stop offset="0%" stop-color="#F6EC77"/><stop offset="100%" stop-color="#BE3E04"/></linearGradient><linearGradient id="e" x1="34198%" x2="36141%" y1="14671%" y2="14671%"><stop offset="0%" stop-color="#F6EC77"/><stop offset="100%" stop-color="#BE3E04"/></linearGradient></defs><g fill="none" fill-rule="evenodd"><path fill="#1B4F9E" fill-rule="nonzero" d="M71.374 34.17h-2.072c0-17.658-14.357-32.02-32.002-32.02S5.296 16.515 5.296 34.17H3.223A34.092 34.092 0 0 1 24.258 2.68a34.065 34.065 0 0 1 37.132 7.384 33.876 33.876 0 0 1 9.984 24.106z"/><path fill="#03C0E1" fill-rule="nonzero" d="M70.634 34.17h-.592c0-18.064-14.688-32.759-32.743-32.759S4.555 16.106 4.555 34.17h-.587A33.351 33.351 0 0 1 24.546 3.363a33.325 33.325 0 0 1 36.325 7.224 33.142 33.142 0 0 1 9.763 23.582z"/><path fill="#1B4F9E" fill-rule="nonzero" d="M62.952 34.164h-1.56c0-13.29-10.808-24.104-24.093-24.104-13.286 0-24.094 10.816-24.094 24.104h-1.56c.09-14.11 11.549-25.502 25.653-25.502 14.105 0 25.564 11.391 25.654 25.502z"/><path fill="#03C0E1" fill-rule="nonzero" d="M62.395 34.17h-.446c0-13.6-11.059-24.657-24.645-24.657S12.66 20.576 12.66 34.175h-.446c0-13.867 11.236-25.108 25.096-25.108s25.097 11.24 25.097 25.108l-.01-.006z"/><path fill="#000" fill-rule="nonzero" d="M74.54 29.24H38.152c-.236-.506-.79-1.686-1.103-2.35.67-.419 2.204-1.372 2.904-1.81l1.254 1.743L44.157 25c.279-.032 3.797-.467 3.797-.467l-.12-2.625c.181-.306 2.052-3.436 2.441-4.085l.983.193-.372-3.335 7.505-7.257L51.49 9.68l1.86-6.828L51.32 5.2l-4.655 5.385-.08-4.033s-5.953 6.291-6.169 6.515l-.596.23-.404-2.49s-3.903 3.437-4.027 3.552l-1.996 1.039-.08.032-.796.344.948 1.358-.737.976-.817-1.685-8.733 13.165H18.76s-.337.465-.41.563l-.336-.563H.018v13.278h15.696L8.145 56l5.66-2.43 17.43-17.03c.61.851 1.907 2.653 1.907 2.653.014.02 2.529 3.26 2.529 3.26h16.961l.798-1.671c.216 0 .283 0 .496-.005l.926 1.671H74.58l-.04-13.208z"/><path fill="#000" fill-rule="nonzero" d="M8.14 55.995l.001-1.248 1.05-.733.38.6zm40.07-31.462l-.002-1.247-.291-.048-.29.287zm3.353-7.764v1.247l-.583-.275v-1.267zm6.825-9.345V6.178l-1.942 1.368-.384 1.026zm-5.039-5.819v1.247l-.434.907-.665-.078zM32.516 15.769l.001-1.247.524.334.392.522-.287.462z"/><path fill="#1A4F9D" d="M74.54 27.993H38.151l-1.102-2.35 2.903-1.81 1.254 1.742 2.95-1.821 3.796-.467-.12-2.626c.182-.306 2.052-3.436 2.442-4.085l.983.193-.372-3.335 7.505-7.256-6.908 2.254c.391-1.428 1.861-6.827 1.861-6.827L51.317 3.95l-4.653 5.386-.081-4.033-6.169 6.516-.596.23-.404-2.49-4.027 3.552-1.995 1.038-.08.033-.796.345.947 1.358-.737.975-.817-1.685-8.732 13.165h-4.416l-.41.563-.336-.563H.02v13.278h15.696c-1.022 1.768-7.57 13.127-7.57 13.127l5.658-2.429 17.43-17.03c.61.852 1.907 2.653 1.907 2.653l2.529 3.26h16.962l.798-1.667c.215 0 .282 0 .495-.005l.926 1.672h19.726l-.038-13.207z"/><path fill="#00ACE8" d="M73.838 28.698h-7.585l-.015.774h-.418l-.05-.774h-7.555v1.266l-.78-1.266-14.013-.01-.356.513-.018-.503H37.7l-1.56-3.322 3.996-2.49 1.253 1.744 2.522-1.557 3.3-.408-.105-2.183 2.792-4.673-2.435.406.287-.845 2.69.522-.3-2.728 5.552-5.367-5.23 1.71 1.392-5.095-5.858 6.772-.085-4.146-5.095 5.383-1.552.594-.337-2.082-3.133 2.76-2.082 1.082-.12.051.12.17.626.897-.626.829-1.116 1.474-.78-1.608-8.263 12.457H19.12l-.835 1.139-.67-1.14H.73v11.87l16.212-.047-7.127 12.395 3.586-1.54L31.33 34.214l2.385 3.319 2.297 2.965h7.06v-.646l.557.646h8.563l.797-1.672h1.358l.93 1.672H66V38.7h.135l.018 1.797h7.717l-.034-11.8h.003zm-39.57-9.265l-.56.24-.353.152-.677-1.458 1.03-.051 1.045-.05-.486 1.167z"/><path fill="#1A4F9D" d="M73.296 29.311h-6.55v.78h-1.395v-.78h-6.595l.019 2.727-1.642-2.727H43.694l-1.172 1.44v-1.44H37.33l-1.894-4.096 4.858-3.014 1.252 1.745 2.167-1.355 2.93-.355-.087-1.846 2.267-3.776-2.18.354.76-2.182 2.421.474-.255-2.254 4.01-3.876-3.926 1.289 1.014-3.727-4.587 5.3-.625.152-.07-3.69-4.264 4.503-2.283.88-.305-1.778-2.42 2.151-1.71.88.624.881-1.419 1.861 2-.101-.917 2.167-1.572.711-1.39-2.826-7.887 11.876h-4.45l-1.15 1.584-.949-1.584H1.274v10.745h16.63l-6.773 11.75 1.947-.83 18.33-17.897 4.89 6.576h6.224v-1.65l1.376 1.65h7.936l.796-1.738h2.031l.932 1.738h9.758v-1.738h1.396v1.738h6.564z"/><path fill="#1A1A18" d="M19.711 31.616l-1.507 2.757-1.59-2.757H3.277v7.95h6.941c.795 0 1.47-.093 2.03-.297.558-.204.964-.458 1.235-.778a1.56 1.56 0 0 0 .407-1.016 1.493 1.493 0 0 0-.288-.847 2.484 2.484 0 0 0-.812-.745 4.12 4.12 0 0 0-1.302-.424c.36-.035.707-.15 1.015-.338a1.85 1.85 0 0 0 .656-.643c.145-.235.221-.505.22-.78v-.185l2.86 3.81L14.9 38.94v.627h3.926l5.382-7.951v-.627l-4.501.627h.003zM7.188 33.529l1.098-.016h.153c.304 0 .522.05.694.168.14.081.23.228.236.39a.465.465 0 0 1-.186.355.811.811 0 0 1-.49.169.194.194 0 0 0-.052-.015.055.055 0 0 0-.049-.019h-.306l-1.098.021V33.53zm2.402 3.963a1.075 1.075 0 0 1-.645.167.138.138 0 0 1-.065-.015h-.594l-1.098.015v-1.236l1.098-.015h.408c.356 0 .626.067.829.203.202.136.303.304.303.491 0 .153-.085.27-.235.39H9.59zm27.502-1.558l-5.618-13.158L12.4 50.917l.044.444.396-.228 18.989-19.827 5.263 7.951h4.157v-7.963h-4.157zm30.548-4.64v2.743h-3.3v-2.743h-4.163v6.874l-3.825-6.874h-4.875l-3.76 6.129-2.047-2.2 3.522-3.929v-.627l-4.793.627-3.028 3.96 3.164 4.003h6.43l.865-1.782h3.894l.882 1.782h7.727v-3.095h3.3v3.095h4.146v-7.963h-4.138zm-14.924 4.18l1.115-2.1.018.034 1.134 2.048-2.267.017z"/><path fill="#FFF" d="M19.711 30.676l-1.507 2.757-1.59-2.757H3.277v7.95h6.941c.795 0 1.47-.094 2.03-.297.558-.204.964-.458 1.235-.779a1.56 1.56 0 0 0 .407-1.015 1.493 1.493 0 0 0-.288-.848 2.484 2.484 0 0 0-.812-.744 4.12 4.12 0 0 0-1.302-.425 2.39 2.39 0 0 0 1.015-.337 1.85 1.85 0 0 0 .656-.644c.145-.234.221-.505.22-.78v-.184l2.86 3.81-1.167 1.984-.17.573 3.926-.314 5.382-7.637-.199-.313h-4.299zM7.188 32.589l1.098-.016h.153c.304 0 .522.05.694.168.14.081.23.228.236.39a.465.465 0 0 1-.186.355.811.811 0 0 1-.49.168.194.194 0 0 0-.052-.014.055.055 0 0 0-.049-.02h-.306l-1.098.022v-1.053zM9.59 36.55a1.075 1.075 0 0 1-.645.168.138.138 0 0 1-.065-.015h-.594l-1.098.015v-1.236l1.098-.015h.408c.356 0 .626.067.829.203.202.136.303.304.303.49 0 .153-.085.27-.235.39H9.59zm27.502-1.556L31.538 21.48 12.504 50.813l.386-.397 18.939-20.469 5.263 8.37c1.405 0 2.757.019 4.162 0v-7.963h-4.162v4.64zm30.548-4.64v2.742h-3.3v-2.742h-4.163v6.873l-3.825-6.873h-4.875l-3.76 6.129-2.047-2.2 3.522-3.616-.327-.313h-4.464l-3.028 3.96 3.164 4.003h6.43l.865-1.782h3.894l.882 1.782h7.728v-3.096h3.3v3.096h4.145v-7.963h-4.14zm-14.924 4.179l1.115-2.1.018.034 1.134 2.048-2.267.018z"/><path fill="#DF060F" d="M19.711 30.99l-1.507 2.756-1.59-2.757H3.277v7.95h6.941c.795 0 1.47-.093 2.03-.297.558-.204.964-.458 1.235-.778a1.56 1.56 0 0 0 .407-1.016 1.493 1.493 0 0 0-.288-.847 2.484 2.484 0 0 0-.812-.745 4.12 4.12 0 0 0-1.302-.424c.36-.035.707-.15 1.015-.338a1.85 1.85 0 0 0 .656-.643c.145-.235.221-.505.22-.78v-.185l2.86 3.81L14.9 38.94h3.926l5.382-7.95H19.71zM7.188 32.901l1.098-.016h.153c.304 0 .522.05.694.169.14.08.23.228.236.39a.465.465 0 0 1-.186.355.811.811 0 0 1-.49.168.194.194 0 0 0-.052-.015.055.055 0 0 0-.049-.019h-.306l-1.098.021v-1.053zm2.402 3.963a1.075 1.075 0 0 1-.645.167.138.138 0 0 1-.065-.015h-.594l-1.098.015v-1.236l1.098-.015h.408c.356 0 .626.067.829.203.202.136.303.304.303.491 0 .153-.085.27-.235.39H9.59zm27.502-1.557L31.474 22.15 12.4 50.917l.355-.237 19.074-20.42 5.263 8.37h4.157v-7.963h-4.157zm30.548-4.64v2.743h-3.3v-2.743h-4.163v6.874l-3.825-6.874h-4.875l-3.76 6.129-2.047-2.2 3.522-3.929H44.4l-3.028 3.961 3.164 4.003h6.43l.865-1.783h3.894l.882 1.783h7.727v-3.096h3.3v3.096h4.146v-7.964h-4.138zm-14.924 4.18l1.115-2.1.018.034 1.134 2.048-2.267.017z"/><path fill="url(#a)" d="M40.977 16.013l-.962-.806 1.966-.477 2.125-2.831-.79 2.288 2.008-.483-2.426 1.94-.47 2.244-.809-.849-2.37 1.74z"/><path fill="#000" fill-rule="nonzero" d="M43.948 12.196l-.714 2.065 1.88-.451-2.258 1.805-.458 2.164-.772-.81-2.187 1.607 1.607-2.574-.918-.768 1.88-.457 1.936-2.581h.004zm.309-.595l-.397.532-1.913 2.551-1.846.447-.202.05.159.132.848.71-1.56 2.498-.29.463.44-.323 2.113-1.553.709.743.137.144.04-.194.45-2.13 2.229-1.775.366-.293-.456.11-1.688.406.65-1.88.217-.627-.006-.01z"/><path fill="url(#b)" d="M34.764 21.794l-.645-.644 1.441-.375 1.71-2.28-.634 1.849 1.607-.389-1.946 1.557-.43 1.812-.587-.705-1.901 1.396z"/><path fill="#000" fill-rule="nonzero" d="M37.113 18.791l-.558 1.626 1.472-.357-1.776 1.422-.411 1.728-.551-.663-1.722 1.263 1.264-2.025-.61-.608 1.37-.357 1.522-2.03v.001zm.313-.594l-.398.53-1.5 2.001-1.335.347-.177.046.13.13.552.55-1.221 1.954-.288.462.438-.322 1.644-1.206.488.588.133.16.05-.203.4-1.693 1.746-1.399.368-.293-.454.106-1.286.314.496-1.446.215-.627z"/><path fill="url(#c)" d="M43.414 19.963l-.703-.531 1.388-.347 1.479-1.973-.55 1.6 1.384-.331-1.674 1.34-.37 1.55-.504-.604-1.64 1.205z"/><path fill="#000" fill-rule="nonzero" d="M45.427 17.41l-.473 1.375 1.253-.299-1.511 1.206-.352 1.463-.468-.562-1.462 1.073 1.07-1.71-.654-.495 1.3-.324 1.297-1.728zm.313-.594l-.402.527-1.269 1.696-1.264.313-.208.054.174.131.578.436-1.02 1.638-.29.462.44-.322 1.381-1.013.406.487.133.16.05-.203.342-1.43 1.471-1.184.366-.293-.456.105-1.059.259.408-1.191.215-.627.004-.005z"/><path fill="url(#d)" d="M47.265 12.916l-.327-.329.732-.19.917-1.226-.343 1.003.844-.204-1.026.82-.219.919-.298-.365-1.008.742z"/><path fill="#000" fill-rule="nonzero" d="M48.431 11.467l-.267.78.708-.17-.856.684-.199.836-.262-.328-.836.61.607-.975-.291-.293.66-.172.732-.976.004.004zm.31-.597l-.398.53-.708.947-.626.163-.177.046.129.129.233.234-.563.905-.286.461.437-.322.75-.551.2.243.133.163.05-.209.19-.797.827-.662.368-.294-.458.105-.522.126.21-.6.213-.627-.003.01z"/><path fill="url(#e)" d="M36.19 15.35l-.257-.257.57-.149.744-.99-.282.815.672-.16-.816.651-.17.715-.237-.285-.806.595z"/><path fill="#000" fill-rule="nonzero" d="M37.088 14.25l-.204.592.537-.128-.647.517-.15.627-.201-.243-.627.463.46-.74-.222-.22.5-.13.554-.74v.003zm.313-.597l-.4.532-.532.71-.464.122-.176.046.129.13.163.161-.418.669-.288.463.44-.324.547-.404.138.166.133.161.048-.209.142-.594.62-.494.366-.293-.456.105-.352.083.142-.41.217-.627.001.007z"/></g></svg>