<svg data-name="Layer 1" xmlns="http://www.w3.org/2000/svg" viewBox="0 0 358.4 409.6" fill="#e1e7ea"><title>empty-clock</title><path d="M345.6 179.2h-12.8A12.81 12.81 0 0 0 320 192h-13.9c-2.65-31.27-14.1-60-32.65-83.15C269.3 80.85 264 53 256 25.6L230.4 0v71.93a152.64 152.64 0 0 0-153.6 0V0L51.2 25.6c-7.95 27.38-13.25 55.22-17.4 83.22a153.16 153.16 0 0 0 0 191.95c4.15 28 9.45 55.85 17.4 83.23l25.6 25.6v-71.92a152.67 152.67 0 0 0 153.6 0v71.92L256 384c8-27.37 13.3-55.25 17.45-83.23 18.55-23.15 30-51.9 32.65-83.17H320a12.81 12.81 0 0 0 12.8 12.8h12.8a12.77 12.77 0 0 0 12.8-12.8V192a12.78 12.78 0 0 0-12.8-12.8zm-192 153.6c-70.55 0-128-57.43-128-128s57.45-128 128-128a128 128 0 0 1 0 256zm0 0"/><path d="M153.6 89.6a115.2 115.2 0 1 0 115.2 115.2A115.21 115.21 0 0 0 153.6 89.6zM210.2 290l-6.25-10.82-11.1 6.4 6.1 10.55A101.22 101.22 0 0 1 160 306.55V294.4h-12.8v12.15a101.22 101.22 0 0 1-38.95-10.4l6.1-10.55-11.1-6.4L97 290a102.91 102.91 0 0 1-28.6-28.62l10.8-6.25-6.4-11.1-10.55 6.1a102.06 102.06 0 0 1-10.4-38.95H64V198.4H51.85a101.67 101.67 0 0 1 10.42-38.95l10.55 6.1 6.38-11.1-10.8-6.25A103.38 103.38 0 0 1 97 119.57l6.25 10.82 11.08-6.4-6.1-10.55a101.17 101.17 0 0 1 38.95-10.4v12.16H160v-12.15a101.17 101.17 0 0 1 39 10.4L192.85 124l11.1 6.4 6.25-10.82a103.46 103.46 0 0 1 28.65 28.63L228 154.45l6.4 11.1 10.55-6.1a100.3 100.3 0 0 1 10.4 39H243.2v12.8h12.15a100.36 100.36 0 0 1-10.4 39l-10.55-6.1-6.4 11.1 10.85 6.25A102.7 102.7 0 0 1 210.2 290zm0 0"/><path d="M230.4 198.4h-65.95a12.42 12.42 0 0 0-7.65-5.75V128h-6.4v64.65a12.41 12.41 0 0 0-7.62 5.75H128v12.8h14.77a12.44 12.44 0 0 0 7.63 5.8v13.4h6.4v-13.45a12.39 12.39 0 0 0 7.65-5.75h65.95zm0 0"/></svg>