<svg id="Layer_1" data-name="Layer 1" xmlns="http://www.w3.org/2000/svg" viewBox="0 0 408.56 237.55"><defs><style>.cls-1{fill:#dfdce7}.cls-2,.cls-7{fill:#fff}.cls-11,.cls-2,.cls-3,.cls-4,.cls-5{stroke:#576c91;stroke-miterlimit:10}.cls-11,.cls-3,.cls-5{fill:none}.cls-10,.cls-4{fill:#81c1e8}.cls-5{stroke-dasharray:4 2}.cls-6{fill:#576c91}.cls-8{fill:#ffcb6f}.cls-9{opacity:.8}.cls-11{stroke-linecap:round}</style></defs><title>step-2</title><g id="_Группа_" data-name="&lt;Группа&gt;"><path id="_Контур_" data-name="&lt;Контур&gt;" class="cls-1" d="M31.75 199.35l86.67 30 85.83-30-84.5-32.75-88 32.75z"/><path id="_Контур_2" data-name="&lt;Контур&gt;" class="cls-2" d="M118.42 219.51l-54-19.66v-62l54 19.33v62.33z"/><path id="_Контур_3" data-name="&lt;Контур&gt;" class="cls-2" d="M172.75 198.6l-54.33 20.91v-62.33l54.33-19.33v60.75z"/><path id="_Контур_4" data-name="&lt;Контур&gt;" class="cls-3" d="M118.42 156.18l-54.17-18.33-17.83 18.33 53 19.33 19-19.33h1.33l16.5 20.42 54.25-19.92-17.75-18.83"/><path id="_Контур_5" data-name="&lt;Контур&gt;" class="cls-3" d="M119.75 156.18l53-18.33"/><path id="_Контур_6" data-name="&lt;Контур&gt;" class="cls-3" d="M118.42 156.18V117.6"/><path id="_Контур_7" data-name="&lt;Контур&gt;" class="cls-3" d="M118.42 117.6l-54.17 20.25"/><path id="_Контур_8" data-name="&lt;Контур&gt;" class="cls-3" d="M118.42 117.6l54.33 20.25"/><path id="_Контур_9" data-name="&lt;Контур&gt;" class="cls-3" d="M172.75 137.85l12.5-14.5"/><path id="_Контур_10" data-name="&lt;Контур&gt;" class="cls-3" d="M118.42 117.6l12.08-13.5"/><path id="_Контур_11" data-name="&lt;Контур&gt;" class="cls-3" d="M118.42 117.6l-11.92-13.5"/><path id="_Контур_12" data-name="&lt;Контур&gt;" class="cls-3" d="M64.25 137.85l-13-14.5"/><path id="_Контур_13" data-name="&lt;Контур&gt;" class="cls-3" d="M125.5 205.6l7.25-2.75"/><path id="_Контур_14" data-name="&lt;Контур&gt;" class="cls-3" d="M125.5 211.35l15.25-5.75"/><path id="_Контур_15" data-name="&lt;Контур&gt;" class="cls-4" d="M105.58 104.1l-53 19.25 11.67 13.54 52.33-19.29-11-13.5z"/><path id="_Контур_16" data-name="&lt;Контур&gt;" class="cls-4" d="M119.75 117.6l52.1 19.91 12.57-14.16-53-18.5-11.67 12.75z"/><path id="_Контур_17" data-name="&lt;Контур&gt;" class="cls-3" d="M139.08 101.85l11.34-28.34"/><path id="_Контур_18" data-name="&lt;Контур&gt;" class="cls-3" d="M84.58 91.51L73.75 72.18"/><path id="_Контур_19" data-name="&lt;Контур&gt;" class="cls-3" d="M170.08 78.18L179 65.51"/><path id="_Контур_20" data-name="&lt;Контур&gt;" class="cls-3" d="M31.75 49.18l-22-25.33"/><path id="_Контур_21" data-name="&lt;Контур&gt;" class="cls-3" d="M204.42 31.85l15-22.34"/><path id="_Контур_22" data-name="&lt;Контур&gt;" class="cls-3" d="M196.75 106.51l22.67-12.33"/><path id="_Контур_23" data-name="&lt;Контур&gt;" class="cls-3" d="M40.75 106.51l19 11.09"/><path id="_Контур_24" data-name="&lt;Контур&gt;" class="cls-3" d="M88.42 106.51l8.33 11.09"/><path id="_Контур_25" data-name="&lt;Контур&gt;" class="cls-3" d="M167.08 110.85l-11.66 10.33"/><path id="_Контур_26" data-name="&lt;Контур&gt;" class="cls-3" d="M9.75 89.85l-6.67-4"/><path id="_Контур_27" data-name="&lt;Контур&gt;" class="cls-3" d="M50.25 68.85l-3.83-3.34"/><path id="_Контур_28" data-name="&lt;Контур&gt;" class="cls-3" d="M172.75 19.18l4.33-7.67"/><path id="_Контур_29" data-name="&lt;Контур&gt;" class="cls-3" d="M150.42 97.18l3.33-7.33"/><circle id="_Контур_30" data-name="&lt;Контур&gt;" class="cls-5" cx="9.75" cy="53.1" r="9.25"/><circle id="_Контур_31" data-name="&lt;Контур&gt;" class="cls-5" cx="169.29" cy="48" r="9.25"/><circle id="_Контур_32" data-name="&lt;Контур&gt;" class="cls-5" cx="196.75" cy="15.35" r="5.67"/><circle id="_Контур_33" data-name="&lt;Контур&gt;" class="cls-5" cx="59.75" cy="51.65" r="5.67"/><path id="_Контур_34" data-name="&lt;Контур&gt;" class="cls-6" d="M226.62 68.85l-9.82-5.67-9.82-5.67v22.68l9.82-5.67 9.82-5.67z"/><g id="_Группа_2" data-name="&lt;Группа&gt;"><g id="_Группа_3" data-name="&lt;Группа&gt;"><path id="_Контур_35" data-name="&lt;Контур&gt;" class="cls-7" d="M139.43 52.15h-39.5l1.98-27.99h35.54l1.98 27.99z"/><path id="_Составной_контур_" data-name="&lt;Составной контур&gt;" class="cls-8" d="M179.3 138.28h-40.57l2.05-29h36.47zm-39.51-1h38.44l-1.91-27h-34.61z" transform="translate(-39.34 -85.63)"/></g><g id="_Группа_4" data-name="&lt;Группа&gt;"><path id="_Контур_36" data-name="&lt;Контур&gt;" class="cls-7" d="M139.43 110.26h-39.5l1.98 27.99h35.54l1.98-27.99z"/><path id="_Составной_контур_2" data-name="&lt;Составной контур&gt;" class="cls-8" d="M177.25 224.38h-36.47l-2.05-29h40.57zm-35.54-1h34.62l1.91-27H139.8z" transform="translate(-39.34 -85.63)"/></g><g id="_Группа_5" data-name="&lt;Группа&gt;"><circle id="_Контур_37" data-name="&lt;Контур&gt;" class="cls-7" cx="119.75" cy="81.28" r="34.94"/><path id="_Составной_контур_3" data-name="&lt;Составной контур&gt;" class="cls-8" d="M159.09 202.35a35.43 35.43 0 1 1 35.43-35.43 35.47 35.47 0 0 1-35.43 35.43zm0-69.88a34.44 34.44 0 1 0 34.44 34.44 34.48 34.48 0 0 0-34.44-34.43z" transform="translate(-39.34 -85.63)"/></g><g id="_Группа_6" data-name="&lt;Группа&gt;"><circle id="_Контур_38" data-name="&lt;Контур&gt;" class="cls-7" cx="119.75" cy="81.28" r="27.5"/><path id="_Составной_контур_4" data-name="&lt;Составной контур&gt;" class="cls-8" d="M159.09 194.92a28 28 0 1 1 28-28 28 28 0 0 1-28 28zm0-55a27 27 0 1 0 27 27 27 27 0 0 0-27-27.01z" transform="translate(-39.34 -85.63)"/></g><g id="_Группа_7" data-name="&lt;Группа&gt;"><circle id="_Контур_39" data-name="&lt;Контур&gt;" class="cls-7" cx="119.75" cy="81.28" r="4.46"/><path id="_Составной_контур_5" data-name="&lt;Составной контур&gt;" class="cls-8" d="M159.09 171.87a5 5 0 1 1 5-5 5 5 0 0 1-5 5zm0-8.92a4 4 0 1 0 4 4 4 4 0 0 0-4-3.95z" transform="translate(-39.34 -85.63)"/></g><g id="_Группа_8" data-name="&lt;Группа&gt;"><path id="_Контур_40" data-name="&lt;Контур&gt;" class="cls-8" d="M118.76 59.96h1.98v16.86h-1.98z"/></g><g id="_Группа_9" data-name="&lt;Группа&gt;"><path id="_Контур_41" data-name="&lt;Контур&gt;" class="cls-8" d="M170.24 175.45a1 1 0 0 1-.57-.18l-6.67-4.71a1 1 0 0 1 1.14-1.62l6.69 4.71a1 1 0 0 1-.57 1.8z" transform="translate(-39.34 -85.63)"/></g><g id="_Группа_10" data-name="&lt;Группа&gt;"><path id="_Контур_42" data-name="&lt;Контур&gt;" class="cls-8" d="M163.55 118.83h-8.92a1 1 0 1 1 0-2h8.92a1 1 0 1 1 0 2z" transform="translate(-39.34 -85.63)"/></g><g id="_Группа_11" data-name="&lt;Группа&gt;"><path id="_Контур_43" data-name="&lt;Контур&gt;" class="cls-8" d="M165.28 126h-12.39a1 1 0 1 1 0-2h12.39a1 1 0 1 1 0 2z" transform="translate(-39.34 -85.63)"/></g><g id="_Группа_12" data-name="&lt;Группа&gt;"><path id="_Контур_44" data-name="&lt;Контур&gt;" class="cls-8" d="M163.55 216.83h-8.92a1 1 0 1 1 0-2h8.92a1 1 0 1 1 0 2z" transform="translate(-39.34 -85.63)"/></g><g id="_Группа_13" data-name="&lt;Группа&gt;"><path id="_Контур_45" data-name="&lt;Контур&gt;" class="cls-8" d="M165.28 209.64h-12.39a1 1 0 1 1 0-2h12.39a1 1 0 1 1 0 2z" transform="translate(-39.34 -85.63)"/></g><g id="_Группа_14" data-name="&lt;Группа&gt;" class="cls-9"><path id="_Контур_46" data-name="&lt;Контур&gt;" class="cls-8" d="M176.06 149.31s9.42 8.8 7.43 20.44-9.42 14.62-9.42 14.62 9.93-14.99 1.99-35.06z" transform="translate(-39.34 -85.63)"/></g><g id="_Группа_15" data-name="&lt;Группа&gt;" class="cls-9"><path id="_Контур_47" data-name="&lt;Контур&gt;" class="cls-8" d="M170 201.86s5.6-1.35 6.52-3.28l-2.44 23.62h-3.26z" transform="translate(-39.34 -85.63)"/></g><g id="_Группа_16" data-name="&lt;Группа&gt;" class="cls-9"><path id="_Контур_48" data-name="&lt;Контур&gt;" class="cls-8" d="M170 131.33s5.6 1.35 6.52 3.28L174.08 111h-3.26z" transform="translate(-39.34 -85.63)"/></g></g><path id="_Контур_49" data-name="&lt;Контур&gt;" class="cls-3" d="M85.31 52.15L73.75 20.68"/><path id="_Контур_50" data-name="&lt;Контур&gt;" class="cls-5" d="M152.08 52.15l3.34-8.3"/><path id="_Контур_51" data-name="&lt;Контур&gt;" class="cls-5" d="M68.89 106.51L40.75 80.19"/><path id="_Контур_52" data-name="&lt;Контур&gt;" class="cls-5" d="M96.75 21.02l-5-20.34"/><path id="_Контур_53" data-name="&lt;Контур&gt;" class="cls-5" d="M119.68 19.18l.07-13.5"/><path id="_Контур_54" data-name="&lt;Контур&gt;" class="cls-5" d="M140.97 20.35L148.75.18"/><path id="_Контур_55" data-name="&lt;Контур&gt;" class="cls-5" d="M169.84 227.15s5.58-36.33 33.92-41.17 27 7.5 22.33 11.71c-4.92 4.42-21 5.13-16.67-20.54s38-24.33 38-24.33" transform="translate(-39.34 -85.63)"/><g id="_Группа_17" data-name="&lt;Группа&gt;"><path id="_Контур_56" data-name="&lt;Контур&gt;" class="cls-6" d="M292 275.2s5.78 1 5.78 6.76h11.06s2.68-22.48-4.31-25H292z" transform="translate(-39.34 -85.63)"/><path id="_Прямоугольник_" data-name="&lt;Прямоугольник&gt;" class="cls-3" d="M172.85 163.54h77.39v23.93h-77.39z"/><circle id="_Контур_57" data-name="&lt;Контур&gt;" class="cls-6" cx="252.71" cy="195.84" r="3.96"/><circle id="_Контур_58" data-name="&lt;Контур&gt;" class="cls-3" cx="178.61" cy="194.46" r="5.77"/><circle id="_Контур_59" data-name="&lt;Контур&gt;" class="cls-6" cx="178.61" cy="194.46" r="3.91"/><circle id="_Контур_60" data-name="&lt;Контур&gt;" class="cls-3" cx="191.02" cy="194.46" r="5.77"/><circle id="_Контур_61" data-name="&lt;Контур&gt;" class="cls-6" cx="191.02" cy="194.46" r="3.91"/><circle id="_Контур_62" data-name="&lt;Контур&gt;" class="cls-7" cx="191.02" cy="194.46" r="1.42"/><circle id="_Контур_63" data-name="&lt;Контур&gt;" class="cls-7" cx="178.61" cy="194.46" r="1.42"/><circle id="_Контур_64" data-name="&lt;Контур&gt;" class="cls-3" cx="236.96" cy="194.46" r="5.77"/><circle id="_Контур_65" data-name="&lt;Контур&gt;" class="cls-6" cx="236.96" cy="194.46" r="3.91"/><path id="_Контур_66" data-name="&lt;Контур&gt;" class="cls-10" d="M296 266.82v-8.74s11.14-1.75 11.49 6.29v2.45z" transform="translate(-39.34 -85.63)"/><path id="_Контур_67" data-name="&lt;Контур&gt;" class="cls-6" d="M294 249.17s7.52 3.26 9.67 7.16H296s1.36-4.42-2-7.16z" transform="translate(-39.34 -85.63)"/><circle id="_Контур_68" data-name="&lt;Контур&gt;" class="cls-7" cx="237.02" cy="194.46" r="1.42"/></g><g id="_Группа_18" data-name="&lt;Группа&gt;"><path id="_Прямоугольник_2" data-name="&lt;Прямоугольник&gt;" class="cls-3" d="M228.55 124.6h16.5v16.5h-16.5z"/><path id="_Контур_69" data-name="&lt;Контур&gt;" class="cls-3" d="M228.55 124.6l16.5 16.5"/><path id="_Контур_70" data-name="&lt;Контур&gt;" class="cls-3" d="M228.55 141.1l16.5-16.5"/><path id="_Контур_71" data-name="&lt;Контур&gt;" class="cls-3" d="M274.11 210.24s-19.3-21.06-.25-24.56a20 20 0 0 1 5.06 0c5.88.94 15.44 6.06-.69 24.56" transform="translate(-39.34 -85.63)"/><path id="_Контур_72" data-name="&lt;Контур&gt;" class="cls-3" d="M236.8 124.29V99.88"/><path id="_Контур_73" data-name="&lt;Контур&gt;" class="cls-3" d="M275.74 185.52s-12.62 4.78 0 24.4" transform="translate(-39.34 -85.63)"/><path id="_Контур_74" data-name="&lt;Контур&gt;" class="cls-3" d="M276.61 209.93c12.63-19.62-.25-23.94-.25-23.94" transform="translate(-39.34 -85.63)"/><path id="_Контур_75" data-name="&lt;Контур&gt;" class="cls-3" d="M226.21 109.17h21.52"/><path id="_Контур_76" data-name="&lt;Контур&gt;" class="cls-10" d="M274 186s-8.87 1.14-8.25 8.82h4.11A12.24 12.24 0 0 1 274 186z" transform="translate(-39.34 -85.63)"/><path id="_Контур_77" data-name="&lt;Контур&gt;" class="cls-10" d="M276.36 194.36h5.5s-.5-6.44-5.5-7.81z" transform="translate(-39.34 -85.63)"/></g><path id="_Прямоугольник_3" data-name="&lt;Прямоугольник&gt;" class="cls-1" d="M173.75 180.03h75.05v5.25h-75.05z"/><g id="_Группа_19" data-name="&lt;Группа&gt;"><g id="_Группа_20" data-name="&lt;Группа&gt;"><path id="_Контур_78" data-name="&lt;Контур&gt;" class="cls-3" d="M350.06 115.61c-.9-3.6-19.3-2.09-41.1 3.37s-30.48 10.74-29.57 14.35 11 4.16 32.84-1.3 38.77-12.82 37.83-16.42z" transform="translate(-39.34 -85.63)"/><path id="_Контур_79" data-name="&lt;Контур&gt;" class="cls-3" d="M322.16 129.05s4.71 18.16-4.87 26.85-5.69-5.34-5.69-5.34 2.61-11.45-.51-18.73" transform="translate(-39.34 -85.63)"/><path id="_Контур_80" data-name="&lt;Контур&gt;" class="cls-6" d="M284.88 51.61l2.58-.65 1.71 6.83-4.4 1.1.11-7.28z"/><path id="_Контур_81" data-name="&lt;Контур&gt;" class="cls-3" d="M319 116.47s-4.41-18.24-17-21.38-2.5 7.4-2.5 7.4 7.7 8.87 8.39 16.75" transform="translate(-39.34 -85.63)"/><path id="_Контур_82" data-name="&lt;Контур&gt;" class="cls-6" d="M277.62 22.64l2.57-.64-1.71-6.83-4.4 1.1 3.54 6.37z"/><path id="_Контур_83" data-name="&lt;Контур&gt;" class="cls-3" d="M275.82 132.61s1.48-4.4-6.72-9.44c0 0 9.39-.73 12.71 6" transform="translate(-39.34 -85.63)"/><path id="_Контур_84" data-name="&lt;Контур&gt;" class="cls-3" d="M276.53 135.42s3.38 3.18-1.47 11.49c0 0 8.62-3.78 8.35-11.33" transform="translate(-39.34 -85.63)"/><g id="_Группа_21" data-name="&lt;Группа&gt;"><path id="_Контур_85" data-name="&lt;Контур&gt;" class="cls-6" d="M268.36 135.61a10.31 10.31 0 0 1 1.69-1 19.24 19.24 0 0 1 3.91-1.42 19 19 0 0 1 4.12-.59 10.23 10.23 0 0 1 2 .1 10.23 10.23 0 0 1-1.68 1 19 19 0 0 1-3.91 1.42 19.24 19.24 0 0 1-4.12.59 10.31 10.31 0 0 1-2.01-.1z" transform="translate(-39.34 -85.63)"/></g><path id="_Контур_86" data-name="&lt;Контур&gt;" class="cls-4" d="M327.44 117.33a8.72 8.72 0 0 1 1.86 7.43s5-2.39 4.32-5.27-6.18-2.16-6.18-2.16z" transform="translate(-39.34 -85.63)"/></g><path id="_Контур_87" data-name="&lt;Контур&gt;" class="cls-1" d="M284.87 133.33s21.72-1.23 28.11-4.47c.02 0-13.45 6.73-28.11 4.47z" transform="translate(-39.34 -85.63)"/></g></g><g id="_Группа_22" data-name="&lt;Группа&gt;"><path id="_Контур_88" data-name="&lt;Контур&gt;" class="cls-4" d="M380 149s9.67 11.33 33.67 8.67S447 139.35 447 139.35s-19.67 2-30.67-2.67-35.73-10.07-44.83-4.21c-6.26 4-11.83 11.69-11.17 25.62s1.67 23.45 1.67 23.45 8.67-2.53 8 5.81V190h3s-1.33-19.67 1-24 6-17 6-17z" transform="translate(-39.34 -85.63)"/><path id="_Контур_89" data-name="&lt;Контур&gt;" class="cls-3" d="M398.63 177.68s.33 10.67-2 14.67-2.33 7.33 3.67 8.33" transform="translate(-39.34 -85.63)"/><path id="_Контур_90" data-name="&lt;Контур&gt;" class="cls-3" d="M391.63 205.35s5 6 15.67 0" transform="translate(-39.34 -85.63)"/><path id="_Контур_91" data-name="&lt;Контур&gt;" class="cls-3" d="M355.85 128.71h6.78"/><path id="_Контур_92" data-name="&lt;Контур&gt;" class="cls-4" d="M435 150.51s-.5 23.26-3 29.51c0 0-6.75 1.08-6.75 9.17H423v-33.37s10.8-4.06 12-5.31z" transform="translate(-39.34 -85.63)"/><path id="_Контур_93" data-name="&lt;Контур&gt;" class="cls-3" d="M366.71 85.63l10.5 4.75"/><path id="_Контур_94" data-name="&lt;Контур&gt;" class="cls-3" d="M350.55 85.63l-10.5 4.75"/><circle id="_Контур_95" data-name="&lt;Контур&gt;" class="cls-3" cx="369.96" cy="97.13" r="4"/><circle id="_Контур_96" data-name="&lt;Контур&gt;" class="cls-6" cx="369.96" cy="97.13" r="1.42"/><circle id="_Контур_97" data-name="&lt;Контур&gt;" class="cls-3" cx="347.46" cy="97.13" r="4"/><circle id="_Контур_98" data-name="&lt;Контур&gt;" class="cls-6" cx="347.46" cy="97.13" r="1.42"/><path id="_Контур_99" data-name="&lt;Контур&gt;" class="cls-3" d="M387.46 232s2.18-3.5-2.83-6.5S369 212 368.8 195.85c0 0-5.41 2.67-8.54-4.67s1.7-9.64 1.7-9.64" transform="translate(-39.34 -85.63)"/><path id="_Контур_100" data-name="&lt;Контур&gt;" class="cls-3" d="M361.63 186.76a2.46 2.46 0 0 1 3.17-2.58c3.33.5-.33 3.83 0 5.83" transform="translate(-39.34 -85.63)"/><path id="_Контур_101" data-name="&lt;Контур&gt;" class="cls-3" d="M433.62 186.76a2.46 2.46 0 0 0-3.17-2.58c-3.33.5.33 3.83 0 5.83" transform="translate(-39.34 -85.63)"/><path id="_Контур_102" data-name="&lt;Контур&gt;" class="cls-3" d="M408.63 232a3.17 3.17 0 0 1 .67-4.17c2.17-2 15.83-11.83 18-31.67 0 0 9.5.33 9.33-7.83s-6.83-7-6.83-7" transform="translate(-39.34 -85.63)"/><path id="_Контур_103" data-name="&lt;Контур&gt;" class="cls-1" d="M407.3 235.85v12l-8.72 7.33-8.69-6.83s4.74-3.67 4.08-9.67-.66-7.83-4.08-10.83S371.46 219 371.46 197c0 0 4.18 17 13.17 22.33s17.15 6.33 23.49 3.5 17.43-17.65 16.18-26.83c0 0 1.7 7.91.54 10.76A54.48 54.48 0 0 1 408.12 228" transform="translate(-39.34 -85.63)"/><path id="_Контур_104" data-name="&lt;Контур&gt;" class="cls-11" d="M381 146s27.5 19.25 58.75-2" transform="translate(-39.34 -85.63)"/><path id="_Контур_105" data-name="&lt;Контур&gt;" class="cls-3" d="M389.3 322.68v-46.83s-1.28-14.67 9.28-20.67l8.72-7.33" transform="translate(-39.34 -85.63)"/><circle id="_Контур_106" data-name="&lt;Контур&gt;" class="cls-3" cx="354.63" cy="188.05" r="2.33"/><circle id="_Контур_107" data-name="&lt;Контур&gt;" class="cls-3" cx="354.63" cy="199.63" r="2.33"/><circle id="_Контур_108" data-name="&lt;Контур&gt;" class="cls-3" cx="354.63" cy="210.45" r="2.33"/><path id="_Контур_109" data-name="&lt;Контур&gt;" class="cls-4" d="M373.96 149.38l1.33 18.83-7.33-6 1.33-15.83 4.67 3z"/><path id="_Контур_110" data-name="&lt;Контур&gt;" class="cls-4" d="M342.88 149.38l-1.34 18.83 7.34-6-1.34-15.83-4.66 3z"/><path id="_Контур_111" data-name="&lt;Контур&gt;" class="cls-3" d="M413.3 235s19.17-1.67 25.5 11.5 8.33 28.67 8.17 45.17 1.45 15.59-6.55 21.25" transform="translate(-39.34 -85.63)"/><path id="_Контур_112" data-name="&lt;Контур&gt;" class="cls-3" d="M391.46 185.71v51.33h-77.67v-5.26"/><path id="_Контур_113" data-name="&lt;Контур&gt;" class="cls-3" d="M357.81 170.47l-8.93-8.26"/><path id="_Контур_114" data-name="&lt;Контур&gt;" class="cls-3" d="M437.42 294.26s9.64 2.52 9.63 10-9.63 9.74-9.63 9.74-8.62-1.25-10.25.88-8 2.38-11.87 2.38-15.95.11-16.2-3 .95-2.36 1.53-2.77-3.08-1.75-3-3.92 2.92-2.58 2.92-2.58-3.47-1.33-3.4-4.25 3.4-2.75 3.4-2.75-2.75-.69-2.83-4.26 8.58-3.32 14.58-2.82c0 0 1.25-1.58-2.83-5s-5.17-8.42-3.67-10.67 6.75-2.58 8.83 3.42a10 10 0 0 0 8.08 6.58s4.67 1.92 4.25 9.17z" transform="translate(-39.34 -85.63)"/><g id="_Группа_23" data-name="&lt;Группа&gt;"><g id="_Группа_24" data-name="&lt;Группа&gt;"><path id="_Контур_115" data-name="&lt;Контур&gt;" class="cls-7" d="M396.82 213.13h-7.09l.36-5.02h6.37l.36 5.02z"/><path id="_Составной_контур_6" data-name="&lt;Составной контур&gt;" class="cls-8" d="M436.25 298.85H429l.37-5.2h6.54zm-7.08-.18h6.89l-.34-4.84h-6.21z" transform="translate(-39.34 -85.63)"/></g><g id="_Группа_25" data-name="&lt;Группа&gt;"><path id="_Контур_116" data-name="&lt;Контур&gt;" class="cls-7" d="M396.82 223.54h-7.09l.36 5.02h6.37l.36-5.02z"/><path id="_Составной_контур_7" data-name="&lt;Составной контур&gt;" class="cls-8" d="M435.88 314.29h-6.54l-.37-5.2h7.27zm-6.37-.18h6.21l.34-4.84h-6.89z" transform="translate(-39.34 -85.63)"/></g><g id="_Группа_26" data-name="&lt;Группа&gt;"><circle id="_Контур_117" data-name="&lt;Контур&gt;" class="cls-7" cx="393.29" cy="218.35" r="6.26"/><path id="_Составной_контур_8" data-name="&lt;Составной контур&gt;" class="cls-8" d="M432.62 310.34A6.35 6.35 0 1 1 439 304a6.36 6.36 0 0 1-6.38 6.34zm0-12.53a6.18 6.18 0 1 0 6.18 6.19 6.18 6.18 0 0 0-6.18-6.19z" transform="translate(-39.34 -85.63)"/></g><g id="_Группа_27" data-name="&lt;Группа&gt;"><circle id="_Контур_118" data-name="&lt;Контур&gt;" class="cls-7" cx="393.29" cy="218.35" r="4.93"/><path id="_Составной_контур_9" data-name="&lt;Составной контур&gt;" class="cls-8" d="M432.62 309a5 5 0 1 1 5-5 5 5 0 0 1-5 5zm0-9.86a4.84 4.84 0 1 0 4.84 4.84 4.85 4.85 0 0 0-4.84-4.84z" transform="translate(-39.34 -85.63)"/></g><g id="_Группа_28" data-name="&lt;Группа&gt;"><circle id="_Контур_119" data-name="&lt;Контур&gt;" class="cls-7" cx="393.29" cy="218.35" r=".8"/><path id="_Составной_контур_10" data-name="&lt;Составной контур&gt;" class="cls-8" d="M432.62 304.87a.89.89 0 1 1 .89-.89.89.89 0 0 1-.89.89zm0-1.6a.71.71 0 1 0 .71.71.71.71 0 0 0-.71-.71z" transform="translate(-39.34 -85.63)"/></g><g id="_Группа_29" data-name="&lt;Группа&gt;"><path id="_Контур_120" data-name="&lt;Контур&gt;" class="cls-8" d="M393.11 214.53h.36v3.02h-.36z"/></g><g id="_Группа_30" data-name="&lt;Группа&gt;"><path id="_Контур_121" data-name="&lt;Контур&gt;" class="cls-8" d="M434.62 305.51a.18.18 0 0 1-.1 0l-1.2-.84a.18.18 0 0 1 .2-.29l1.2.84a.18.18 0 0 1-.1.32z" transform="translate(-39.34 -85.63)"/></g><g id="_Группа_31" data-name="&lt;Группа&gt;"><path id="_Контур_122" data-name="&lt;Контур&gt;" class="cls-8" d="M433.42 295.36h-1.6a.18.18 0 0 1 0-.36h1.6a.18.18 0 1 1 0 .36z" transform="translate(-39.34 -85.63)"/></g><g id="_Группа_32" data-name="&lt;Группа&gt;"><path id="_Контур_123" data-name="&lt;Контур&gt;" class="cls-8" d="M433.74 296.65h-2.22a.18.18 0 0 1 0-.36h2.22a.18.18 0 0 1 0 .36z" transform="translate(-39.34 -85.63)"/></g><g id="_Группа_33" data-name="&lt;Группа&gt;"><path id="_Контур_124" data-name="&lt;Контур&gt;" class="cls-8" d="M433.42 312.93h-1.6a.18.18 0 0 1 0-.36h1.6a.18.18 0 1 1 0 .36z" transform="translate(-39.34 -85.63)"/></g><g id="_Группа_34" data-name="&lt;Группа&gt;"><path id="_Контур_125" data-name="&lt;Контур&gt;" class="cls-8" d="M433.74 311.64h-2.22a.18.18 0 0 1 0-.36h2.22a.18.18 0 0 1 0 .36z" transform="translate(-39.34 -85.63)"/></g><g id="_Группа_35" data-name="&lt;Группа&gt;" class="cls-9"><path id="_Контур_126" data-name="&lt;Контур&gt;" class="cls-8" d="M435.67 300.83a4.48 4.48 0 0 1 1.33 3.67 3.28 3.28 0 0 1-1.69 2.62 7.15 7.15 0 0 0 .36-6.29z" transform="translate(-39.34 -85.63)"/></g><g id="_Группа_36" data-name="&lt;Группа&gt;" class="cls-9"><path id="_Контур_127" data-name="&lt;Контур&gt;" class="cls-8" d="M434.58 310.25s1-.24 1.17-.59l-.44 4.24h-.58z" transform="translate(-39.34 -85.63)"/></g><g id="_Группа_37" data-name="&lt;Группа&gt;" class="cls-9"><path id="_Контур_128" data-name="&lt;Контур&gt;" class="cls-8" d="M434.58 297.6s1 .24 1.17.59l-.44-4.24h-.58z" transform="translate(-39.34 -85.63)"/></g></g><path id="_Контур_129" data-name="&lt;Контур&gt;" class="cls-3" d="M382.21 235s-11.92-2.67-19.08 4.17-10 17.67-10 17.67" transform="translate(-39.34 -85.63)"/><path id="_Прямоугольник_4" data-name="&lt;Прямоугольник&gt;" class="cls-3" d="M288.71 171.21h48.63v60.57h-48.63z"/><path id="_Контур_130" data-name="&lt;Контур&gt;" class="cls-2" d="M328 274.48s-7.5 4.7-5 11.53l.83 2.5s-3 1.67-2.83 4a3.72 3.72 0 0 0 2.5 3.08s-.84 5.4 1 6.33c0 0-.33 7.73 4.17 8.58s13.17.36 13.17.36 5.67-1.68 3-5.51c0 0 3-1.36 3.17-4.18a4.74 4.74 0 0 0-1.83-4.15 4.56 4.56 0 0 0 2.67-4.27 4.38 4.38 0 0 0-3-3.89s3-1.5 3-4.33-2.34-4.17-4.17-4.67-17-.33-17-.33z" transform="translate(-39.34 -85.63)"/><path id="_Контур_131" data-name="&lt;Контур&gt;" class="cls-3" d="M307.34 203.5h-12.75"/><path id="_Контур_132" data-name="&lt;Контур&gt;" class="cls-3" d="M307.34 211.29h-12.75"/><path id="_Контур_133" data-name="&lt;Контур&gt;" class="cls-3" d="M305.46 219.71h-10.87"/><circle id="_Контур_134" data-name="&lt;Контур&gt;" class="cls-3" cx="304.09" cy="181.25" r="3.5"/><circle id="_Контур_135" data-name="&lt;Контур&gt;" class="cls-3" cx="324.84" cy="181.25" r="3.5"/><path id="_Контур_136" data-name="&lt;Контур&gt;" class="cls-3" d="M343.42 266.26v-21.5s-.12-11.5 8.94-11.62 11.44 7 11.69 11 0 22.75 0 22.75" transform="translate(-39.34 -85.63)"/></g><path id="_Контур_137" data-name="&lt;Контур&gt;" class="cls-1" d="M402.57 312.58s13.33 3 22.67.36c0-.01-9.39 6.92-22.67-.36z" transform="translate(-39.34 -85.63)"/><path id="_Контур_138" data-name="&lt;Контур&gt;" class="cls-5" d="M288.09 171.87H321s15.95-.72 15.95 7.94c0 7.2-12.76 6.29-17.9 5.83-9.77-.87-12.1 12 2 12h32.17" transform="translate(-39.34 -85.63)"/></svg>