<svg xmlns="http://www.w3.org/2000/svg" viewBox="0 0 366.59 325.44"><defs><style>.cls-1{isolation:isolate}.cls-10,.cls-17,.cls-2,.cls-5,.cls-7{fill:none}.cls-10,.cls-11,.cls-15,.cls-17,.cls-2,.cls-5,.cls-6,.cls-7,.cls-9{stroke:#48658e}.cls-10,.cls-11,.cls-15,.cls-16,.cls-17,.cls-2,.cls-5,.cls-6,.cls-7,.cls-9{stroke-miterlimit:10}.cls-3{fill:#48658e}.cls-11,.cls-15,.cls-16,.cls-4{fill:#fff}.cls-15,.cls-5,.cls-7{stroke-linecap:round}.cls-5{stroke-width:2px}.cls-6{fill:#86c3e6}.cls-8{fill:#e0dee6}.cls-12,.cls-9{fill:#ffcf6e}.cls-10{stroke-dasharray:4.04 2.02}.cls-13{opacity:.8}.cls-14{fill:#d6d6d6;mix-blend-mode:multiply}.cls-16{stroke:#ffcf6e}.cls-17{stroke-dasharray:3.96 1.98}</style></defs><title>step-1</title><g class="cls-1"><g id="Layer_1" data-name="Layer 1"><path id="_Контур_" data-name="&lt;Контур&gt;" class="cls-2" d="M262.11 99.29a2.67 2.67 0 0 1 .68 3.31 7.8 7.8 0 0 1-2.48 2.68l-3.2 2.51c-2 1.54-4 3.17-5 5.44a7.12 7.12 0 0 0 .88 7.27 6.1 6.1 0 0 0 7 1.75" transform="translate(-79.62 -33.95)"/><circle id="_Контур_2" data-name="&lt;Контур&gt;" class="cls-3" cx="171.89" cy="65.34" r="2.83"/><circle id="_Контур_3" data-name="&lt;Контур&gt;" class="cls-4" cx="171.89" cy="64.34" r="1.42"/><circle id="_Контур_4" data-name="&lt;Контур&gt;" class="cls-3" cx="195.49" cy="69.16" r="2.83"/><path id="_Контур_5" data-name="&lt;Контур&gt;" class="cls-2" d="M249.57 129.31a2.82 2.82 0 0 0 2.25 2.53 23.72 23.72 0 0 0 3.63.36 8.42 8.42 0 0 1 5 2.52" transform="translate(-79.62 -33.95)"/><path id="_Контур_6" data-name="&lt;Контур&gt;" class="cls-5" d="M252.09 137.69a14.17 14.17 0 0 1 4.75.19" transform="translate(-79.62 -33.95)"/><path id="_Контур_7" data-name="&lt;Контур&gt;" class="cls-5" d="M167.36 59.11h8.05"/><path id="_Контур_8" data-name="&lt;Контур&gt;" class="cls-5" d="M191.46 62.48h8.05"/><circle id="_Контур_9" data-name="&lt;Контур&gt;" class="cls-4" cx="195.49" cy="68.17" r="1.42"/><path id="_Контур_10" data-name="&lt;Контур&gt;" class="cls-6" d="M286.48 91.06s-3.5 20 9.88 19.94 3.88-30.44 0-35.81-16.67-18.86-36.76-10.76c-18.08 7.29 2.75 25 26.88 26.63z" transform="translate(-79.62 -33.95)"/><path id="_Контур_11" data-name="&lt;Контур&gt;" class="cls-7" d="M268.73 75.06s4.63 9.88 18.69 7.5c0 0 3.44-.81 4.5-3.31" transform="translate(-79.62 -33.95)"/><path id="_Контур_12" data-name="&lt;Контур&gt;" class="cls-7" d="M277.1 75.06s1.31 6.44 10.31 7.5" transform="translate(-79.62 -33.95)"/><path id="_Контур_13" data-name="&lt;Контур&gt;" class="cls-2" d="M275.73 177.68v-8.87s.77-10.57 7-15.17c8.42-6.25 15-23.62 15-23.62s7.13.16 7.25-9.34-6.62-9.69-6.62-9.69" transform="translate(-79.62 -33.95)"/><path id="_Контур_14" data-name="&lt;Контур&gt;" class="cls-7" d="M295.1 116.22s4.75-.33 5 3.58-3.67 3.75-3.67 3.75" transform="translate(-79.62 -33.95)"/><path id="_Контур_15" data-name="&lt;Контур&gt;" class="cls-2" d="M234.35 98.64s-5.85 21.27.33 37.58c5.5 14.5 11.75 17.58 15.25 19.67 4.56 2.71 4.64 2 4.4 21.75" transform="translate(-79.62 -33.95)"/><path id="_Контур_16" data-name="&lt;Контур&gt;" class="cls-8" d="M250.09 152.56s27.64 6 36.89-15.5c0 0 2.25-5.87 2.38-7.75 0 0 .42 17.5-11.42 25.37s-5.67 23-5.67 23l-6 5 .13-24s-12.83-1.62-16.31-6.12z" transform="translate(-79.62 -33.95)"/><path id="_Контур_17" data-name="&lt;Контур&gt;" class="cls-6" d="M184.57 154.69l-10.42-11.33-9.66 5.66 5.98 19.46 14.1-13.79z"/><path id="_Контур_18" data-name="&lt;Контур&gt;" class="cls-6" d="M185.49 154.69l10.41-11.33 9.67 5.66-5.98 19.46-14.1-13.79z"/><path id="_Контур_19" data-name="&lt;Контур&gt;" class="cls-9" d="M269.91 195.43a52.72 52.72 0 0 0-5.21-5.31v-.25l-.14.13-.14-.13v.25a52.72 52.72 0 0 0-5.21 5.31c-2.37 2.88 1.38 9.5 1.38 9.5h8s3.7-6.62 1.32-9.5z" transform="translate(-79.62 -33.95)"/><path id="_Контур_20" data-name="&lt;Контур&gt;" class="cls-9" d="M264.56 235.44a41.25 41.25 0 0 1 5-11.88c3.63-5.37-1.06-17.5-1.06-17.5h-8.12s-4.69 12.13-1.06 17.5a41.25 41.25 0 0 1 5 11.88l.08.49z" transform="translate(-79.62 -33.95)"/><path id="_Контур_21" data-name="&lt;Контур&gt;" class="cls-2" d="M82.1 177.31s15.67 36.58 36.67 49.92 36.67 13.67 53 13.67 32.33 8 35 26.67 5 91.33 5 91.33h113.67v-17.68" transform="translate(-79.62 -33.95)"/><path id="_Контур_22" data-name="&lt;Контур&gt;" class="cls-2" d="M128.6 161.22a45.44 45.44 0 0 1-21.17 12.83c-13.67 3.83-22.33 4.33-25.33 3s-.83-11.67 11-16.83 23.33-9.33 31.17-7.33 4.33 8.33 4.33 8.33z" transform="translate(-79.62 -33.95)"/><g id="_Группа_" data-name="&lt;Группа&gt;"><circle id="_Контур_23" data-name="&lt;Контур&gt;" class="cls-10" cx="68.03" cy="68.17" r="48.18"/></g><path id="_Контур_24" data-name="&lt;Контур&gt;" class="cls-11" d="M90.48 96.31c1-.87 2.75.38 2.75.38s12.62 10.5 16.87 4.87-5.12-12.25-11-15.5-13.87-.87-18.21 5.5 10.84 30.62 14.34 36.5 3.88 15 3.88 15v32.88s17.87-3.5 22.5-8.5v-28.26s-1.25-8.25 5.88-12.87 9.63-18 7.63-25.75-4.62-7.37-3.75-12.62 3.63-15.37-4-20.37-9 10.5-9 10.5v14.24" transform="translate(-79.62 -33.95)"/><path id="_Контур_25" data-name="&lt;Контур&gt;" class="cls-8" d="M94.94 120.39s9.5 9 9.33 26.83-.69 27-.69 27l-3.47.9s4-29.4.83-37-1.84-10.23-6-17.73z" transform="translate(-79.62 -33.95)"/><g id="_Группа_2" data-name="&lt;Группа&gt;"><g id="_Группа_3" data-name="&lt;Группа&gt;"><path id="_Контур_26" data-name="&lt;Контур&gt;" class="cls-4" d="M49.06 13.44l-18.65.15.83-13.22L48.02.24l1.04 13.2z"/><path id="_Составной_контур_" data-name="&lt;Составной контур&gt;" class="cls-12" d="M128.93 47.63l-19.15.15.86-13.69 17.22-.14zm-18.66-.32l18.15-.14-1-12.74-16.34.13z" transform="translate(-79.62 -33.95)"/></g><g id="_Группа_4" data-name="&lt;Группа&gt;"><path id="_Контур_27" data-name="&lt;Контур&gt;" class="cls-4" d="M49.28 40.88l-18.65.15 1.04 13.21 16.78-.14.83-13.22z"/><path id="_Составной_контур_2" data-name="&lt;Составной контур&gt;" class="cls-12" d="M128.29 88.29l-17.22.14L110 74.75l19.15-.15zM111.5 88l16.34-.13.8-12.76-18.15.14z" transform="translate(-79.62 -33.95)"/></g><g id="_Группа_5" data-name="&lt;Группа&gt;"><circle id="_Контур_28" data-name="&lt;Контур&gt;" class="cls-4" cx="119.49" cy="61.22" r="16.5" transform="rotate(-.46 -4150.377 9960.385)"/><path id="_Составной_контур_3" data-name="&lt;Составной контур&gt;" class="cls-12" d="M119.63 78a16.73 16.73 0 1 1 16.6-16.86A16.75 16.75 0 0 1 119.63 78zm-.26-33a16.26 16.26 0 1 0 16.39 16.13A16.28 16.28 0 0 0 119.36 45z" transform="translate(-79.62 -33.95)"/></g><g id="_Группа_6" data-name="&lt;Группа&gt;"><circle id="_Контур_29" data-name="&lt;Контур&gt;" class="cls-4" cx="119.49" cy="61.22" r="12.99" transform="rotate(-.46 -4150.377 9960.385)"/><path id="_Составной_контур_4" data-name="&lt;Составной контур&gt;" class="cls-12" d="M119.6 74.44a13.22 13.22 0 1 1 13.11-13.32 13.23 13.23 0 0 1-13.11 13.32zm-.21-26a12.75 12.75 0 1 0 12.85 12.65 12.77 12.77 0 0 0-12.85-12.62z" transform="translate(-79.62 -33.95)"/></g><g id="_Группа_7" data-name="&lt;Группа&gt;"><circle id="_Контур_30" data-name="&lt;Контур&gt;" class="cls-4" cx="119.49" cy="61.22" r="2.11" transform="rotate(-.46 -4150.377 9960.385)"/><path id="_Составной_контур_5" data-name="&lt;Составной контур&gt;" class="cls-12" d="M119.51 63.56a2.34 2.34 0 1 1 2.32-2.36 2.34 2.34 0 0 1-2.32 2.36zm0-4.21a1.87 1.87 0 1 0 1.89 1.86 1.87 1.87 0 0 0-1.92-1.86z" transform="translate(-79.62 -33.95)"/></g><g id="_Группа_8" data-name="&lt;Группа&gt;"><path id="_Контур_31" data-name="&lt;Контур&gt;" class="cls-12" transform="rotate(-.46 -4150.352 9954.158)" d="M118.98 51.16h.94v7.96h-.94z"/></g><g id="_Группа_9" data-name="&lt;Группа&gt;"><path id="_Контур_32" data-name="&lt;Контур&gt;" class="cls-12" d="M124.79 65.21a.46.46 0 0 1-.27-.08l-3.18-2.2a.47.47 0 0 1 .53-.77l3.18 2.2a.47.47 0 0 1-.26.85z" transform="translate(-79.62 -33.95)"/></g><g id="_Группа_10" data-name="&lt;Группа&gt;"><path id="_Контур_33" data-name="&lt;Контур&gt;" class="cls-12" d="M121.42 38.5h-4.21a.47.47 0 0 1 0-.94h4.21a.47.47 0 1 1 0 .94z" transform="translate(-79.62 -33.95)"/></g><g id="_Группа_11" data-name="&lt;Группа&gt;"><path id="_Контур_34" data-name="&lt;Контур&gt;" class="cls-12" d="M122.26 41.89h-5.85a.47.47 0 0 1 0-.94h5.85a.47.47 0 0 1 0 .94z" transform="translate(-79.62 -33.95)"/></g><g id="_Группа_12" data-name="&lt;Группа&gt;"><path id="_Контур_35" data-name="&lt;Контур&gt;" class="cls-12" d="M121.79 84.77h-4.21a.47.47 0 0 1 0-.94h4.21a.47.47 0 0 1 0 .94z" transform="translate(-79.62 -33.95)"/></g><g id="_Группа_13" data-name="&lt;Группа&gt;"><path id="_Контур_36" data-name="&lt;Контур&gt;" class="cls-12" d="M122.58 81.37h-5.85a.47.47 0 0 1 0-.94h5.85a.47.47 0 0 1 0 .94z" transform="translate(-79.62 -33.95)"/></g><g id="_Группа_14" data-name="&lt;Группа&gt;" class="cls-13"><path id="_Контур_37" data-name="&lt;Контур&gt;" class="cls-12" d="M127.44 52.85s4.48 4.15 3.56 9.62-4.39 6.94-4.39 6.94a18.82 18.82 0 0 0 .83-16.56z" transform="translate(-79.62 -33.95)"/></g><g id="_Группа_15" data-name="&lt;Группа&gt;" class="cls-13"><path id="_Контур_38" data-name="&lt;Контур&gt;" class="cls-12" d="M124.77 77.68s2.64-.66 3.07-1.57l-1.06 11.16h-1.54z" transform="translate(-79.62 -33.95)"/></g><g id="_Группа_16" data-name="&lt;Группа&gt;" class="cls-13"><path id="_Контур_39" data-name="&lt;Контур&gt;" class="cls-12" d="M124.51 44.38s2.65.62 3.09 1.52l-1.24-11.14h-1.54z" transform="translate(-79.62 -33.95)"/></g></g><g id="_Группа_17" data-name="&lt;Группа&gt;"><circle id="_Контур_40" data-name="&lt;Контур&gt;" class="cls-4" cx="211.74" cy="164.85" r="18.21" transform="translate(-80.92 -32.26)"/><path id="_Составной_контур_6" data-name="&lt;Составной контур&gt;" class="cls-12" d="M211.89 183.32a18.47 18.47 0 1 1 18.33-18.62 18.49 18.49 0 0 1-18.33 18.62zm-.29-36.43a18 18 0 1 0 18.1 17.81 18 18 0 0 0-18.1-17.8z" transform="translate(-79.62 -33.95)"/></g><g id="_Группа_18" data-name="&lt;Группа&gt;"><circle id="_Контур_41" data-name="&lt;Контур&gt;" class="cls-4" cx="211.74" cy="164.85" r="14.34" transform="rotate(-.46 -4058.616 10062.89)"/><path id="_Составной_контур_7" data-name="&lt;Составной контур&gt;" class="cls-12" d="M211.86 179.45a14.6 14.6 0 1 1 14.48-14.71 14.61 14.61 0 0 1-14.48 14.71zm-.23-28.68a14.08 14.08 0 1 0 14.19 14 14.1 14.1 0 0 0-14.19-14z" transform="translate(-79.62 -33.95)"/></g><g id="_Группа_19" data-name="&lt;Группа&gt;"><circle id="_Контур_42" data-name="&lt;Контур&gt;" class="cls-4" cx="211.74" cy="164.85" r="2.33" transform="rotate(-.46 -4058.616 10062.89)"/><path id="_Составной_контур_8" data-name="&lt;Составной контур&gt;" class="cls-12" d="M211.76 167.44a2.58 2.58 0 1 1 2.56-2.6 2.59 2.59 0 0 1-2.56 2.6zm0-4.65a2.07 2.07 0 1 0 2.08 2.05 2.07 2.07 0 0 0-2.11-2.05z" transform="translate(-79.62 -33.95)"/></g><g id="_Группа_20" data-name="&lt;Группа&gt;"><path id="_Контур_43" data-name="&lt;Контур&gt;" class="cls-12" transform="rotate(-.46 -4058.591 10056.663)" d="M211.17 153.74h1.03v8.79h-1.03z"/></g><g id="_Группа_21" data-name="&lt;Группа&gt;"><path id="_Контур_44" data-name="&lt;Контур&gt;" class="cls-12" d="M217.59 169.25a.51.51 0 0 1-.3-.09l-3.51-2.43a.52.52 0 0 1 .59-.85l3.51 2.43a.52.52 0 0 1-.29.94z" transform="translate(-79.62 -33.95)"/></g><g id="_Группа_22" data-name="&lt;Группа&gt;" class="cls-13"><path id="_Контур_45" data-name="&lt;Контур&gt;" class="cls-12" d="M220.52 155.6s4.95 4.55 4 10.63-4.85 7.66-4.85 7.66a20.78 20.78 0 0 0 .85-18.29z" transform="translate(-79.62 -33.95)"/></g><path id="_Контур_46" data-name="&lt;Контур&gt;" class="cls-11" d="M91.57 77.05S88 64.64 103 60.89s12.83 7 12.83 7-11.08 3.5-10.67 8.67" transform="translate(-79.62 -33.95)"/><path id="_Контур_47" data-name="&lt;Контур&gt;" class="cls-8" d="M111.77 97.85s5.63 1.46 6.71-2.37.29-4.33.29-4.33-1.63 6.7-7 6.7z" transform="translate(-79.62 -33.95)"/><path id="_Контур_48" data-name="&lt;Контур&gt;" class="cls-11" d="M111.17 97.06s4.8 1.13 6.55-2.62-.79-9.21-3.28-11.25c-2.19-1.8-9.6-9.62-21.22-6.62s-9.5 11.81-9.5 11.81 6.57-6.29 14.06-2.93 13.39 11.61 13.39 11.61z" transform="translate(-79.62 -33.95)"/><path id="_Контур_49" data-name="&lt;Контур&gt;" class="cls-2" d="M321.6 341.56s17.75 1.25 21.25-18.75 3.5-88.75-7.75-106.5-39.33-33.42-49.91-33.31" transform="translate(-79.62 -33.95)"/><path id="_Контур_50" data-name="&lt;Контур&gt;" class="cls-2" d="M296.66 186.31v25.5l-10.94.63 12.86 13.13-34 39.63s3.87-47.13 14.1-62l6-20.21" transform="translate(-79.62 -33.95)"/><path id="_Контур_51" data-name="&lt;Контур&gt;" class="cls-2" d="M232.15 188.31v23.5l10.94.63-12.86 13.13 34 39.63s-3.87-47.13-14.1-62l-6-20.21s-31 13.25-42.33 21.46-32 6.46-49.33-3.54-23-42.67-23-42.67" transform="translate(-79.62 -33.95)"/><path id="_Контур_52" data-name="&lt;Контур&gt;" class="cls-8" d="M310.94 358.22L226.1 315.8l85.53 11.39s-2 16.54 10 14.37l3.83-.33v17z" transform="translate(-79.62 -33.95)"/><path id="_Контур_53" data-name="&lt;Контур&gt;" class="cls-11" d="M146.49 281.85l24.87-79.87 66.38 19.63-26.13 81.62-65.12-21.38z"/><path id="_Контур_54" data-name="&lt;Контур&gt;" class="cls-8" d="M322.73 273.93s5.75 20.76 5.75 34.88c0 0-4.91-.66-8 2-.05.03 5.52-26.13 2.25-36.88z" transform="translate(-79.62 -33.95)"/><path id="_Контур_55" data-name="&lt;Контур&gt;" class="cls-2" d="M319.35 311.56s11.5-8.75 14 5-5.75 22-5.75 22-9 8.75-14.5-1.75 6.25-25.25 6.25-25.25z" transform="translate(-79.62 -33.95)"/><path id="_Контур_56" data-name="&lt;Контур&gt;" class="cls-11" d="M235.43 213.11l-1.25 7.45-62.82-18.58 64.07 11.13z"/><path id="_Контур_57" data-name="&lt;Контур&gt;" class="cls-8" d="M178.74 236.61l4.75-14.09 33.66 11.63-5.16 14.96-33.25-12.5z"/><path id="_Контур_58" data-name="&lt;Контур&gt;" class="cls-14" d="M294.94 327.39s4.08 2.42 7.33 2 4.92-1.79 7.08-1l2.16.81.12-2-16.7-1.59z" transform="translate(-79.62 -33.95)"/><path id="_Контур_59" data-name="&lt;Контур&gt;" class="cls-15" d="M281.56 306.65s-6.21-2.22-4.75-7.09c1.31-4.38 15.07-1.15 15-1.17s11.5 4.74 12.5-1.38 1.67-10.79 5.33-10.79 4.83 8 4.33 15.17S313.81 314 322 315s11.25.73 11.25.73 2 12.43-2.46 17.3c0 0-19.33-7.5-24.67-6.17s-19.05-2.71-23.17-4.5c-3.92-1.71-5.77-2.86-5.17-5.67.49-2.29 10.17-1.83 13.5-1" transform="translate(-79.62 -33.95)"/><path id="_Контур_60" data-name="&lt;Контур&gt;" class="cls-7" d="M280.27 315s-5.42-1.53-4.17-6.22c1.11-4.16 16-.92 16-.92" transform="translate(-79.62 -33.95)"/><path id="_Контур_61" data-name="&lt;Контур&gt;" class="cls-6" d="M234.35 98.64S232.2 77 239.94 73c7-3.67 11-1 11.57 0s1.93 8-6.23 14.25-10.93 11.39-10.93 11.39z" transform="translate(-79.62 -33.95)"/><path id="_Контур_62" data-name="&lt;Контур&gt;" class="cls-7" d="M238.94 80.22s4.08-6.17 8-5.17" transform="translate(-79.62 -33.95)"/><path id="_Контур_63" data-name="&lt;Контур&gt;" class="cls-7" d="M243.42 82.56s3-1.75 3.56-4.75" transform="translate(-79.62 -33.95)"/><path id="_Контур_64" data-name="&lt;Контур&gt;" class="cls-8" d="M313.48 328.81s3.17 12.38 12 7.38c0 0-3.83 5.63-8.08 3.13s-3.92-10.51-3.92-10.51z" transform="translate(-79.62 -33.95)"/><path id="_Контур_65" data-name="&lt;Контур&gt;" class="cls-8" d="M125.27 226.06s12.5 8.67 23.83 8.33 42.5-3.18 50.33 10.83c0 0-23.61-9.27-38.83-6.66-15.6 2.66-35.33-12.5-35.33-12.5z" transform="translate(-79.62 -33.95)"/><path id="_Контур_66" data-name="&lt;Контур&gt;" class="cls-8" d="M93.27 162.89s-13.67 8.83-7.83 12.17a10.67 10.67 0 0 0 10.83 0s-10.06.13-9.33-3.83 6.33-8.34 6.33-8.34z" transform="translate(-79.62 -33.95)"/><path id="_Контур_68" data-name="&lt;Контур&gt;" class="cls-8" d="M90.85 96.77s2.46.92 3.33 2.25 5 4.42 7.75 4.75 5.08.67 6.25-.17a9.14 9.14 0 0 1-5.43-1.16 18.66 18.66 0 0 1-5.64-2.94c-5.59-4.15-6.26-2.73-6.26-2.73z" transform="translate(-79.62 -33.95)"/><path id="_Контур_69" data-name="&lt;Контур&gt;" class="cls-8" d="M235.6 116.22s-.09 24.46 9.59 30.72c.01-.01-13.84-4.94-9.59-30.72z" transform="translate(-79.62 -33.95)"/><path id="_Контур_70" data-name="&lt;Контур&gt;" class="cls-8" d="M297.6 325s4.32.06 6.78-.19c2.84-.28 17.53.59 26.66 5 0 0-.09 1.73-.72 2.19a155 155 0 0 0-17.62-5.34 99.44 99.44 0 0 0-15.1-1.66z" transform="translate(-79.62 -33.95)"/><circle id="_Контур_71" data-name="&lt;Контур&gt;" class="cls-16" cx="84.49" cy="250.27" r="22.33"/><circle id="_Контур_72" data-name="&lt;Контур&gt;" class="cls-16" cx="84.49" cy="250.27" r="16.46"/><rect id="_Прямоугольник_" data-name="&lt;Прямоугольник&gt;" class="cls-12" x="170.4" y="303.69" width="11.13" height="4.96" rx="2.48" ry="2.48" transform="rotate(-27.21 65.997 453.651)"/><rect id="_Прямоугольник_2" data-name="&lt;Прямоугольник&gt;" class="cls-16" x="177.41" y="306.36" width="11.13" height="24.38" rx="5.56" ry="5.56" transform="rotate(-27.21 73.014 466.044)"/><path id="_Контур_73" data-name="&lt;Контур&gt;" class="cls-12" d="M165.94 271.56s12.26 0 12.67 14.67c-.01-.01-4.12-12.31-12.67-14.67z" transform="translate(-79.62 -33.95)"/><path id="_Контур_74" data-name="&lt;Контур&gt;" class="cls-2" d="M94.77 207.01v17.1"/><path id="_Контур_75" data-name="&lt;Контур&gt;" class="cls-3" d="M94.77 226.56l1.42-2.45 1.41-2.46h-5.67l1.42 2.46 1.42 2.45z"/><path id="_Контур_76" data-name="&lt;Контур&gt;" class="cls-3" d="M110.53 130.76l-2.46-1.41-2.45-1.42v5.67l2.45-1.42 2.46-1.42z"/><path id="_Контур_77" data-name="&lt;Контур&gt;" class="cls-2" d="M174.38 208.88v-31.57s-.28-12.37 10.47-12.56" transform="translate(-79.62 -33.95)"/><g id="_Группа_23" data-name="&lt;Группа&gt;"><path id="_Контур_78" data-name="&lt;Контур&gt;" class="cls-3" d="M250.62 73.5l-2.46-1.42-2.45-1.41v5.67l2.45-1.42 2.46-1.42z"/><path id="_Контур_79" data-name="&lt;Контур&gt;" class="cls-3" d="M281.78 192.11l-2.45-1.42-2.46-1.42v5.67l2.46-1.41 2.45-1.42z"/><path id="_Контур_80" data-name="&lt;Контур&gt;" class="cls-2" d="M314.47 158.62V120s-.28-12.37 10.47-12.56" transform="translate(-79.62 -33.95)"/></g><g id="_Группа_24" data-name="&lt;Группа&gt;"><g id="_Группа_25" data-name="&lt;Группа&gt;"><g id="_Группа_26" data-name="&lt;Группа&gt;"><circle id="_Контур_81" data-name="&lt;Контур&gt;" class="cls-4" cx="380.12" cy="51.79" r="6.99" transform="rotate(-89.54 323.212 74.93)"/><path id="_Составной_контур_9" data-name="&lt;Составной контур&gt;" class="cls-12" d="M373 51.73a7.09 7.09 0 1 1 7 7.14 7.09 7.09 0 0 1-7-7.14zm.2 0a6.89 6.89 0 1 0 6.94-6.83 6.9 6.9 0 0 0-6.91 6.83z" transform="translate(-79.62 -33.95)"/></g><g id="_Группа_27" data-name="&lt;Группа&gt;"><circle id="_Контур_82" data-name="&lt;Контур&gt;" class="cls-4" cx="380.12" cy="51.79" r="5.5" transform="rotate(-89.54 323.212 74.93)"/><path id="_Составной_контур_10" data-name="&lt;Составной контур&gt;" class="cls-12" d="M374.52 51.74a5.6 5.6 0 1 1 5.56 5.64 5.61 5.61 0 0 1-5.56-5.64zm.2 0a5.4 5.4 0 1 0 5.44-5.36 5.41 5.41 0 0 0-5.44 5.36z" transform="translate(-79.62 -33.95)"/></g><g id="_Группа_28" data-name="&lt;Группа&gt;"><circle id="_Контур_83" data-name="&lt;Контур&gt;" class="cls-4" cx="380.12" cy="51.79" r=".89" transform="rotate(-89.54 323.212 74.93)"/><path id="_Составной_контур_11" data-name="&lt;Составной контур&gt;" class="cls-12" d="M379.13 51.78a1 1 0 1 1 1 1 1 1 0 0 1-1-1zm.2 0a.79.79 0 1 0 .8-.79.79.79 0 0 0-.81.79z" transform="translate(-79.62 -33.95)"/></g><g id="_Группа_29" data-name="&lt;Группа&gt;"><path id="_Контур_84" data-name="&lt;Контур&gt;" class="cls-12" transform="rotate(-89.54 323.232 72.35)" d="M378.45 49.01h3.37v.4h-3.37z"/></g><g id="_Группа_30" data-name="&lt;Группа&gt;"><path id="_Контур_85" data-name="&lt;Контур&gt;" class="cls-12" d="M377.87 53.48a.2.2 0 0 0 .11 0l1.35-.93a.2.2 0 0 0-.23-.33l-1.35.93a.2.2 0 0 0 .11.36z" transform="translate(-79.62 -33.95)"/></g><g id="_Группа_31" data-name="&lt;Группа&gt;" class="cls-13"><path id="_Контур_86" data-name="&lt;Контур&gt;" class="cls-12" d="M376.75 48.24a5 5 0 0 0-1.52 4.08 3.66 3.66 0 0 0 1.86 2.94 8 8 0 0 1-.34-7.02z" transform="translate(-79.62 -33.95)"/></g></g><rect id="_Прямоугольник_3" data-name="&lt;Прямоугольник&gt;" class="cls-2" x="336.28" y="41.2" width="57.67" height="71.33" rx="3.92" ry="3.92" transform="rotate(-180 325.3 59.895)"/><rect id="_Прямоугольник_4" data-name="&lt;Прямоугольник&gt;" class="cls-2" x="374.53" y="64.29" width="11.18" height="10.69" rx=".67" ry=".67" transform="rotate(-180 340.31 52.655)"/><rect id="_Прямоугольник_5" data-name="&lt;Прямоугольник&gt;" class="cls-2" x="374.53" y="81.29" width="11.18" height="10.69" rx=".67" ry=".67" transform="rotate(-180 340.31 69.655)"/><path id="_Контур_87" data-name="&lt;Контур&gt;" class="cls-7" d="M288.66 31.92h-20.67"/><path id="_Контур_88" data-name="&lt;Контур&gt;" class="cls-7" d="M288.66 38.59h-20.67"/><path id="_Контур_89" data-name="&lt;Контур&gt;" class="cls-7" d="M288.66 49.25h-20.67"/><path id="_Контур_90" data-name="&lt;Контур&gt;" class="cls-7" d="M288.66 54.75h-20.67"/><path id="_Контур_91" data-name="&lt;Контур&gt;" class="cls-15" d="M388.24 102.53l31.76 23.2a2.57 2.57 0 0 1 .56 3.58l-1.5 2a2.57 2.57 0 0 1-3.58.56l-31.76-23.2c-1.14-.83-2.39-1.44-1.56-2.58L378 100l7.67 2.08c.82-1.13 1.43-.38 2.57.45z" transform="translate(-79.62 -33.95)"/><rect id="_Прямоугольник_6" data-name="&lt;Прямоугольник&gt;" class="cls-15" x="424.36" y="131.65" width="4.84" height="7.67" rx="1.78" ry="1.78" transform="rotate(-143.85 381.44 131.486)"/><rect id="_Прямоугольник_7" data-name="&lt;Прямоугольник&gt;" class="cls-12" x="420.22" y="128.15" width="4.74" height="7.67" rx="1.58" ry="1.58" transform="rotate(-143.85 377.25 127.985)"/><path id="_Контур_92" data-name="&lt;Контур&gt;" class="cls-3" d="M381.59 101.72c.13-.19-1.06 1.13-1.06 1.13L378 100l3.92 1.42z" transform="translate(-79.62 -33.95)"/><path id="_Контур_93" data-name="&lt;Контур&gt;" class="cls-7" d="M306.04 68.14l-3.5 4.05"/></g><g id="_Группа_32" data-name="&lt;Группа&gt;"><g id="_Группа_33" data-name="&lt;Группа&gt;"><circle id="_Контур_94" data-name="&lt;Контур&gt;" class="cls-17" cx="264.73" cy="125.27" r="14.17"/></g><path id="_Контур_95" data-name="&lt;Контур&gt;" class="cls-2" d="M343.34 159.69l.09-.16h-.18a14.37 14.37 0 0 0-12.49-7c-7.59 0-12.85 5.59-14.06 7h-.27l.13.16-.13.16h.27c1.22 1.41 6.48 7 14.06 7a14.37 14.37 0 0 0 12.49-7h.18z" transform="translate(-79.62 -33.95)"/><circle id="_Контур_96" data-name="&lt;Контур&gt;" class="cls-2" cx="251.32" cy="125.74" r="5.42"/><circle id="_Контур_97" data-name="&lt;Контур&gt;" class="cls-3" cx="251.32" cy="125.74" r="3.46"/></g><g id="_Группа_34" data-name="&lt;Группа&gt;"><path id="_Прямоугольник_8" data-name="&lt;Прямоугольник&gt;" class="cls-2" d="M273.66 270.04h35.75v10.03h-35.75z"/><path id="_Контур_98" data-name="&lt;Контур&gt;" class="cls-2" d="M400.9 228.2s31.37 15.5 22 45.41-26 45.57-26 53.91a24.41 24.41 0 0 1-15.33-11h-15.63v24.67h71.33v-14.34s22.67-79.33-6.33-104.33c0 0-13.13-13.33-21.46-16z" transform="translate(-79.62 -33.95)"/><path id="_Прямоугольник_9" data-name="&lt;Прямоугольник&gt;" class="cls-2" transform="rotate(21.58 438.564 3.477)" d="M378.92 185.13h20.75v88.41h-20.75z"/><path id="_Прямоугольник_10" data-name="&lt;Прямоугольник&gt;" class="cls-8" transform="rotate(21.6 428.456 2.697)" d="M379.55 185.7h4.2v84.57h-4.2z"/><rect id="_Прямоугольник_11" data-name="&lt;Прямоугольник&gt;" class="cls-2" x="363.85" y="269.6" width="12.23" height="9.78" rx="3.32" ry="3.32" transform="rotate(21.58 419.25 48.648)"/><rect id="_Прямоугольник_12" data-name="&lt;Прямоугольник&gt;" class="cls-2" x="403.33" y="179.98" width="7.83" height="8.15" rx="2.46" ry="2.46" transform="rotate(21.58 456.501 -41.785)"/><rect id="_Прямоугольник_13" data-name="&lt;Прямоугольник&gt;" class="cls-2" x="400.55" y="174.29" width="19.29" height="6.25" rx="2.71" ry="2.71" transform="rotate(21.58 459.448 -48.437)"/><path id="_Контур_99" data-name="&lt;Контур&gt;" class="cls-12" d="M357.78 302.85s.83-7.67 6.67-7.67 6.71 7.67 6.71 7.67z" transform="translate(-79.62 -33.95)"/><path id="_Контур_100" data-name="&lt;Контур&gt;" class="cls-7" d="M273.66 262.07l-4.33-3.67"/><path id="_Контур_101" data-name="&lt;Контур&gt;" class="cls-7" d="M279.33 258.4l-3.17-4.67"/><path id="_Контур_102" data-name="&lt;Контур&gt;" class="cls-7" d="M296.99 262.07l4.34-3.67"/><path id="_Контур_103" data-name="&lt;Контур&gt;" class="cls-7" d="M291.33 258.4l3.16-4.67"/><path id="_Контур_104" data-name="&lt;Контур&gt;" class="cls-7" d="M284.85 258.4v-6.83"/></g><path id="_Контур_105" data-name="&lt;Контур&gt;" class="cls-8" d="M432.5 318.54s18.5-57.61 6-73.33c0 .01 3.5 31.88-6 73.33z" transform="translate(-79.62 -33.95)"/><path id="_Прямоугольник_14" data-name="&lt;Прямоугольник&gt;" class="cls-8" d="M289.06 302.06h68.6v4.17h-68.6z"/><path id="_Контур_106" data-name="&lt;Контур&gt;" class="cls-2" d="M348.39 173.31v39.54s-1.5 13.57 7.55 13.57" transform="translate(-79.62 -33.95)"/></g></g></svg>