<svg id="Layer_1" data-name="Layer 1" xmlns="http://www.w3.org/2000/svg" viewBox="0 0 534.33 266.22"><defs><style>.cls-1,.cls-12,.cls-2{fill:none}.cls-1,.cls-2,.cls-8,.cls-9{stroke:#576c91}.cls-1,.cls-12,.cls-2,.cls-8,.cls-9{stroke-miterlimit:10}.cls-1{stroke-dasharray:4 2}.cls-3,.cls-8{fill:#fff}.cls-4,.cls-9{fill:#ffcb6f}.cls-5{opacity:.8}.cls-11,.cls-6{fill:#576c91}.cls-7{fill:#313435}.cls-10{fill:#d6d7e0}.cls-11{font-size:12px;font-family:MyriadPro-Regular,Myriad Pro}.cls-12{stroke:#ffcb6f}</style></defs><title>step-1</title><circle id="_Контур_" data-name="&lt;Контур&gt;" class="cls-1" cx="214.37" cy="117.65" r="71.47"/><path id="_Контур_2" data-name="&lt;Контур&gt;" class="cls-2" d="M86.81 173.1c-1.33 6.33 3.4 12.74 9.37 15.24s12.76 1.91 19.1.65 12.64-3.16 19.11-3.16c9 0 17.74 3.71 26.76 3.77 7.87.06 16.29-2.55 23.26 1.09a14.61 14.61 0 0 1 7.64 13.55c-.16 2.53-1 5.14-.14 7.52 1 3 4.35 4.54 7.47 4.92s6.29-.14 9.42.17c10.35 1 18.22 12.67 15.36 22.66" transform="translate(-41.44 -29.78)"/><g id="_Группа_" data-name="&lt;Группа&gt;"><g id="_Группа_2" data-name="&lt;Группа&gt;"><path id="_Контур_3" data-name="&lt;Контур&gt;" class="cls-3" d="M70.45 44.73h-35l1.75-24.8h31.49l1.76 24.8z"/><path id="_Составной_контур_" data-name="&lt;Составной контур&gt;" class="cls-4" d="M112.36 74.95H76.42l1.82-25.68h32.3zm-35-.88h34.06l-1.69-23.92H79.05z" transform="translate(-41.44 -29.78)"/></g><g id="_Группа_3" data-name="&lt;Группа&gt;"><path id="_Контур_4" data-name="&lt;Контур&gt;" class="cls-3" d="M70.45 96.21h-35l1.75 24.8h31.49l1.76-24.8z"/><path id="_Составной_контур_2" data-name="&lt;Составной контур&gt;" class="cls-4" d="M110.54 151.23h-32.3l-1.82-25.68h35.94zm-31.49-.88h30.67l1.69-23.92H77.36z" transform="translate(-41.44 -29.78)"/></g><g id="_Группа_4" data-name="&lt;Группа&gt;"><circle id="_Контур_5" data-name="&lt;Контур&gt;" class="cls-3" cx="53.01" cy="70.54" r="30.95"/><path id="_Составной_контур_3" data-name="&lt;Составной контур&gt;" class="cls-4" d="M94.45 131.71a31.39 31.39 0 1 1 31.39-31.39 31.43 31.43 0 0 1-31.39 31.39zm0-61.9A30.51 30.51 0 1 0 125 100.32a30.55 30.55 0 0 0-30.55-30.51z" transform="translate(-41.44 -29.78)"/></g><g id="_Группа_5" data-name="&lt;Группа&gt;"><circle id="_Контур_6" data-name="&lt;Контур&gt;" class="cls-3" cx="53.01" cy="70.54" r="24.37"/><path id="_Составной_контур_4" data-name="&lt;Составной контур&gt;" class="cls-4" d="M94.45 125.13a24.8 24.8 0 1 1 24.8-24.8 24.83 24.83 0 0 1-24.8 24.8zm0-48.73a23.93 23.93 0 1 0 23.93 23.93 24 24 0 0 0-23.93-23.94z" transform="translate(-41.44 -29.78)"/></g><g id="_Группа_6" data-name="&lt;Группа&gt;"><circle id="_Контур_7" data-name="&lt;Контур&gt;" class="cls-3" cx="53.01" cy="70.54" r="3.95"/><path id="_Составной_контур_5" data-name="&lt;Составной контур&gt;" class="cls-4" d="M94.45 104.71a4.39 4.39 0 1 1 4.39-4.39 4.4 4.4 0 0 1-4.39 4.39zm0-7.9a3.51 3.51 0 1 0 3.55 3.51 3.52 3.52 0 0 0-3.55-3.51z" transform="translate(-41.44 -29.78)"/></g><g id="_Группа_7" data-name="&lt;Группа&gt;"><path id="_Контур_8" data-name="&lt;Контур&gt;" class="cls-4" d="M52.13 51.65h1.76v14.94h-1.76z"/></g><g id="_Группа_8" data-name="&lt;Группа&gt;"><path id="_Контур_9" data-name="&lt;Контур&gt;" class="cls-4" d="M104.33 107.88a.87.87 0 0 1-.5-.16l-5.93-4.17a.88.88 0 0 1 1-1.44l5.93 4.17a.88.88 0 0 1-.51 1.6z" transform="translate(-41.44 -29.78)"/></g><g id="_Группа_9" data-name="&lt;Группа&gt;"><path id="_Контур_10" data-name="&lt;Контур&gt;" class="cls-4" d="M98.4 57.72h-7.9a.88.88 0 1 1 0-1.76h7.9a.88.88 0 0 1 0 1.76z" transform="translate(-41.44 -29.78)"/></g><g id="_Группа_10" data-name="&lt;Группа&gt;"><path id="_Контур_11" data-name="&lt;Контур&gt;" class="cls-4" d="M99.94 64.09H89a.88.88 0 1 1 0-1.76h11a.88.88 0 1 1 0 1.76z" transform="translate(-41.44 -29.78)"/></g><g id="_Группа_11" data-name="&lt;Группа&gt;"><path id="_Контур_12" data-name="&lt;Контур&gt;" class="cls-4" d="M98.4 144.53h-7.9a.88.88 0 0 1 0-1.76h7.9a.88.88 0 0 1 0 1.76z" transform="translate(-41.44 -29.78)"/></g><g id="_Группа_12" data-name="&lt;Группа&gt;"><path id="_Контур_13" data-name="&lt;Контур&gt;" class="cls-4" d="M99.94 138.17H89a.88.88 0 1 1 0-1.76h11a.88.88 0 1 1 0 1.76z" transform="translate(-41.44 -29.78)"/></g><g id="_Группа_13" data-name="&lt;Группа&gt;" class="cls-5"><path id="_Контур_14" data-name="&lt;Контур&gt;" class="cls-4" d="M109.49 84.72s8.34 7.79 6.59 18.11-8.34 13-8.34 13 8.77-13.33 1.75-31.11z" transform="translate(-41.44 -29.78)"/></g><g id="_Группа_14" data-name="&lt;Группа&gt;" class="cls-5"><path id="_Контур_15" data-name="&lt;Контур&gt;" class="cls-4" d="M104.11 131.27s5-1.2 5.78-2.9l-2.16 20.93h-2.89z" transform="translate(-41.44 -29.78)"/></g><g id="_Группа_15" data-name="&lt;Группа&gt;" class="cls-5"><path id="_Контур_16" data-name="&lt;Контур&gt;" class="cls-4" d="M104.11 68.79s5 1.2 5.78 2.9l-2.16-20.93h-2.89z" transform="translate(-41.44 -29.78)"/></g></g><g id="_Группа_16" data-name="&lt;Группа&gt;"><path id="_Составной_контур_6" data-name="&lt;Составной контур&gt;" class="cls-6" d="M333.93 32.5l-28.5 23.59 51.64 62.4 28.5-23.59zm-16.3 20l10.66-8.82a6.62 6.62 0 0 0 9.16.94l36.85 44.51c-3.08 2.55-3.29 6.15-1.38 8.46l-10.66 8.82c-1.91-2.31-6.45-2-8.76-.07l-36.85-44.52c2.35-1.92 2.89-7.02.98-9.34z" transform="translate(-41.44 -29.78)"/><path id="_Составной_контур_7" data-name="&lt;Составной контур&gt;" class="cls-3" d="M353.5 106.34c2.31-1.91 6.85-2.24 8.76.07l10.66-8.82c-1.91-2.31-1.7-5.91 1.38-8.46L337.45 44.6a6.62 6.62 0 0 1-9.16-.94l-10.66 8.82c1.91 2.31 1.33 7.42-1 9.33zm7.43-16.94A2.79 2.79 0 1 1 357 89a2.79 2.79 0 0 1 3.93.4zm-7.16-20.79c3.32 4 2.34 10.29-2.19 14s-10.89 3.54-14.2-.47-2.34-10.29 2.19-14 10.88-3.54 14.2.47zm-19.09-10.92a2.79 2.79 0 1 1-3.93-.37 2.79 2.79 0 0 1 3.93.37z" transform="translate(-41.44 -29.78)"/><path id="_Составной_контур_8" data-name="&lt;Составной контур&gt;" class="cls-6" d="M337.37 82.18c3.32 4 9.68 4.22 14.2.47s5.51-10 2.19-14-9.68-4.22-14.2-.47-5.5 9.99-2.19 14zM347.46 69a4.52 4.52 0 0 1 2.54 1.73l1.54-1.26.83 1L351 71.6a6 6 0 0 1 .78 1.31c.28.5.77 1.31.64 1.42l-1.84 1.52c.2-.17-.24-1-.48-1.55a3.93 3.93 0 0 0-.75-1.33l-2.08 1.72.15.27a5.65 5.65 0 0 1 1 3.14 3.57 3.57 0 0 1-1.45 2.33 3.41 3.41 0 0 1-2.73.87 6.23 6.23 0 0 1-2.83-1.75l-2.11 1.75-.83-1 2.13-1.78a10.47 10.47 0 0 1-1-1.62c-.31-.6-.9-1.58-.7-1.74l1.9-1.57c-.28.24.33 1.42.6 2.06a6.23 6.23 0 0 0 1 1.78l2.25-1.87-.23-.37a5.87 5.87 0 0 1-.92-3.06 3.3 3.3 0 0 1 1.31-2.24 3.36 3.36 0 0 1 2.65-.89z" transform="translate(-41.44 -29.78)"/><path id="_Контур_17" data-name="&lt;Контур&gt;" class="cls-7" d="M345 78.57a1.26 1.26 0 0 0 .49-.9c0-.31.16-.35-.43-1.16l-2 1.67c.64.77.66.62 1 .67a1.17 1.17 0 0 0 .94-.28z" transform="translate(-41.44 -29.78)"/><path id="_Контур_18" data-name="&lt;Контур&gt;" class="cls-7" d="M346.79 73.79l1.89-1.57c-.66-.75-.67-.58-1-.63a1.13 1.13 0 0 0-.91.19 1.22 1.22 0 0 0-.39.9c-.01.32-.19.32.41 1.11z" transform="translate(-41.44 -29.78)"/><circle id="_Контур_19" data-name="&lt;Контур&gt;" class="cls-6" cx="332.53" cy="59.46" r="2.79" transform="rotate(-39.61 270.478 102.11)"/><circle id="_Контур_20" data-name="&lt;Контур&gt;" class="cls-6" cx="358.78" cy="91.18" r="2.79" transform="rotate(-39.61 296.733 133.822)"/><path id="_Составной_контур_9" data-name="&lt;Составной контур&gt;" class="cls-3" d="M344.4 75.2l.23.37-2.25 1.87a6.23 6.23 0 0 1-1-1.78c-.27-.64-.89-1.83-.6-2.06l-1.9 1.57c-.2.16.37 1.16.68 1.76a11.28 11.28 0 0 0 1.1 1.66l-2.18 1.72.83 1 2.11-1.75a6.25 6.25 0 0 0 2.83 1.76 3.4 3.4 0 0 0 2.72-.89 3.56 3.56 0 0 0 1.46-2.32 5.71 5.71 0 0 0-1-3.15l-.15-.27 2.06-1.69a3.93 3.93 0 0 1 .75 1.33c.25.53.68 1.38.48 1.55l1.84-1.52c.13-.11-.36-.92-.64-1.42a6 6 0 0 0-.77-1.34l1.37-1.13-.83-1-1.54 1.26a4.53 4.53 0 0 0-2.61-1.73 3.68 3.68 0 0 0-3.92 3.1 5.88 5.88 0 0 0 .93 3.1zm.66 1.31c.59.81.45.85.43 1.16a1.25 1.25 0 0 1-.51.89 1.17 1.17 0 0 1-1 .29c-.32-.06-.32.1-1-.67zm2.63-4.92c.32 0 .33-.13 1 .63l-1.89 1.57c-.59-.81-.44-.83-.42-1.13a1.14 1.14 0 0 1 .46-.81 1.06 1.06 0 0 1 .85-.26z" transform="translate(-41.44 -29.78)"/></g><path id="_Контур_21" data-name="&lt;Контур&gt;" class="cls-2" d="M446.15 157.92s35.57 15.33 129.12 13.67v42.67s-109.12-6.33-130.45-19z" transform="translate(-41.44 -29.78)"/><path id="_Контур_22" data-name="&lt;Контур&gt;" class="cls-8" d="M368.48 106.5s9.25 11.75 9.75 26.75S379.73 157 399 168a116.82 116.82 0 0 0 38.25 13.5V155s-24.25-2-24-19.75a216.67 216.67 0 0 1 3.5-34.25s2-10.5-8-14c-12.18-4.26-34.51-5.49-34.51-5.49S373.23 94 384.73 95s19 5.5 18.13 12.75S398.73 122 392 114.5 371.73 88 368.48 87.25c-2.78-.64-6.75 1.25-5.5 8.5s5.5 10.75 5.5 10.75z" transform="translate(-41.44 -29.78)"/><path id="_Контур_23" data-name="&lt;Контур&gt;" class="cls-2" d="M402.9 106s-11.16-4-16.91-3-10.63-9.47-8.06-10.48" transform="translate(-41.44 -29.78)"/><path id="_Контур_24" data-name="&lt;Контур&gt;" class="cls-2" d="M402 112.21s-8.66-3.79-11.94 0" transform="translate(-41.44 -29.78)"/><path id="_Контур_25" data-name="&lt;Контур&gt;" class="cls-6" d="M403.7 156.3h-7.91v-31.08l8.92 2.92-1.01 28.16z"/><circle id="_Контур_26" data-name="&lt;Контур&gt;" class="cls-2" cx="437.79" cy="99.22" r="27.75"/><path id="_Контур_27" data-name="&lt;Контур&gt;" class="cls-2" d="M479.23 101.25s24.58 18.5 6.68 54.69" transform="translate(-41.44 -29.78)"/><path id="_Контур_28" data-name="&lt;Контур&gt;" class="cls-2" d="M478.3 101.27s-30.65 20.69-4.81 54.67" transform="translate(-41.44 -29.78)"/><path id="_Контур_29" data-name="&lt;Контур&gt;" class="cls-2" d="M459.12 109.89s7.19 10.05 20.11 10c12.29 0 21.43-8.55 21.43-8.55" transform="translate(-41.44 -29.78)"/><path id="_Контур_30" data-name="&lt;Контур&gt;" class="cls-2" d="M459.12 147.43s7.19-10.05 20.11-10c12.29 0 21.43 8.55 21.43 8.55" transform="translate(-41.44 -29.78)"/><path id="_Контур_31" data-name="&lt;Контур&gt;" class="cls-2" d="M410.04 99.22h55.5"/><path id="_Прямоугольник_" data-name="&lt;Прямоугольник&gt;" class="cls-8" d="M386.54 77.97h26.5v21.25h-26.5z"/><path id="_Контур_32" data-name="&lt;Контур&gt;" class="cls-2" d="M386.54 77.97l13.25 10.62 13.25-10.62"/><path id="_Контур_33" data-name="&lt;Контур&gt;" class="cls-1" d="M525.73 125.5s2 21.84-23.27 18.67" transform="translate(-41.44 -29.78)"/><circle id="_Контур_34" data-name="&lt;Контур&gt;" class="cls-4" cx="483.04" cy="91.8" r="4"/><g id="_Группа_17" data-name="&lt;Группа&gt;"><rect id="_Прямоугольник_2" data-name="&lt;Прямоугольник&gt;" class="cls-8" x="446.8" y="63.16" width="24.83" height="16.67" rx="2.83" ry="2.83"/><circle id="_Контур_35" data-name="&lt;Контур&gt;" class="cls-2" cx="468.18" cy="68.45" r="2"/><path id="_Прямоугольник_3" data-name="&lt;Прямоугольник&gt;" class="cls-4" d="M447.47 72.45h23.48v4h-23.48z"/></g><g id="_Группа_18" data-name="&lt;Группа&gt;"><path id="_Прямоугольник_4" data-name="&lt;Прямоугольник&gt;" class="cls-2" d="M369.56 166.45h21.14v28.47h-21.14z"/><path id="_Контур_36" data-name="&lt;Контур&gt;" class="cls-8" d="M375.35 229.5h27.86a8.75 8.75 0 0 0 8.73-8.73v-20.43a8.75 8.75 0 0 0-8.73-8.73h-27.86z" transform="translate(-41.44 -29.78)"/><ellipse id="_Контур_37" data-name="&lt;Контур&gt;" class="cls-2" cx="372.28" cy="179.6" rx="6.81" ry="6.28"/><rect id="_Прямоугольник_5" data-name="&lt;Прямоугольник&gt;" class="cls-9" x="350.07" y="172.14" width="24.53" height="14.93" rx="4.03" ry="4.03"/><rect id="_Прямоугольник_6" data-name="&lt;Прямоугольник&gt;" class="cls-2" x="355.22" y="176.58" width="5.69" height="5.87" rx="2.84" ry="2.84"/><path id="_Контур_38" data-name="&lt;Контур&gt;" class="cls-2" d="M375.35 191.61l19.55-5.71s11.18-3.54 11.18 2.6v3.11" transform="translate(-41.44 -29.78)"/><path id="_Составной_контур_10" data-name="&lt;Составной контур&gt;" class="cls-2" d="M428.83 200.61h-8.29m7.58 5.75v-5.75" transform="translate(-41.44 -29.78)"/><path id="_Составной_контур_11" data-name="&lt;Составной контур&gt;" class="cls-2" d="M420.54 219.16h8.29m-.71 0v-5.75" transform="translate(-41.44 -29.78)"/></g><path id="_Контур_39" data-name="&lt;Контур&gt;" class="cls-1" d="M378.48 226.25h20.29s8.38.15 8.14-5" transform="translate(-41.44 -29.78)"/><path id="_Контур_40" data-name="&lt;Контур&gt;" class="cls-1" d="M337.04 165.22v24.16"/><path id="_Прямоугольник_7" data-name="&lt;Прямоугольник&gt;" class="cls-2" d="M59 168.85h78.04v8.41H59z"/><rect id="_Прямоугольник_8" data-name="&lt;Прямоугольник&gt;" class="cls-2" x="9.83" y="11.02" width="176.67" height="119.67" rx="2.83" ry="2.83"/><rect id="_Прямоугольник_9" data-name="&lt;Прямоугольник&gt;" class="cls-2" x=".5" y=".5" width="195.33" height="142.19" rx="3.25" ry="3.25"/><path id="_Прямоугольник_10" data-name="&lt;Прямоугольник&gt;" class="cls-8" d="M75.17 142.69h46.96v26.58H75.17z"/><ellipse id="_Контур_41" data-name="&lt;Контур&gt;" class="cls-9" cx="182.62" cy="230.68" rx="15.13" ry="21.38"/><ellipse id="_Контур_42" data-name="&lt;Контур&gt;" class="cls-8" cx="182.37" cy="223.21" rx="12.88" ry="13.12"/><ellipse id="_Контур_43" data-name="&lt;Контур&gt;" class="cls-6" cx="182.62" cy="222.47" rx="4.38" ry="6.56"/><path id="_Контур_44" data-name="&lt;Контур&gt;" class="cls-2" d="M195.25 223.21H169.5"/><rect id="_Прямоугольник_11" data-name="&lt;Прямоугольник&gt;" class="cls-2" x="156.25" y="199.72" width="79.17" height="66" rx="2.83" ry="2.83"/><g id="_Группа_19" data-name="&lt;Группа&gt;"><path id="_Прямоугольник_12" data-name="&lt;Прямоугольник&gt;" class="cls-2" d="M217.17 122.44h86.5v53.5h-86.5z"/><path id="_Контур_45" data-name="&lt;Контур&gt;" class="cls-8" d="M255.11 134.14h93v20.33s6 22-36.33 19.67h-28s-25.67 2.33-28.67-18.33z" transform="translate(-41.44 -29.78)"/><path id="_Контур_46" data-name="&lt;Контур&gt;" class="cls-10" d="M258.11 150.8s1.79 19 32.5 19h25.83s19-.33 27.67-13.83c0 0 3-4.33 2.83-5.17s3 13-7.5 19-39 3.33-63.17 2.67-18.16-21.67-18.16-21.67z" transform="translate(-41.44 -29.78)"/><path id="_Прямоугольник_13" data-name="&lt;Прямоугольник&gt;" class="cls-9" d="M251 138.02h18.33v13.33H251z"/><path id="_Прямоугольник_14" data-name="&lt;Прямоугольник&gt;" class="cls-9" d="M257.42 145.69h6v5.67h-6z"/><path id="_Контур_47" data-name="&lt;Контур&gt;" class="cls-2" d="M288.36 130.47s5.25-9.75 13.5-9.5 13.25 9.5 13.25 9.5h6.25s-5.5-15.5-19.75-15.25-20.5 15.25-20.5 15.25z" transform="translate(-41.44 -29.78)"/><rect id="_Прямоугольник_15" data-name="&lt;Прямоугольник&gt;" class="cls-9" x="235.67" y="100.69" width="15.17" height="3.67" rx="1.83" ry="1.83"/><rect id="_Прямоугольник_16" data-name="&lt;Прямоугольник&gt;" class="cls-9" x="269.33" y="100.69" width="15.17" height="3.67" rx="1.83" ry="1.83"/><path id="_Контур_48" data-name="&lt;Контур&gt;" class="cls-10" d="M237.67 140.03l.66-24.5 2.84 24.5h-3.5z"/><path id="_Контур_49" data-name="&lt;Контур&gt;" class="cls-10" d="M278.87 140.03l.67-24.5 2.83 24.5h-3.5z"/></g><rect id="_Прямоугольник_17" data-name="&lt;Прямоугольник&gt;" class="cls-9" x="101.06" y="87.67" width="71.55" height="26.37" rx="2.83" ry="2.83"/><text class="cls-11" transform="translate(113.04 105.18)">BUY NOW</text><g id="_Группа_20" data-name="&lt;Группа&gt;"><g id="_Группа_21" data-name="&lt;Группа&gt;"><path id="_Составной_контур_12" data-name="&lt;Составной контур&gt;" class="cls-12" d="M188.38 86.36a.7.7 0 0 0 .67-.51l3.2-15a.71.71 0 0 0-.67-.88h-28.8l-.62-2.97-.7-3.34a.7.7 0 0 0-.67-.51h-3.93a.7.7 0 0 0 0 1.4h3.37l2.45 11.76a.74.74 0 0 0 .06.26L165 87.48l.56 2.67a3.47 3.47 0 0 0 1 6.73 3.47 3.47 0 0 0 3.55-3.26.73.73 0 0 0 0-.21.71.71 0 0 0 0-.2 3.85 3.85 0 0 0-.7-1.87h15.14a3.45 3.45 0 0 0-.7 2.08 3.42 3.42 0 0 0 6.83.21.85.85 0 0 0 0-.21.71.71 0 0 0 0-.2 3.48 3.48 0 0 0-3.41-3.27h-20.33l-.75-3.58zM164.24 77h4.65l1.36 8h-4.35l-1.66-8zm13.29 8v-8h6.23q-.68 4-1.36 7.95zm-1.38 0h-4.51l-1.36-8h5.87zm11.67 0h-4l1.33-8h4.37l-1.7 8zm.06-13.6h2.84l-.91 4.26h-25.86q-.44-2.13-.89-4.26zm-23.2 22.05c0-2.68 4-2.66 4.1 0-.14 2.66-4.1 2.68-4.1 0zm24.66 0c-.14 2.66-4.09 2.68-4.09 0s4-2.66 4.09 0zm0 0" transform="translate(-41.44 -29.78)"/></g></g><circle id="_Контур_50" data-name="&lt;Контур&gt;" class="cls-1" cx="236.05" cy="31.45" r="10.84"/><circle id="_Контур_51" data-name="&lt;Контур&gt;" class="cls-6" cx="413.42" cy="161.83" r="3.36"/><path id="_Контур_52" data-name="&lt;Контур&gt;" class="cls-10" d="M465 191.61s82 14.6 107 11.49v10.31s-75.5-2.69-107-21.8z" transform="translate(-41.44 -29.78)"/></svg>