<svg width="28" height="18" viewBox="0 0 28 18" fill="none" xmlns="http://www.w3.org/2000/svg">
<path fill-rule="evenodd" clip-rule="evenodd" d="M13.8082 1.06668C6.36882 1.06668 1.04883 9.23335 1.04883 9.23335C1.04883 9.23335 6.36882 17.4 13.8082 17.4C21.2475 17.4 26.5675 9.23335 26.5675 9.23335C26.5675 9.23335 21.2475 1.06668 13.8082 1.06668Z" stroke="#7D77E9" stroke-linecap="round" stroke-linejoin="round"/>
<path fill-rule="evenodd" clip-rule="evenodd" d="M13.8081 13.6667C16.1969 13.6667 18.1333 11.5773 18.1333 9.00001C18.1333 6.42268 16.1969 4.33334 13.8081 4.33334C11.4194 4.33334 9.48291 6.42268 9.48291 9.00001C9.48291 11.5773 11.4194 13.6667 13.8081 13.6667Z" stroke="#7D77E9" stroke-linecap="round" stroke-linejoin="round"/>
<path d="M12.2943 8.06668C11.9839 8.64683 11.9853 9.36199 12.2982 9.94065C12.611 10.5193 13.1873 10.8727 13.8081 10.8667" stroke="#7D77E9" stroke-linecap="round" stroke-linejoin="round"/>
</svg>
