<svg width="170" height="170" viewBox="0 0 170 170" fill="none" xmlns="http://www.w3.org/2000/svg">
<path d="M165.329 142.706H98.8984C97.0729 142.706 95.5925 144.193 95.5925 146.026C95.5925 149.077 93.1214 151.559 90.0839 151.559H79.0981C76.0606 151.559 73.5894 149.077 73.5894 146.026C73.5894 144.193 72.109 142.706 70.2835 142.706H18.6728V57.3866C18.6728 53.5719 21.7631 50.4681 25.5613 50.4681H66.7908L66.8209 50.7589L59.9519 57.2701C59.9291 57.292 59.906 57.3146 59.8835 57.3368C53.8796 63.3675 50.5731 71.3854 50.5731 79.913V94.7391C50.5731 96.051 51.3424 97.24 52.5361 97.7732C52.9672 97.9658 53.4247 98.0595 53.8786 98.0595C54.6816 98.0595 55.4744 97.7656 56.0939 97.2045L70.5602 84.0952C70.9768 84.8107 71.6508 85.3619 72.4747 85.6063C76.3594 86.7588 80.3831 87.3501 84.4338 87.3641C84.4824 87.3641 84.5313 87.3644 84.5802 87.3644C88.6792 87.3644 92.7511 86.773 96.6845 85.6063C97.5318 85.3546 98.2191 84.7759 98.632 84.0281L113.174 97.2061C113.794 97.7673 114.587 98.0611 115.39 98.0611C115.843 98.0611 116.301 97.9675 116.732 97.7749C117.926 97.242 118.695 96.0527 118.695 94.7408V79.9146C118.695 71.3867 115.389 63.3692 109.385 57.3385L103.032 50.9578L103.093 50.4674H143.707C147.505 50.4674 150.595 53.5713 150.595 57.386V142.706C150.595 144.539 152.076 146.026 153.901 146.026C155.727 146.026 157.207 144.539 157.207 142.706C157.207 140.872 157.207 57.3866 157.207 57.3866C157.207 49.9099 151.151 43.8275 143.707 43.8275H103.858C105.016 28.7204 99.9603 13.7926 89.7702 2.50385L89.189 1.8607C88.1205 0.67668 86.5988 0 85.009 0C84.9951 0 84.9809 0 84.967 0C83.362 0.0119531 81.8334 0.713203 80.7732 1.92346L79.6779 3.17322C69.9123 14.3188 65.0185 29.0577 66.1283 43.8275H25.5616C18.1174 43.8275 12.0613 49.9099 12.0613 57.3866V142.706H3.93969C2.11417 142.706 0.633789 144.193 0.633789 146.026V151.202C0.633789 161.567 9.03012 170 19.3495 170H149.918C160.238 170 168.634 161.568 168.634 151.203V146.026C168.634 144.192 167.154 142.706 165.329 142.706ZM100.405 71.8702L101.984 59.2981L104.709 62.0347C109.464 66.811 112.083 73.1611 112.083 79.9153V87.2737L99.8618 76.1989L100.405 71.8702ZM84.6414 7.56035L85.0199 7.12871C94.413 17.6292 98.7897 31.6675 97.0299 45.6802L96.2699 51.7328L96.2686 51.7401L93.086 77.087L92.7475 79.7841C90.0707 80.4083 87.3334 80.7238 84.5806 80.7238C84.5392 80.7238 84.4979 80.7238 84.4566 80.7234C81.7629 80.7141 79.0835 80.4027 76.4639 79.7961L73.8592 54.5461L73.5663 51.7059L72.8397 44.6648C71.4535 31.2265 75.7551 17.7022 84.6414 7.56035ZM69.4408 76.1653L57.1849 87.2718V79.9133C57.1849 73.1747 59.7919 66.8382 64.526 62.0659L67.6785 59.0773L69.4408 76.1653ZM149.918 163.359H19.3495C12.6752 163.359 7.24526 157.906 7.24526 151.202V149.346H67.4352C68.8775 154.45 73.5597 158.199 79.0974 158.199H90.0832C95.6209 158.199 100.303 154.45 101.745 149.346H162.022V151.203C162.022 157.906 156.593 163.359 149.918 163.359Z" fill="#3E3B7C"/>
<path d="M141.064 57.8799H124.349C122.516 57.8799 121.029 59.3668 121.029 61.2003C121.029 63.0337 122.516 64.5206 124.349 64.5206H137.744V128.849H33.3711V64.5206H43.9025C45.7359 64.5206 47.2228 63.0337 47.2228 61.2003C47.2228 59.3668 45.7359 57.8799 43.9025 57.8799H30.0508C28.2173 57.8799 26.7305 59.3668 26.7305 61.2003V132.169C26.7305 134.002 28.2173 135.489 30.0508 135.489H141.064C142.897 135.489 144.384 134.002 144.384 132.169V61.2003C144.384 59.3668 142.898 57.8799 141.064 57.8799Z" fill="#3E3B7C"/>
<path d="M85 38.3729C86.8338 38.3729 88.3203 36.8864 88.3203 35.0526C88.3203 33.2189 86.8338 31.7323 85 31.7323C83.1662 31.7323 81.6797 33.2189 81.6797 35.0526C81.6797 36.8864 83.1662 38.3729 85 38.3729Z" fill="#3E3B7C"/>
<path d="M76.3662 92.1888C74.5327 92.1888 73.0459 93.6756 73.0459 95.5091V109.024C73.0459 110.858 74.5327 112.345 76.3662 112.345C78.1997 112.345 79.6865 110.858 79.6865 109.024V95.5091C79.6865 93.6756 78.2 92.1888 76.3662 92.1888Z" fill="#3E3B7C"/>
<path d="M93.2354 91.4191C91.4019 91.4191 89.915 92.906 89.915 94.7394V114.67C89.915 116.503 91.4019 117.99 93.2354 117.99C95.0688 117.99 96.5557 116.504 96.5557 114.67V94.7394C96.5557 92.906 95.0688 91.4191 93.2354 91.4191Z" fill="#3E3B7C"/>
</svg>
